<svg enable-background="new 0 0 374 293.2" viewBox="0 0 374 293.2" xmlns="http://www.w3.org/2000/svg"><path d="m368.1 246.4c-116 .6-246.2.6-362.2 0 116-.6 246.2-.6 362.2 0z" fill="#263238"/><path d="m332.5 19.1h-100.9c-5.7.1-10.3 4.7-10.2 10.4v207.7c0 5.7 4.5 10.3 10.2 10.4h100.9c5.7-.1 10.3-4.7 10.2-10.4v-207.7c.1-5.7-4.5-10.3-10.2-10.4zm3.9 211.8c0 5.5-4.1 9.9-9.1 9.9h-90.3c-5.1 0-9.2-4.4-9.2-9.9v-193.5c0-11.1 4.1-11.7 9.2-11.7h18c1.1 0 1.9 1.2 1.9 2.7v.6c0 3.5 1.9 3.5 4.2 3.5h41.9c2.4 0 4.2 0 4.2-3.5v-.6c0-1.5.8-2.7 1.9-2.7h18.1c5.1 0 9.1 1.5 9.1 11.7v193.5z" fill="#263238"/><path d="m287.8 28.2h-11.4c-.4 0-.7-.3-.7-.7 0-.4.3-.7.7-.7h11.4c.4 0 .7.3.7.7 0 .4-.3.7-.7.7z" fill="#fff"/><path d="m336.4 37.4v193.5c0 5.5-4.1 9.9-9.1 9.9h-90.3c-5.1 0-9.2-4.4-9.2-9.9v-193.5c0-11.1 4.1-11.7 9.2-11.7h18c1.1 0 1.9 1.2 1.9 2.7v.6c0 3.5 1.9 3.5 4.2 3.5h41.9c2.4 0 4.2 0 4.2-3.5v-.6c0-1.5.8-2.7 1.9-2.7h18.1c5.1 0 9.2 1.5 9.2 11.7z" fill="#fff"/><path d="m235 64.8h94.1v112.9h-94.1z" fill="#ebebeb"/><path d="m235 188.8c13.7-.4 27.5-.4 41.3 0-13.8.4-27.6.4-41.3 0z" fill="#dbdbdb"/><path d="m235 192.6c19.1-.4 40.3-.4 59.5 0-19.1.3-40.4.4-59.5 0z" fill="#ebebeb"/><path d="m235 195.5c19.1-.4 40.3-.4 59.5 0-19.1.4-40.4.4-59.5 0z" fill="#ebebeb"/><path d="m235 198.5c19.1-.4 40.3-.4 59.5 0-19.1.4-40.4.4-59.5 0z" fill="#ebebeb"/><path d="m249.4 161.2h65.4l-9.6-65.4h-46.3z" fill="#7bb743"/><path d="m258.9 95.8 7.3 65.4h-16.8z" fill="#263238" opacity=".1"/><path d="m291.8 100.4c0-.1-1.2-5.5-2.5-11.1-1.1-4.6-5.7-6.8-9.6-6.1-1.4.2-5.8 1.4-5.3 7 .7 6.5 1.2 9.6 1.2 9.7l-2.8.4c0-.1-.5-3.2-1.2-9.8-.5-5.3 2.4-9.2 7.6-10 5.1-.8 11.4 2 12.8 8.3 1.3 5.6 2.5 11.1 2.5 11.1z" fill="#455a64"/><path d="m265.3 160.7c-1.5-.7-2.9-1.4-4.4-2.2s-2.9-1.6-4.3-2.4h.4c-1.1.8-2.3 1.6-3.4 2.3-1.1.8-2.3 1.5-3.5 2.2 1-.9 2.1-1.8 3.2-2.6s2.2-1.7 3.3-2.5l.2-.1.2.1c1.4.8 2.8 1.6 4.2 2.5s2.7 1.8 4.1 2.7z" fill="#fff"/><path d="m256.8 155.9c0-4.2.1-8.4.2-12.5.1-4.2.2-8.4.4-12.5.1-4.2.3-8.4.5-12.5l.3-6.3c.1-2.1.2-4.2.4-6.3v6.3l-.1 6.3c-.1 4.2-.2 8.4-.4 12.5-.1 4.2-.3 8.4-.5 12.5-.3 4.1-.6 8.3-.8 12.5z" fill="#fff"/><path d="m290.4 100.1c0 1.5 1.2 2.8 2.7 2.8s2.8-1.2 2.8-2.7-1.2-2.8-2.7-2.8c-1.5-.1-2.8 1.2-2.8 2.7z" fill="#263238"/><ellipse cx="274.5" cy="100.1" fill="#263238" rx="2.8" ry="2.7"/><path d="m46.5 246.2 158 .7c38.4-30.1 42.4-74.8 15-101.9-16.6-16.4-37.6-13.1-57.7-15.7h-.1c-7.1-.8-14-2.8-20.3-6-20.6-10.9-32.3-36.6-49.6-58.2-2.2-2.7-4.4-5.4-6.8-7.9-14.3-15.2-42.7-15.7-57.6 5.8-37.8 54.4-20.5 135.5 19.1 183.2z" fill="#ffc727"/><path d="m43 121.6c4.1 64.8 79 89 125.7 69.6 40.6-16.9 27.3-55.4-7-61.9h-.1c-7.1-.8-14-2.8-20.3-6-20.6-10.9-32.3-36.6-49.6-58.2-25.8-13.4-51.8 9-48.7 56.5z" opacity=".1"/><path d="m185.6 282c-2.4-1-56.2-47.9-57.2-51-.4-1.2 6-9.4 14-19.1 1.7-2.1 3.5-4.3 5.4-6.5 11.9-14.2 24.8-29 24.8-29l36.1 31.3-25.8 28.2-5.7 6.2s12.6 27.2 13.2 30.7-2.4 10.2-4.8 9.2z" fill="#eb9481"/><path d="m185.6 282c-2.4-1-56.2-47.9-57.2-51-.4-1.4 9.1-13.3 19.4-25.6l35.1 30.4-5.7 6.2s12.6 27.2 13.2 30.7-2.4 10.3-4.8 9.3z" fill="#fff"/><path d="m185.6 282c-2.4-1-56.2-47.9-57.2-51-.4-1.2 6-9.4 14-19.1l34.8 30.1s12.6 27.2 13.2 30.7-2.4 10.3-4.8 9.3z" fill="#455a64"/><path d="m186.7 279.2c-8.8-8.1-45.2-39.9-54.5-47.2-.1-.1-.1 0-.1.1 8.6 8.2 45.2 39.7 54.5 47.3.1.1.3-.1.1-.2z" fill="#263238"/><path d="m188.6 267.7c-2-1.8-4.6-2.7-7.3-2.5-2.4.2-4.6 1.3-6.2 3.1-.1.1 0 .1.1.1 3.8-3.1 9.3-3.4 13.3-.5h.1c.1-.1.1-.2 0-.2z" fill="#263238"/><path d="m179.9 245.9c-3.6-3.2-8.9-5.6-13.7-4.6-.2 0-.1.3 0 .4 4.6 1.1 9.1 2.7 13.3 4.7.1.1.3.1.4-.1.2-.1.1-.3 0-.4z" fill="#263238"/><path d="m181.7 249.4c-3.6-3.2-8.9-5.6-13.7-4.6-.2 0-.1.3 0 .3 4.6 1.1 9.1 2.7 13.3 4.7.1.1.3.1.4-.1.2 0 .2-.2 0-.3z" fill="#263238"/><path d="m183.6 253c-3.6-3.2-8.9-5.6-13.7-4.6-.2 0-.1.3 0 .3 4.6 1.1 9.1 2.7 13.4 4.7.2.1.3 0 .4-.2 0 0 0-.1-.1-.2z" fill="#263238"/><path d="m185.4 256.5c-3.6-3.2-8.9-5.6-13.7-4.6-.2 0-.1.3 0 .3 4.6 1.1 9.1 2.7 13.3 4.7.1.1.3.1.4-.1.2 0 .2-.2 0-.3z" fill="#263238"/><path d="m141.9 225.4c-4.1-3.5-9.5 2.8-5.5 6.3s9.6-2.8 5.5-6.3z" fill="#fff"/><path d="m192.2 239.7c-.5-3.1-4.1-3.6-6.6-3-4.3 1.1-8.2 3.3-11.3 6.3-.1.1-.1.1 0 .2-.2.3-.1.6.2.8.1 0 .1.1.2.1 4.1.5 8.5 1.5 12.6.6 2.4-.4 5.4-2.1 4.9-5zm-11.1 3.8c-2-.2-4-.5-6.1-.6 2.2-1.3 4.4-2.5 6.7-3.6 1.1-.5 2.3-.9 3.4-1.3 1.8-.5 8-.4 4.9 3.8-1.6 2.4-6.5 1.9-8.9 1.7z" fill="#263238"/><path d="m164.1 236.6c2.7 3.2 6.8 5.1 10.3 7.4.3.1.6 0 .8-.2 0-.1 0-.1.1-.2.1 0 .1 0 .1-.1-.5-4.4-2.2-8.5-4.9-12.1-1.6-2-4.7-3.9-7.1-1.7s-.9 5 .7 6.9zm-.4-4c.3-5.2 5.1-1.4 6.2.1.7 1 1.3 2.1 1.9 3.2 1.1 2.3 2.1 4.6 3 7-1.6-1.2-3.4-2.2-5.1-3.4-2-1.4-6.1-4-6-6.9z" fill="#263238"/><path d="m248.8 152.2c-3.4 19.3-53.6 73.3-59.4 79.5l-1.3 1.4-38.3-32.1.5-.6 36.8-44.1-103.9-5 40.8-29s3.1 2 9.8 1.3c23.1-2.4 75.1-7.6 87.3-6.6 15.6 1.3 30.8 17.5 27.7 35.2z" fill="#263238"/><path d="m200.3 139.9c-1.4 1.4-2.6 2.9-3.8 4.5-1.3 1.6-2.6 3.1-3.9 4.7.2-.5.5-.9.7-1.4.9-1.6 1.5-3.2 2.5-4.7v-.1h-.1c-1 1.5-2.2 2.9-3 4.5-.4.7-.8 1.5-1.2 2.2-.2.4-.4.8-.6 1.3-.1.2-.2.4-.3.6-.6.7-1.2 1.5-1.7 2.2-1.2 1.6-2.4 3.4-3.6 5-.1.1.1.2.1.1 1.3-1.5 2.7-3 4-4.5s2.6-3.1 3.8-4.8 2.4-3.2 3.6-4.7c1.3-1.5 2.5-3.2 3.6-4.9 0 0 0-.1-.1 0z" fill="#37474f"/><path d="m193.8 224.2c-2.2-2-4.5-3.9-6.8-5.8s-4.6-3.8-6.9-5.6c-4.6-3.7-9.3-7.5-14-11.1-2.6-2-5.2-4-7.9-5.9-.1-.1-.3.1-.1.2 4.4 4 9.1 7.7 13.7 11.4s9.3 7.4 14 11.1c2.6 2 5.1 4.1 7.8 5.9.2 0 .3-.1.2-.2z" fill="#37474f"/><path d="m121.5 62.3c21.7 20.7 41.7 43.2 42.9 54.4 1.8 15.6-7.9 19.6-12.1 19.5-11.6-.2-31.5-48-38.3-66.2-6.6-17.6 2.8-12.2 7.5-7.7z" fill="#455a64"/><path d="m135.4 136.8s-73 11.1-73.4 10.6 10.4-78.7 35.4-91.2c4-2 13.4-2.9 17.3 1.3 11.3 12 21.7 78.2 20.7 79.3z" fill="#455a64"/><path d="m134.9 130.2-71.9 10.1c.3-2.1.8-4.7 1.3-7.6l69.5-9.8c.5 2.8.8 5.3 1.1 7.3z" fill="#37474f"/><path d="m133.1 119.1-68 9.6c.3-1.3.5-2.6.8-4l66.6-9.4c.2 1.3.4 2.6.6 3.8z" fill="#37474f"/><path d="m109.1 70.4c-4.1.2-9.8-7.2-11.5-12.6-.1-.4 1.1-3.8 2.3-8.1.8-2.6 1.5-5.5 2-8.2l16.2 7.4c-1.6 3.2-2.8 6.5-3.6 10-.1.4-.1.8-.1 1.1v.2c-.1 2.1-1.3 10-5.3 10.2z" fill="#eb9481"/><path d="m118.1 48.8c-1.6 3.2-2.8 6.5-3.6 10-.1.4-.1.8-.1 1.1v.2c-.6 0-1.2-.1-1.8-.2-9.8-2.1-10.2-14.8-10.2-18.3z" fill="#263238"/><path d="m97.1 24c-1.6 6.2 2.4 23.7 6.9 27.4 6.5 5.4 16.9 5.5 21.4-2.3 4.4-7.5-1.2-30.2-6.2-33.6-7.4-4.9-19.8-.7-22.1 8.5z" fill="#eb9481"/><g fill="#263238"><path d="m115.3 35.8c0-.1-.1.1-.1.1.2 1.2.3 2.6-.7 3.1v.1c1.3-.4 1.2-2.3.8-3.3z"/><path d="m114 34.7c-1.9.2-1.4 4 .3 3.9s1.4-4-.3-3.9z"/><path d="m121.9 34.7s.1 0 .1.1c.1 1.2.4 2.5 1.6 2.8m0 .1c-1.3 0-1.7-1.8-1.7-3z"/><path d="m122.8 33.3c1.9-.4 2.5 3.4.8 3.8s-2.3-3.4-.8-3.8z"/><path d="m112.3 34c.5-.2 1-.4 1.4-.7.5-.2 1-.5 1.3-1 .2-.4.1-.8-.3-1-.6-.4-1.4-.4-2.1 0-.7.3-1.2.8-1.6 1.5-.2.4-.1.9.3 1.2.5.1.8.1 1 0z"/><path d="m124.1 30.4c-.5 0-1.1-.1-1.6-.2-.6 0-1.1-.2-1.6-.5-.2-.3-.3-.7-.1-1 .5-.6 1.3-.8 2-.6.7.1 1.4.4 1.9.9.3.4.3.9-.1 1.2-.1.1-.3.2-.5.2z"/><path d="m115.1 46.2c.3.3.5.7 1 .8.4 0 .9-.1 1.3-.2m0 0c-.4.5-1 .7-1.6.5-.5-.2-.8-.6-.9-1.1 0-.1.1-.1.1 0z"/><path d="m116.2 42.6c.7.9 1.8 1.4 2.9 1.5.5 0 1 0 1.5-.1.2 0 .4-.1.5-.1s.2-.2.2-.3l-.4-2.5c.4.1 2.2.7 2.1.2-.6-4.1-1.7-8.2-3.1-12.1 0-.1-.1-.1-.2 0 0 0-.1.1-.1.1.6 3.8 1.8 7.5 2.4 11.3-.6-.2-1.3-.3-2-.4-.1 0 .6 3.1.6 3.1-1.5.3-3.1.1-4.4-.8 0-.1-.1 0 0 .1z"/><path d="m120.3 43.8c-.5.7-1.1 1.4-1.9 1.8-.4.2-.9.3-1.4.2-1-.2-1.1-1.1-1-1.9.1-.4.2-.8.3-1.2 1.3.7 2.6 1.1 4 1.1z"/></g><path d="m118.5 45.6c-.4.2-.9.3-1.4.2-1-.2-1.1-1.1-1-1.9 1.1-.1 2 .6 2.4 1.7z" fill="#ff9cbd"/><path d="m96.7 39.8c4.8.1 7-5.7 5.6-10.2 0 0 12.8 1 12.8-9.2 2.2 2.7 5.5 4.3 9.1 4.3l1 3.5c1.3-.4 2.5-4.2-.9-6.9 0 0-.5-5.1-4.4-7.9-2.2-1.7-5.1-1.9-7.5-.6-2.3-1.5-5.1-2-7.8-1.5-2.8.6-5.2 2.6-6.3 5.2 0 0-6.2 1.5-7 6-.5 2.6.1 5.3 1.6 7.4 0 0-1.5 1.8-.5 5.6.7 2.3 2.9 4.3 4.3 4.3z" fill="#263238"/><path d="m114.8 19.4c.1.8.2 1.7.2 2.5s-.1 1.6-.3 2.4c-.4 1.6-1.4 2.9-2.7 3.8-1.4.8-3 1.3-4.6 1.4-.8 0-1.6.1-2.5.1s-1.7-.1-2.5-.1c.8.1 1.6.3 2.5.4s1.7.1 2.5.1c1.7 0 3.4-.5 4.9-1.4 1.5-1 2.5-2.5 2.9-4.2.2-1.6.1-3.3-.4-5z" fill="#263238"/><path d="m121.6 25c-1.4-.4-2.8-1-4-1.9-.6-.4-1.1-.9-1.6-1.5s-.9-1.2-1.2-1.9c.1.8.4 1.5.8 2.1.4.7 1 1.2 1.6 1.7.6.4 1.3.8 2.1 1 .8.3 1.6.5 2.3.5z" fill="#263238"/><path d="m102.3 39.2s-4.4-5.4-6.8-3.9 1 9.6 4.1 10.6c1.6.6 3.4-.2 4-1.9v-.1z" fill="#eb9481"/><path d="m96.5 37.6s0 .1 0 0c2.2.8 3.4 2.7 4.4 4.7-.5-.8-1.6-1-2.4-.5-.1 0-.1.1-.2.2-.1 0 0 .1.1.1.8-.3 1.6-.1 2.1.5.4.5.8 1 1.1 1.6.1.2.4.1.4-.1v-.1c-.2-2.6-2.6-6.3-5.5-6.4z" fill="#263238"/><path d="m115 63.7c0 3.4-.2 11.2-5.5 10.4-2.1-.3-4-1.8-5.5-3.2-1.6-1.5-3-3.1-4.2-4.8-1.4-1.9-2.7-4-3.8-6.1 0-.1-.2 0-.1.1 1.1 2.1 2 4.4 3.4 6.4 1.3 2 2.8 3.8 4.5 5.4 1.6 1.5 3.6 2.9 5.9 3.1 2 .2 3.9-1 4.6-2.9.8-2.7 1.1-5.6.7-8.4z" fill="#263238"/><path d="m87.5 63.6c-18.7 18.9-36.8 49.1-34.9 64.9 1.8 15.6 10.3 12.8 11.7 12.2 14.9-7 27.7-52.6 32.2-71.1s-4.4-10.7-9-6z" fill="#455a64"/><path d="m74.5 129.9c8.3-16.6 14.4-34.1 19.8-51.9-3.4 18.3-9.7 36.3-19.8 51.9z" fill="#263238"/><path d="m94.7 81.2c0 2.1-1 4.1-2.7 5.4.5-1.9 1.4-3.8 2.7-5.4z" fill="#263238"/><path d="m151.3 135.7c-7.2-1.3-11-14.9-18.4-36.5-1.3-3.8 18-24.8 20.5-21.3 3.1 4.5 10.9 28.9 11.5 35.5 1.4 13-5.2 23.7-13.6 22.3z" fill="#eb9481"/><path d="m159.3 92.4-23.5 19.4s7.6 25.2 17.5 24.1 13-11.5 11.7-22.6c-1.1-7.1-3-14.2-5.7-20.9z" fill="#455a64"/><path d="m142.7 127.7c-3-5-5.9-10.2-7.1-15.9v-.1c.5-.3.9-.7 1.4-1-.4.4-.8.8-1.2 1.1v-.1c.4 1.4 1 2.7 1.6 4 1.7 3.9 3.7 8.1 5.3 12z" fill="#263238"/><path d="m140.4 116.7c3.4-3.2 12.7-11.8 19.5-16.5 0 0 .2.1.1.1-5.1 4.8-15.8 13.6-19.4 16.6-.1.1-.3-.1-.2-.2z" fill="#263238"/><path d="m158.7 90.9c-1.1-7.4-2.7-15.9-5.3-18s-13-9.6-15.9-10.5-15.9-5.6-18.3-4.2c-1.9 1.1.5 6.1 6.6 8.4 3.4 1.3 6.6 2.9 9.8 4.6 1.6.7 5.5 5.7 4.5 8-.6 1.3-4.4 3-6.9 1.9s-3.1-5.8-5.9-8-7.6-1.9-7.9-.5 1.4 1.9 3.9 6.3c1.6 2.8 1.9 9.7 5.6 14.6 1.9 2.9 3.6 5.9 5.1 9z" fill="#eb9481"/><path d="m124.8 71c-.9-.1-1.7-.4-2.4-1-.3-.3-.5-.6-.6-1 0-.2 0-.4 0-.6s.1-.4.2-.6c0 0 0-.1-.1 0s-.1.2-.2.3-.1.2-.1.3c-.1.2-.1.4-.1.6 0 .5.2.9.5 1.2.7.8 1.7 1.1 2.8 1 .1 0 .1-.2 0-.2z" fill="#263238"/><path d="m153.4 72.9c-2.4-3.6-8.5-10.2-14.5-12.4-4-1.5-17.7 5.5-17.3 8.1s2.8 2.6 6.3 2.1c1.3-.2 8-2.7 9.1-1.3 1.7 2 3.9 8.9 3.9 8.9z" fill="#eb9481"/><path d="m122 67.7c1.7-2.9 5.4-4.4 9.1-5.7m0 .1c-.9.3-7 3.2-9.1 5.6z" fill="#263238"/><path d="m153.4 72.9c-2.4-3.6-8.5-10.2-14.5-12.4-4-1.5-14.8 7.3-14.4 9.9s3.8 2.8 7.6 1.4c1.2-.5 5.2-3.4 6.4-2 1.7 2 5.8 7 5.8 7z" fill="#eb9481"/><path d="m141.9 73.8c-.4-.6-.5-.8-.9-1.3s-.8-1.1-1.2-1.7c-.3-.5-.8-.9-1.3-1.3-.5-.3-1.1-.4-1.7-.3-1.3.3-2.5.8-3.6 1.6-1.2.7-3.8 1.9-5.7 1.7-.5 0-1.1-.2-1.6-.4-.4-.2-.7-.4-.9-.7-.9-1.4.2-3.1 1.2-4.3 2.1-2.1 4.6-3.9 7.3-5.1.6-.3 1.3-.6 1.9-1 .7-.4 1.5-.6 2.4-.7 1.4 0 3.6 1.3 4.3 1.7.1 0 .1 0 0-.1-.9-.5-2.9-2.2-5.1-2-.8.1-1.6.4-2.3.8-.8.3-1.5.7-2.2 1.1-1.4.7-2.8 1.6-4.1 2.5s-2.4 2-3.4 3.3c-.8 1.2-.8 2.7-.2 3.9.6.8 1.5 1.2 2.5 1.3.6.1 1.2 0 1.7 0 1.3-.3 2.5-.7 3.7-1.2s2.2-1.3 3.4-1.7c.6-.2 1.2-.2 1.8.1.5.3 1 .7 1.3 1.2.8.8 1.6 1.7 2.2 2.6.5.4.7.3.5 0z" fill="#263238"/><path d="m155.2 76.1c-.9-1.7-2.5-8.9-3.9-11.1s-7.9-9.7-10.9-9.4c-3.7.5.3 7.1 2.3 9.9 2 2.7 1.8 7.4 1.8 7.4z" fill="#eb9481"/><path d="m139.9 61c.7.9 1.3 1.8 2 2.8.6.9 1.2 1.8 1.7 2.7.4 1 .7 2 .8 3.1.1.5.1 1 .1 1.5s0 1.1 0 1.7c0 0 0 0-.1 0s-.1 0-.1 0c-.1-1-.2-2.1-.4-3.1-.2-1.1-.5-2.1-1-3.1-.9-1.9-2.2-3.6-3-5.6-.1 0 0-.1 0 0z" fill="#263238"/><path d="m144.4 73.8c.3 2.7-.8 5.3-2.1 7.7s-3.2 4.2-4.1 6.6c-.6 1.6-1.1 3.3-1.3 5-.2-3.6.9-7.2 3.2-10 2-2.8 3.8-5.9 4.3-9.3z" fill="#263238"/><path d="m119.1 71-9.3 30.8c-.4.9.1 1.7 1 1.7l16.1.8c1 0 1.9-.6 2.3-1.5l9.2-30.8c.4-.9 0-1.7-.9-1.7l-16.1-.8c-1-.1-1.9.5-2.3 1.5z" fill="#c7c7c7"/><path d="m121 71-9.3 30.8c-.3.5-.2 1.2.4 1.5.2.1.4.2.6.2l16.1.7c1 0 1.9-.6 2.3-1.5l9.3-30.8c.4-.9 0-1.7-.9-1.7l-16.1-.7c-1.1 0-2 .6-2.4 1.5z" fill="#dbdbdb"/><path d="m125.3 72.7c0 .8-.7 1.3-1.5 1.3s-1.3-.7-1.3-1.5.7-1.3 1.5-1.3c.7.1 1.3.7 1.3 1.5z" fill="#263238"/><path d="m59.5 140.2c7 .8 15.6-4.8 38-21.7 3.1-2.4-7.6-28.6-11-26.3-4.3 3-20.4 15.3-21.5 16.4-9 8.9-10.3 31.1-5.5 31.6z" fill="#eb9481"/><path d="m78.5 100.4s6.3-9.2 11.1-13c5.1-3.8 11-6.3 17.3-7.4 6.8-1.1 23.9.8 24.2 5.9.3 4.6-17.1 1.7-17.1 1.7s18.2 0 17.6 5.5-20.7 1.1-20.7 1.1 18.7.4 17.1 6c-1.2 4.2-19.6 1.2-19.6 1.2s16.1.5 15 4.9c-1.2 4.9-18.3 3.1-18.3 3.1-4.6 10.8-11.2 14-16.1 15.8-1.3.4-10.5-24.8-10.5-24.8z" fill="#eb9481"/><path d="m107.6 87.2c2.1-.1 4.3-.2 6.4 0s4.3.3 6.4.6c2.8.4 5.5 1 8.1 2-4.8-1.4-12.5-1.9-14.6-2s-4.3-.3-6.4-.4c0-.1.1-.2.1-.2z" fill="#263238"/><path d="m107.1 94.9c2.7 0 5.5-.1 8.2.1s5.3.5 8 .8c.2 0 .1.1-.1.1-2.7-.2-5.3-.2-8-.4s-5.5-.4-8.1-.6c-.1.1-.1 0 0 0z" fill="#263238"/><path d="m105.4 101.5c4.2-.1 8.4.3 12.5 1.1.2 0 .1.2-.1.1-4.2-.4-7.4-.8-12.4-1.1-.1 0-.1-.1 0-.1z" fill="#263238"/><path d="m116.3 80c-3.1-.5-6.3-.5-9.4 0" fill="#263238"/><path d="m78.4 98-1.2 40.8s-15.3 3.2-18.5 1.1-3.5-21.2 5-30.4c4.4-4.5 9.3-8.3 14.7-11.5z" fill="#455a64"/><path d="m70.7 136c0-5.6.2-20.9 1.5-30.8 0-.1.2-.1.2 0 0 8.4-1.1 25.2-1.4 30.8 0 .1-.3.1-.3 0z" fill="#263238"/><path d="m78.4 98c-5.5 3.7-10.9 7.9-15.2 12.9s-5.7 11.9-6.6 18.4c.2-6.6 1.5-13.8 6-18.9 4.7-5 10-9.1 15.8-12.4z" fill="#263238"/><path d="m77.4 133.1c.2 2 .2 4 .2 6-2.7.7-5.4 1.2-8.2 1.6-2.7.4-5.4.4-8-.1 1.3.1 2.7.1 4 0 4-.4 7.9-1.1 11.8-2.1l-.3.3c.1-1.8.3-3.7.5-5.7z" fill="#263238"/><path d="m58.1 120.4c-.8 1.8-1.5 3.6-2.1 5.4-.1-2 .7-3.9 2.1-5.4z" fill="#263238"/><path d="m332.7 225.2c-1 2.4-48.1 56.1-51.2 57-1.2.4-9.4-6-19.1-14.1-2.1-1.7-4.2-3.5-6.4-5.4-14.2-11.9-28.9-24.9-28.9-24.9l31.4-36 28 25.9 6.2 5.7s27.2-12.5 30.7-13.1 10.3 2.5 9.3 4.9z" fill="#eb9481"/><path d="m332.7 225.2c-1 2.4-48.1 56.1-51.2 57-1.4.4-13.3-9.1-25.5-19.4l30.5-35 6.2 5.7s27.2-12.5 30.7-13.1 10.3 2.4 9.3 4.8z" fill="#fff"/><path d="m332.7 225.2c-1 2.4-48.1 56.1-51.2 57-1.2.4-9.4-6-19.1-14.1l30.2-34.7s27.2-12.5 30.7-13.1 10.4 2.5 9.4 4.9z" fill="#455a64"/><path d="m329.8 224.1c-8.1 8.8-40 45.1-47.3 54.4-.1.1 0 .1 0 0 8.2-8.5 39.8-45.1 47.4-54.3.3-.2.1-.3-.1-.1z" fill="#263238"/><path d="m318.4 222.1c-1.8 2-2.7 4.6-2.5 7.3.2 2.4 1.2 4.6 3 6.2.1 0 .1-.1.1-.1-3.1-3.8-3.4-9.3-.6-13.4.2 0 .1-.1 0 0z" fill="#263238"/><path d="m296.6 230.7c-3.2 3.5-5.6 8.8-4.6 13.7 0 .2.3.1.3 0 1.1-4.6 2.7-9.1 4.8-13.3.1-.1.1-.3-.1-.4-.1-.1-.3-.1-.4 0z" fill="#263238"/><path d="m300.1 228.9c-3.2 3.5-5.6 8.8-4.6 13.7 0 .2.3.1.3 0 1.1-4.6 2.7-9.1 4.8-13.3.1-.1 0-.3-.1-.4s-.3-.1-.4 0z" fill="#263238"/><path d="m303.6 227.1c-3.2 3.6-5.6 8.8-4.6 13.7 0 .2.3.1.3 0 1.1-4.6 2.7-9.1 4.8-13.3.1-.1 0-.3-.1-.4s-.3-.1-.4 0z" fill="#263238"/><path d="m307.2 225.3c-3.2 3.6-5.6 8.9-4.6 13.7 0 .2.3.1.3 0 1.1-4.6 2.7-9.1 4.8-13.3.1-.1.1-.3-.1-.4-.1-.2-.3-.2-.4 0z" fill="#263238"/><path d="m276 268.7c-3.5 4 2.8 9.5 6.3 5.5s-2.8-9.6-6.3-5.5z" fill="#fff"/><path d="m290.4 218.4c-3.1.5-3.6 4.1-3.1 6.6 1.1 4.3 3.3 8.2 6.3 11.4 0 .1.1.1.2 0 .3.2.6.1.8-.2 0-.1 0-.1.1-.2.5-4.1 1.5-8.5.7-12.6-.4-2.5-2.1-5.4-5-5zm3.8 11.2c-.2 2-.5 4-.6 6.1-1.2-2.2-2.5-4.4-3.6-6.7-.5-1.1-.9-2.3-1.3-3.5-.5-1.8-.4-8 3.8-4.9 2.4 1.7 1.9 6.5 1.7 9z" fill="#263238"/><path d="m287.2 246.5c3.2-2.7 5.2-6.7 7.4-10.2.1-.3 0-.6-.2-.8-.1 0-.1 0-.2-.1 0-.1 0-.2-.1-.1-4.4.5-8.5 2.2-12.1 4.8-2 1.6-3.9 4.7-1.8 7s5.1 1 7-.6zm-3.9.3c-5.2-.3-1.4-5.1.1-6.2 1-.7 2.1-1.3 3.2-1.9 2.3-1.1 4.6-2.1 7-3-1.2 1.6-2.2 3.4-3.4 5.1-1.4 2-4.1 6.2-6.9 6z" fill="#263238"/><path d="m285.2 222.1-32.8 40.5-101.5-77-9.8-7.4s-2.9 1.8-7.3 4c-6.1 3-15.1 6.9-22.8 7.7-13.1 1.4-32.7.3-43-14.8-8.7-12.7-5.1-28.7-5.1-28.7l14.5-5.5s35-26.7 56.9-26.6c9.3 0 22.5 7.6 34.7 15.5s116.2 92.3 116.2 92.3z" fill="#263238"/><path d="m141 178.1s-2.9 1.8-7.3 4c-7.2-9.4-22.6-26.6-23.1-27.2z" fill="#37474f"/><path d="m90.1 131.9c-2.1 1.3-4.1 2.7-6.2 4.1s-4.1 2.6-6 4-3.8 3.1-5.7 4.7c-.9.8-1.8 1.6-2.7 2.4s-1.8 1.6-2.5 2.5c-.1.1 0 .2.1.1 1-.6 1.9-1.3 2.8-2.1l2.9-2.3c1.9-1.5 3.8-2.9 5.7-4.4s3.6-3.1 5.4-4.5 4.2-3 6.2-4.5z" fill="#37474f"/><path d="m278 220.3c-2.1 2.1-4.1 4.4-6 6.6s-4 4.5-5.9 6.7c-3.9 4.5-7.9 9-11.7 13.5-2.1 2.5-4.2 5-6.2 7.6-.1.1.1.3.2.2 4.2-4.2 8-8.8 12-13.2s7.8-9 11.7-13.5c2.1-2.5 4.3-5 6.2-7.6-.1-.3-.3-.4-.3-.3z" fill="#37474f"/><path d="m198.3 221.5c-5-4.3-16.5-12.8-21.8-16.9s-10.4-8.1-15.7-12.1c-1.5-1.1-3.1-2.2-4.6-3.4s-3.1-2.1-4.6-3.3c-.1-.1-.2.1-.1.1 1.4 1.1 2.7 2.3 4 3.4s2.6 2.1 3.9 3.2c2.5 2 5.1 4.1 7.6 6.1 5.2 4.1 10.4 8.1 15.7 12.1 3 2.2 12.2 8.9 15.3 11.1.3.1.5-.2.3-.3z" fill="#37474f"/><path d="m233 179.6c-4.6-4.2-15.3-12.3-20.2-16.2s-9.9-7.9-14.8-11.9l-14.7-11.7c-4.8-3.8-9.5-7.6-14.6-11-2.8-1.8-5.6-3.6-8.6-5.1-2.8-1.6-5.8-3-8.9-4.1-.1 0-.1.1-.1.2 2.5 1.5 5.1 2.9 7.7 4.4s5 3 7.4 4.6c5 3.4 9.8 7.1 14.5 10.8 9.9 7.8 19.7 15.5 29.6 23.2 5.6 4.3 16.6 13.1 22.4 17.1.2.2.5-.1.3-.3z" fill="#37474f"/></svg>