<svg viewBox="0 0 500 500" xmlns="http://www.w3.org/2000/svg"><ellipse cx="247.61" cy="389.63" fill="#ebebeb" rx="183.09" ry="21.13"/><path d="m89.6 220.42h1v18.49h-1z" fill="#7bb743" transform="matrix(.99741576 -.07184561 .07184561 .99741576 -16.27 7.07)"/><path d="m91.2 248.4h1v6.96h-1z" fill="#7bb743" transform="matrix(.99741576 -.07184561 .07184561 .99741576 -17.86 7.24)"/><path d="m323.53 333.21h-214.16c-4.84 0-9.09-3.96-9.44-8.81l-10.52-146.13c-.35-4.84 3.33-8.81 8.17-8.81h214.16c4.84 0 9.09 3.96 9.44 8.81l10.52 146.13c.35 4.84-3.33 8.81-8.17 8.81z" fill="#7bb743"/><path d="m324.35 333.21h-214.16c-4.84 0-9.09-3.96-9.44-8.81l-10.52-146.13c-.35-4.84 3.33-8.81 8.17-8.81h214.16c4.84 0 9.09 3.96 9.44 8.81l10.52 146.13c.35 4.84-3.33 8.81-8.17 8.81z" fill="#7bb743"/><path d="m324.35 333.21h-214.16c-4.84 0-9.09-3.96-9.44-8.81l-10.52-146.13c-.35-4.84 3.33-8.81 8.17-8.81h214.16c4.84 0 9.09 3.96 9.44 8.81l10.52 146.13c.35 4.84-3.33 8.81-8.17 8.81z" fill="#fff" opacity=".5"/><path d="m312.88 173.87h-214.16c-.24 0-.48 0-.72.03-5.47.45-4.36 8.78 1.17 8.78h214.52c5.53 0 5.44-8.33-.1-8.78-.24-.02-.48-.03-.72-.03z" fill="#7bb743"/><path d="m104.3 178.27c.08 1.12-.76 2.02-1.87 2.02s-2.08-.9-2.16-2.02c-.08-1.11.76-2.02 1.87-2.02s2.08.9 2.16 2.02z" fill="#fafafa"/><path d="m111.17 178.27c.08 1.12-.76 2.02-1.87 2.02s-2.08-.9-2.16-2.02c-.08-1.11.76-2.02 1.87-2.02s2.08.9 2.16 2.02z" fill="#fafafa"/><path d="m118.03 178.27c.08 1.12-.76 2.02-1.87 2.02s-2.08-.9-2.16-2.02c-.08-1.11.76-2.02 1.87-2.02s2.08.9 2.16 2.02z" fill="#fafafa"/><path d="m318.67 318.63h-204.9c-1.76 0-3.3-1.43-3.42-3.19l-8.65-120.17c-.13-1.76 1.2-3.19 2.96-3.19h204.9c1.76 0 3.3 1.43 3.42 3.19l8.65 120.17c.13 1.76-1.2 3.19-2.96 3.19z" fill="#fff"/><path d="m232.35 272.85-3.34-46.32-10.1-6.09h-27.81l3.78 52.41z" fill="#fff"/><path d="m232.35 273.33h-37.47c-.25 0-.47-.2-.48-.45l-3.77-52.4c0-.13.04-.27.13-.37s.22-.15.35-.15h27.8c.09 0 .17.02.25.07l10.11 6.08c.13.08.22.22.23.38l3.34 46.32c0 .13-.04.27-.13.36-.09.1-.22.15-.35.15zm-37.02-.97h36.5l-3.28-45.55-9.78-5.88h-27.15l3.7 51.43z" fill="#7bb743"/><path d="m229.01 226.53-10.1-6.09 3.71 8.06z" fill="#ececec"/><g fill="#7bb743"><path d="m222.62 228.99c-.18 0-.36-.11-.44-.28l-3.71-8.06c-.09-.19-.04-.42.12-.56s.39-.16.57-.05l10.11 6.08c.16.1.25.28.23.47s-.16.35-.34.4l-6.4 1.98s-.1.02-.14.02zm-2.61-7.32 2.88 6.24 4.96-1.53-7.83-4.71z"/><path d="m206.79 244.05c.08 1.17-.8 2.12-1.96 2.12s-2.19-.95-2.27-2.12.8-2.12 1.96-2.12 2.19.95 2.27 2.12z"/><path d="m220.53 244.05c.08 1.17-.8 2.12-1.96 2.12s-2.19-.95-2.27-2.12.8-2.12 1.96-2.12 2.19.95 2.27 2.12z"/><path d="m224.4 257.78c-.25 0-.46-.19-.48-.45-.25-3.4-5.58-6.17-11.9-6.17-4.18 0-7.94 1.24-9.81 3.25-.83.89-1.21 1.85-1.14 2.86.02.27-.18.5-.45.52s-.5-.18-.52-.45c-.09-1.27.39-2.51 1.4-3.59 2.04-2.19 6.07-3.56 10.52-3.56 6.93 0 12.58 3.11 12.87 7.07.02.27-.18.5-.45.52-.01 0-.02 0-.04 0z"/><path d="m198.99 239.77c-.12 0-.24-.04-.33-.13-.2-.18-.21-.49-.03-.68l2.12-2.29c.18-.2.49-.21.68-.03.2.18.21.49.03.68l-2.12 2.29c-.1.1-.23.16-.36.16z"/><path d="m223.4 239.77c-.12 0-.24-.04-.33-.13l-2.45-2.29c-.2-.18-.21-.49-.02-.68.18-.2.49-.21.68-.02l2.45 2.29c.2.18.21.49.02.68-.1.1-.22.15-.35.15z"/><path d="m188.08 283.2h2.26l3.26 4.33-.31-4.33h2.28l.56 7.83h-2.28l-3.24-4.3.31 4.3h-2.28z"/><path d="m197.15 287.12c-.09-1.28.19-2.27.85-2.99s1.63-1.07 2.9-1.07 2.33.35 3.09 1.05 1.18 1.68 1.27 2.94c.07.92-.03 1.67-.3 2.25-.27.59-.68 1.04-1.24 1.37s-1.27.49-2.14.49-1.62-.14-2.22-.42-1.1-.73-1.5-1.34-.64-1.37-.7-2.29zm2.42.01c.06.79.24 1.36.56 1.7.32.35.73.52 1.24.52s.91-.17 1.17-.51.36-.95.3-1.82c-.05-.74-.24-1.28-.56-1.62s-.74-.51-1.25-.51-.87.17-1.14.52-.38.92-.32 1.72z"/><path d="m209.97 283.2h3.6c.71 0 1.29.1 1.74.29s.83.47 1.14.83.55.78.71 1.26.26.98.3 1.52c.06.84.01 1.49-.15 1.95s-.39.85-.71 1.16-.66.52-1.05.62c-.52.14-1 .21-1.43.21h-3.6l-.56-7.83zm2.55 1.77.31 4.28h.59c.51 0 .86-.06 1.07-.17s.36-.31.46-.59.13-.73.08-1.36c-.06-.83-.24-1.4-.53-1.7-.29-.31-.75-.46-1.38-.46z"/><path d="m223.27 289.74h-2.75l-.29 1.29h-2.47l2.38-7.83h2.64l3.51 7.83h-2.53zm-.62-1.69-1.07-2.82-.65 2.82z"/><path d="m225.19 283.2h7.36l.14 1.93h-2.47l.42 5.9h-2.42l-.42-5.9h-2.47z"/><path d="m238.19 289.74h-2.75l-.29 1.29h-2.47l2.38-7.83h2.64l3.51 7.83h-2.53l-.48-1.29zm-.62-1.69-1.07-2.82-.65 2.82z"/></g><path d="m253.92 395.14c1.94.64 57.75.28 59.87-1.08.8-.51 1.16-8.64 1.46-18.48 0-2.12 5.99-36.1 5.99-36.1l-37.34.14-4.66 36.1s-21.3 9.69-23.47 11.44-3.81 7.35-1.85 7.99z" fill="#eb9481"/><path d="m253.92 395.14c1.94.64 57.75.28 59.87-1.08.83-.52 1.06-8.37 1.46-18.48.08-1.92.9-5.64.93-6.51l-36.1.15-.84 6.5s-21.3 9.69-23.47 11.44-3.81 7.35-1.85 7.99z" fill="#fff"/><path d="m253.92 395.14c1.94.64 57.75.28 59.87-1.08.8-.51 1.16-8.64 1.46-18.48l-35.98.14s-21.3 9.69-23.47 11.44-3.84 7.35-1.89 7.99z" fill="#ffc727"/><path d="m254.7 392.9c9.32-.29 47.11-.58 56.38-.16.07 0 .07.06 0 .06-9.32.5-47.03.48-56.38.26-.2 0-.2-.14 0-.15z" fill="#263238"/><path d="m259.38 385.11c2.1-.07 4.14.75 5.61 2.25 1.32 1.33 2.08 3.11 2.12 4.98 0 .06-.1.06-.12 0-.68-3.8-3.78-6.7-7.62-7.12-.08 0-.08-.1 0-.12z" fill="#263238"/><path d="m275.65 376.67c3.74-.08 8.15 1.16 10.48 4.26.09.12-.08.24-.19.19-3.29-1.7-6.75-3.03-10.32-3.99-.12-.03-.2-.16-.16-.29.02-.09.1-.15.19-.17z" fill="#263238"/><path d="m272.76 377.81c3.75-.08 8.09 1.16 10.48 4.26.08.12-.08.24-.2.19-3.28-1.7-6.74-3.03-10.31-3.98-.13 0-.23-.12-.22-.24 0-.13.12-.23.24-.22z" fill="#263238"/><path d="m269.89 378.95c3.74-.07 8.09 1.22 10.48 4.26.09.12-.08.24-.19.2-3.29-1.7-6.75-3.03-10.32-3.99-.13-.05-.19-.19-.14-.31.03-.07.09-.13.17-.15z" fill="#263238"/><path d="m267.02 380.1c3.75-.08 8.15 1.16 10.48 4.26.08.12-.08.24-.2.19-3.28-1.7-6.74-3.04-10.31-3.99-.12-.03-.2-.16-.16-.29.02-.09.1-.15.19-.17z" fill="#263238"/><path d="m308.63 383.88c4.2 0 4.23 6.51 0 6.52s-4.2-6.51 0-6.52z" fill="#263238"/><path d="m271.87 372.18c2.04 2.6 5.14 4.22 7.81 6.04.27.19.58 0 .66-.31.05.01.1-.02.11-.07 0-.01 0-.03 0-.04-.31-3.43-1.51-6.73-3.49-9.55-1.16-1.63-3.59-3.14-5.46-1.56s-.83 3.97.36 5.49zm-.19-3.1c.34-4.08 4.04-.98 4.86.26.52.8.99 1.64 1.39 2.52.81 1.81 1.53 3.65 2.14 5.53-1.26-.98-2.59-1.84-3.88-2.76-1.55-1.12-4.71-3.3-4.51-5.54z" fill="#263238"/><path d="m293.74 375.34c-.3-2.45-3.1-2.96-5.07-2.56-3.37.73-6.48 2.34-9.03 4.66-.06 0 0 .12 0 .16-.13.21-.06.49.15.62.04.02.08.04.13.05 3.21.48 6.58 1.39 9.84.86 1.91-.3 4.27-1.49 3.97-3.8zm-8.78 2.67c-1.58-.2-3.16-.47-4.74-.61 1.73-.96 3.51-1.83 5.33-2.61.89-.37 1.8-.67 2.73-.91 1.43-.35 6.25-.13 3.75 3.11-1.39 1.78-5.21 1.25-7.07 1.01z" fill="#263238"/><path d="m322.09 362.98h-42.02s2.57-58.05 5.88-78.49c3.44-21.16 17.68-84.62 17.68-84.62h42.46s-18.63 65.22-21.39 87c-2.49 19.85-2.61 76.11-2.61 76.11z" fill="#263238"/><path d="m281.88 355.6c6.13-.37 12.29-.45 18.44-.44 3.05 0 6.1 0 9.15.07s6.18.24 9.32.37c.12 0 .12.19 0 .19-3.1.15-6.18.36-9.32.41s-6.1.08-9.14.09c-6.15 0-12.32 0-18.45-.38-.08 0-.15-.07-.15-.15s.07-.15.15-.15z" fill="#37474f"/><path d="m316.39 291.87c1-9.61 3.44-18.94 5.76-28.3 2.33-9.36 4.74-18.98 7.12-28.46s4.83-18.96 7.26-28.44l.91-3.55c0-.17.31-.09.28.09-4.57 19.03-9.19 38.05-13.86 57.07-2.33 9.32-4.96 18.63-6.18 28.2-1.03 9.58-1.48 19.21-1.35 28.85-.08 10.97-.15 21.95-.5 32.94 0 .12-.19.1-.19 0-.22-9.82-.23-19.64-.22-29.44-.17-9.66.16-19.32.98-28.94z" fill="#37474f"/><path d="m308.86 395.73c1.96.63 57.77-.12 59.87-1.49.8-.51 1.16-8.64 1.33-18.48 0-2.13 0-4.32.07-6.56.09-14.46-.14-29.81-.14-29.81l-37.34.38 1.16 29.81.26 6.55s-21.24 9.84-23.39 11.59-3.79 7.38-1.83 8.01z" fill="#eb9481"/><path d="m308.86 395.73c1.96.63 57.77-.12 59.87-1.49.98-.63 1.32-12.51 1.4-25.04l-36.3.38.26 6.55s-21.24 9.84-23.39 11.59-3.8 7.38-1.84 8.01z" fill="#fff"/><path d="m308.86 395.73c1.96.63 57.77-.12 59.87-1.49.8-.51 1.16-8.64 1.33-18.48l-35.98.37s-21.24 9.84-23.39 11.59-3.8 7.38-1.84 8.01z" fill="#ffc727"/><path d="m309.62 393.5c9.32-.36 47.1-.91 56.37-.55.08 0 .08.06 0 .06-9.32.56-47.02.79-56.38.64-.19-.02-.19-.15.01-.15z" fill="#263238"/><path d="m314.25 385.67c2.11-.08 4.15.72 5.64 2.21 1.33 1.32 2.1 3.09 2.15 4.96 0 .06-.1.06-.12 0-.7-3.79-3.83-6.67-7.66-7.06-.08 0-.08-.12-.01-.12z" fill="#263238"/><path d="m330.46 377.11c3.75-.1 8.15 1.16 10.48 4.19.09.12-.07.24-.19.19-3.29-1.68-6.76-2.99-10.34-3.91-.13-.01-.22-.13-.21-.26s.13-.22.26-.21z" fill="#263238"/><path d="m327.58 378.28c3.74-.1 8.09 1.16 10.48 4.19.09.12-.07.24-.19.19-3.29-1.67-6.76-2.99-10.33-3.91-.13 0-.23-.12-.22-.25 0-.13.12-.23.25-.22z" fill="#263238"/><path d="m324.72 379.44c3.74-.1 8.09 1.16 10.48 4.19.08.12-.08.24-.2.19-3.29-1.67-6.76-2.99-10.33-3.91-.13-.01-.22-.13-.21-.26s.13-.22.26-.21z" fill="#263238"/><path d="m321.84 380.6c3.74-.1 8.09 1.16 10.48 4.19.09.12-.08.24-.19.19-3.3-1.67-6.76-2.98-10.34-3.91-.13-.01-.22-.13-.21-.26s.13-.22.26-.21z" fill="#263238"/><path d="m363.5 384.1c4.19 0 4.27 6.49.07 6.53-4.2.05-4.29-6.49-.07-6.53z" fill="#263238"/><path d="m326.66 372.66c2.05 2.57 5.15 4.17 7.84 5.99.23.12.51.04.63-.19.02-.04.04-.08.04-.12.06 0 .11-.03.12-.09 0 0 0 0 0-.01-.32-3.43-1.52-6.72-3.49-9.54-1.16-1.61-3.6-3.11-5.47-1.51s-.86 3.97.34 5.49zm-.22-3.11c.31-4.08 4.04-.99 4.87.23.52.8.99 1.64 1.4 2.5.89 1.79 1.49 3.67 2.19 5.52-1.27-.97-2.61-1.82-3.91-2.74-1.55-1.11-4.72-3.27-4.57-5.52h.02z" fill="#263238"/><path d="m348.55 375.65c-.33-2.43-3.12-2.92-5.08-2.52-3.36.74-6.46 2.34-9 4.66-.06.06 0 .12 0 .16-.12.23-.04.51.18.63.03.02.07.03.11.04 3.21.45 6.59 1.34 9.84.79 1.91-.26 4.26-1.46 3.95-3.77zm-8.77 2.74c-1.58-.19-3.14-.45-4.74-.57 1.72-.97 3.5-1.85 5.31-2.64.89-.37 1.8-.68 2.73-.93 1.43-.36 6.25-.16 3.77 3.09-1.37 1.78-5.18 1.28-7.07 1.06z" fill="#263238"/><path d="m372.18 362.98h-42.86s-2.18-45.71-3.74-61.91c-1.65-17.23-4.3-71.04-4.3-71.04l-4.81-1.54c-6.03-3.81-12.15-23.29-12.81-28.62h56.04s8.15 23.29 3.8 37.76c0 0 2.69 50.72 3.61 59.82 1.69 17.1 5.07 65.53 5.07 65.53z" fill="#263238"/><path d="m315.16 227.73c4.46 1.23 8.83 2.78 13.06 4.66.16.07 0 .26-.12.2-4.4-1.46-8.89-2.84-13.17-4.48-.34-.1-.15-.47.23-.37z" fill="#37474f"/><path d="m313.76 204.5c0-.12.28-.15.28 0 0 3.79.25 7.57.73 11.32.21 1.74 2.03 11.38 5.96 10.68.65-.12.99-.62 1.09-1.39-.02-1.01-.2-2.01-.52-2.96-.44-2.01-.78-4.04-1.01-6.08-.46-3.79-.4-7.63.16-11.4 0-.12.26-.12.26 0-.13 5.27.26 10.55 1.16 15.75.49 2.5 2.13 6.28-1.27 6.66s-5.71-5.93-6.14-7.65c-1.07-4.9-1.31-9.95-.71-14.93z" fill="#37474f"/><path d="m320.59 226.73c.35.64.64 1.3.87 1.99.26.51.38 1.07.37 1.64 0 .12-.2.12-.27 0-.4-.47-.71-1.01-.92-1.6-.29-.62-.62-1.23-.89-1.85-.15-.37.64-.58.83-.19z" fill="#37474f"/><path d="m331.43 356.17c6.13-.37 12.3-.45 18.44-.44 3.05 0 6.1 0 9.15.07s6.2.24 9.32.37c.05 0 .09.04.09.09s-.04.09-.09.09c-3.1.14-6.18.35-9.32.41-3.13.06-6.09.07-9.14.09-6.15 0-12.31 0-18.45-.38-.09 0-.17-.06-.17-.15s.08-.17.17-.17z" fill="#37474f"/><path d="m321.35 230.96c1.16 14.65 2.07 29.31 2.8 44 .21 4.13.21 8.29.37 12.43 0 .13-.17.12-.17 0-.27-3.67-.66-7.34-.96-11.01s-.51-7.34-.72-10.99c-.42-7.34-.92-14.66-1.16-22-.14-4.15-.33-8.29-.47-12.44 0-.2.3-.19.31.01z" fill="#37474f"/><path d="m337.95 203c.38 2.3.91 4.58 1.56 6.82.56 1.99 1.16 4.01 3 5.18 3.75 2.23 8.07 3.31 12.43 3.12.08 0 .1.14 0 .15-2.28.38-4.6.38-6.88 0-2.29-.31-4.48-1.1-6.44-2.33-1.65-1.34-2.74-3.25-3.03-5.36-.57-2.5-.85-5.05-.85-7.62.01-.07.2-.09.21.02z" fill="#37474f"/><path d="m354.83 203.79c-.03-.1.04-.21.14-.23.1-.03.21.04.23.14 2.33 9.01 4.6 18.33 3.49 27.71-.27 2.33-.85 4.52-1.3 6.78-.42 2.42-.49 4.89-.21 7.34.41 4.9.86 9.78 1.29 14.67 1.71 19.5 3.49 38.99 5.09 58.49.91 10.97 1.88 21.93 2.6 32.91 0 .16-.23.15-.24 0-2.12-19.46-3.72-38.98-5.4-58.49-.85-9.71-1.69-19.41-2.53-29.12-.43-4.9-.86-9.8-1.27-14.7-.21-2.41-.51-4.83-.5-7.26.09-2.23.44-4.45 1.02-6.6 2.45-10.53-.05-21.35-2.41-31.64z" fill="#37474f"/><path d="m316.86 151.73c-8.91 4.79-39.87 18.46-48.81 13.79-5.82-3.06-26.05-29.52-27.72-34.94-.98-3.18 19.19-16.1 21.38-13.29s16.04 24.33 18.49 25.4 31.52-3.63 40.59-3.25c15.64.69.86 9.71-3.94 12.29z" fill="#eb9481"/><path d="m291.11 140.34.69 3.27 4.25 20.36c8.74-3.57 17.24-7.71 25.45-12.37 8.42-5.01 11.01-9.98 6.17-12.03-1.88-.8-4.88-1.16-9.12-.9z" fill="#37474f"/><path d="m299.63 161.08c-.59-3.42-3.49-17.33-4.38-20.29-.06-.21-.21-.22-.17 0 1.1 6.84 2.57 13.62 4.41 20.3.03.08.14.07.14-.01z" fill="#263238"/><path d="m242.38 134.56c-1.71-2.33-9.74-14.38-10.92-18.04s-3.87-14.39-1.16-15.59 3.74 1.89 3.74 1.89-.52-5.16 2.42-5.67c2.33-.42 4.03 3.84 4.03 3.84s-.28-5.68 2.71-5.82c2.71-.13 3.37 4.94 3.37 4.94s.26-4.79 2.9-4.4c3.18.45 2.75 8.73 4.37 12.66.36.9 8.73 17.56 8.73 17.56l-20.18 8.64z" fill="#eb9481"/><path d="m246.76 99.94c.31 6.23.62 8.79 3.56 13.98.06.09-.08.21-.15.1-3.35-4.86-3.94-7.87-3.7-14.16.01-.26.28-.21.29.08z" fill="#263238"/><path d="m240.54 101.01c.23 6.35 1.32 9.2 3.99 14.9 0 .08-.09.15-.14.07-3.1-5.37-4.66-8.63-4.06-15 .02-.29.2-.26.21.03z" fill="#263238"/><path d="m234.16 103.09c.68 6.13 1.6 9.41 4.91 14.62.02.06 0 .13-.07.15-.04.02-.09 0-.12-.02-3.5-4.07-5.26-9.34-4.91-14.7.01-.38.15-.43.19-.05z" fill="#263238"/><path d="m269.22 128.27s-2.78-8-3.8-11.29-2.61-12.94-5.37-13.98c-3.1-1.16-4.46 7.65-2.69 13.51 0 0-8.37 5.57-6.99 11.29 1.39 5.72 18.84.47 18.84.47z" fill="#eb9481"/><path d="m257.33 117.2c-3.33 2.05-6.75 5.92-6.79 9.83 0 .05-.04.09-.09.09s-.09-.04-.09-.09c-.52-4.19 3.39-8.71 6.49-10.37.59-.3 1.35 0 .49.54z" fill="#263238"/><path d="m298.68 206.12c.89.98 31.76 3.2 51.17 4.38 8.87.51 15.35.84 15.45.72.86-1.01-8.46-54.8-26.66-70.65-6.46-5.64-16.3-1.91-17.38-.76-7.13 7.59-23.4 65.35-22.59 66.3z" fill="#455a64"/><path d="m325.72 158.58 11.62.96-.38 9.2-6.54 3.2-5.9-4.62z" fill="#37474f"/><path d="m323.22 148.05c3.49 1.16 10.09-3.96 12.81-8.25.19-.29-.06-3.49-.16-7.5-.06-2.41-.07-5.09.1-7.54l-15.59 2.67c.66 3.12.94 6.31.83 9.49-.02.34-.08.67-.17.99v.16c-.43 1.89-1.23 8.91 2.19 9.97z" fill="#eb9481"/><path d="m335.18 124.91c-.71 3.13-3.77 13.79-12.6 13.37-.53-.02-1.05-.09-1.57-.2 0-.05 0-.11 0-.16.09-.32.15-.65.17-.99.11-3.19-.16-6.37-.83-9.49z" fill="#263238"/><path d="m340.73 103.04c1.43 6.63-2.57 22.59-7.52 26.38-7.16 5.47-18.13 5.15-22.59-3.3-4.32-8.15.99-28.31 6.45-31.67 8.02-4.95 21.55-1.21 23.67 8.58z" fill="#eb9481"/><path d="m322.41 112.14c2.03.44 1.01 4.46-.86 4.05s-.84-4.41.86-4.05z" fill="#263238"/><path d="m313.66 110.27c-2.01-.51-2.88 3.49-1.02 4.01s2.7-3.59 1.02-4.01z" fill="#263238"/><path d="m324.61 109.93c-.45-.15-.84-.36-1.27-.55-.47-.13-.88-.41-1.16-.8-.14-.28-.08-.63.16-.84.54-.35 1.22-.37 1.78-.07.6.22 1.11.65 1.41 1.22.17.38 0 .83-.37 1-.17.08-.37.09-.55.03z" fill="#263238"/><path d="m312.71 107.26c.46.02.92.02 1.37 0 .49.06.98-.04 1.41-.28.25-.21.32-.56.16-.85-.36-.52-.98-.81-1.61-.75-.64-.03-1.27.17-1.77.57-.31.29-.32.76-.03 1.07.12.13.29.21.47.23z" fill="#263238"/><path d="m320.43 123.08c-.29.31-.57.75-1.02.82-.48.02-.95-.06-1.4-.23m0 .07c.41.49 1.05.72 1.68.59.51-.17.88-.63.93-1.16-.02-.12-.14-.13-.19-.08z" fill="#263238"/><path d="m315.75 117.72s-.57 1.82-.72 2.7c0 .08.2.15.49.22 1.49.53 3.16.19 4.32-.89.03-.04.02-.1-.03-.13-.02-.01-.05-.02-.08-.01-1.25.58-2.66.74-4.01.45 0-.24 1.08-3.12.94-3.12-.61 0-1.68.09-2.07.13.34-1.16 1.48-4.53 2.1-6.7 0-.14-.17-.22-.22-.1-1.13 2.4-2.1 4.88-2.9 7.41-.03.2 1.79.12 2.18.03z" fill="#263238"/><path d="m315.75 120.2c.35.82.9 1.54 1.61 2.08.39.28.87.43 1.35.43 1.06 0 1.33-.91 1.34-1.74 0-.44-.04-.88-.14-1.32-1.29.62-2.75.81-4.16.54z" fill="#263238"/><path d="m317.36 122.26c.39.28.87.43 1.35.43 1.06 0 1.33-.91 1.34-1.74-1.09-.24-2.2.3-2.69 1.3z" fill="#ff9bbc"/><path d="m339.46 116.93c-4.72.48-7.36-5.08-6.38-9.65 0 0-12.52 2.05-13.43-8.01-1.71 2.83-4.73 4.62-8.04 4.78l-1.28 3.76c-1.3-.34-2.78-3.96.28-6.99.13-3.09 1.45-6.01 3.68-8.15 1.99-1.83 4.87-2.32 7.36-1.26 2.14-1.65 4.83-2.4 7.51-2.1 2.85.38 5.34 2.12 6.69 4.66 0 0 6.25 1 7.45 5.39.74 2.5.38 5.2-1 7.42 0 0 1.62 1.69.93 5.5-.43 2.43-2.36 4.52-3.77 4.66z" fill="#263238"/><path d="m319.91 98.35c-.09.82-.09 1.65 0 2.47.08.8.25 1.58.52 2.33.53 1.51 1.6 2.75 3.02 3.49 1.45.71 3.05 1.06 4.66 1.02.82 0 1.64 0 2.46-.14s1.62-.23 2.46-.33c-.8.22-1.61.41-2.42.62s-1.65.2-2.48.3c-1.71.1-3.41-.23-4.95-.97-1.53-.83-2.67-2.24-3.17-3.9-.44-1.6-.47-3.29-.09-4.9z" fill="#263238"/><path d="m335.85 93.96c1.6-.03 3.18.26 4.66.86 1.54.6 2.82 1.72 3.61 3.17.35.74.58 1.52.68 2.33.13.8.13 1.62 0 2.42-.29 1.6-1.16 3.03-2.45 4.02 1.09-1.11 1.8-2.54 2-4.09.19-1.52-.05-3.05-.7-4.44-.34-.67-.81-1.27-1.36-1.77-.59-.49-1.23-.91-1.92-1.25-1.43-.65-2.96-1.08-4.52-1.26z" fill="#263238"/><path d="m321.65 91.45c-1.2-.39-2.45-.59-3.72-.61-2.52-.06-4.86 1.28-6.07 3.49-.63 1.09-1.1 2.27-1.4 3.49.08-1.29.42-2.56 1-3.72 1.15-2.49 3.75-3.98 6.48-3.73 1.3.08 2.56.44 3.7 1.06z" fill="#263238"/><path d="m313.61 104.39c1.36-.51 2.62-1.25 3.74-2.18.55-.46 1.03-.98 1.43-1.57.4-.61.73-1.26.99-1.94-.04.76-.25 1.5-.61 2.18s-.84 1.29-1.43 1.78c-1.17.98-2.6 1.59-4.12 1.74z" fill="#263238"/><path d="m336.74 117.37s4.13-4.78 6.34-3.25-1.28 8.7-4.12 9.43c-1.47.49-3.06-.3-3.55-1.77-.01-.04-.02-.08-.04-.11z" fill="#eb9481"/><path d="m342.02 116.15v.08c-1.88.7-3.37 2.17-4.1 4.03.51-.69 1.48-.83 2.17-.33.06.04.11.09.16.14 0 0 0 .12-.07.1-.67-.3-1.45-.14-1.94.4-.4.44-.76.92-1.06 1.43-.1.16-.41 0-.33-.15.26-2.49 2.52-5.73 5.17-5.71z" fill="#263238"/><path d="m372.63 267.81-3.18-1.46 19.07-41.46 19.06 41.46-3.18 1.46-15.88-34.56z" fill="#a6a6a6"/><path d="m435.49 274.79h-93.94v-12.18h93.94z" fill="#ffc727"/><path d="m346.33 273.57 2.85 47.75h78.67l2.84-47.75h-84.37zm12.05 37.36c0 .64-.52 1.16-1.16 1.16h-.43c-.62-.03-1.11-.54-1.11-1.16v-30.16c0-.62.49-1.13 1.11-1.16h.43c.64 0 1.16.52 1.16 1.16zm6.99 0c0 .62-.49 1.13-1.11 1.16h-.43c-.64 0-1.16-.52-1.16-1.16v-30.16c0-.64.52-1.16 1.16-1.16h.43c.62.03 1.11.54 1.11 1.16zm6.99 0c0 .64-.52 1.16-1.16 1.16h-.43c-.64 0-1.16-.52-1.16-1.16v-30.16c0-.64.52-1.16 1.16-1.16h.43c.64 0 1.16.52 1.16 1.16zm6.99 0c0 .62-.49 1.13-1.11 1.16h-.43c-.62-.03-1.11-.54-1.11-1.16v-30.16c0-.62.49-1.13 1.11-1.16h.43c.62.03 1.11.54 1.11 1.16zm6.99 0c0 .62-.48 1.13-1.09 1.16h-.43c-.64 0-1.16-.52-1.16-1.16v-30.16c0-.64.52-1.16 1.16-1.16h.43c.62.04 1.1.55 1.09 1.16zm6.99 0c0 .62-.49 1.13-1.11 1.16h-.43c-.64 0-1.16-.52-1.16-1.16v-30.16c0-.64.52-1.16 1.16-1.16h.43c.62.03 1.11.54 1.11 1.16zm6.99 0c0 .62-.49 1.13-1.11 1.16h-.44c-.62-.04-1.1-.55-1.09-1.16v-30.16c0-.62.48-1.13 1.09-1.16h.44c.62.03 1.11.54 1.11 1.16zm6.99 0c0 .62-.48 1.13-1.09 1.16h-.43c-.64 0-1.16-.52-1.16-1.16v-30.16c0-.64.52-1.16 1.16-1.16h.43c.62.04 1.1.55 1.09 1.16zm6.99 0c0 .64-.52 1.16-1.16 1.16h-.44c-.62-.03-1.11-.54-1.11-1.16v-30.16c0-.62.49-1.13 1.11-1.16h.44c.64 0 1.16.52 1.16 1.16zm6.99 0c0 .64-.52 1.16-1.16 1.16h-.44c-.62-.04-1.1-.55-1.09-1.16v-30.16c0-.62.48-1.13 1.09-1.16h.44c.64 0 1.16.52 1.16 1.16z" fill="#ffc727"/><path d="m337.49 152.23c7.34 26.48 22.43 63.4 26.26 70.4 2.6 4.74 27.95-8.43 25.73-11.39-2.88-3.79-27.07-42.61-40.76-59.8-7.59-9.48-12.99-5.6-11.23.79z" fill="#eb9481"/><path d="m378.54 251.33c1.75-.22 3.19-1.5 3.6-3.21 1.3.67 2.8.85 4.23.52 2.49-.68 2.52-4.89 2.52-4.89 1.5.41 3.08.36 4.55-.14 2.33-.9 2.95-5.15 2.95-5.15 1.58-.38 2.98-1.32 3.92-2.64 2.39-3.65-.41-9.69-2.14-13.56-1.74-3.87-10.26-13.18-11.7-15.14l-24.87 10.91s2.84 19.51 5.53 23.76c2.26 3.61 8.12 9.82 11.41 9.54z" fill="#eb9481"/><path d="m381.66 248.11c-3.32-3.23-5.5-7.27-7.9-11.17 0-.08.08-.16.13-.08 2.33 3.91 5.44 7.3 7.94 11.11.07.07-.08.22-.17.14z" fill="#263238"/><path d="m388.52 243.82c-.68-.81-1.26-1.7-1.71-2.66-.54-.98-1.06-1.97-1.56-2.97-1.01-1.99-1.98-4.02-2.89-6.06 0-.09.09-.17.14-.08 1.01 1.98 2.05 3.96 3.14 5.89.55.98 1.11 1.94 1.68 2.91.59.87 1.08 1.81 1.46 2.8.02.09-.04.17-.13.19-.04 0-.09 0-.13-.03z" fill="#263238"/><path d="m396.3 238.38c-.61-.73-1.09-1.57-1.41-2.47-.44-.92-.89-1.84-1.34-2.75-.91-1.83-1.82-3.66-2.78-5.45-.02-.04 0-.09.04-.11.03-.01.07 0 .1.03.99 1.82 2 3.62 2.98 5.45l1.43 2.7c.5.78.87 1.65 1.07 2.56l-.09.03z" fill="#263238"/><path d="m343.89 178.91 3.02-1.42 18.82-8.87c-5.52-7.68-11.53-14.99-17.99-21.9-6.82-6.99-12.26-8.39-13.13-3.2-.35 2.01 0 5.02 1.23 9.07 2.83 9.27 8.05 26.32 8.05 26.32z" fill="#37474f"/><path d="m343.37 173.86c3.24-1.23 16.3-6.8 19.07-8.15.19-.09.17-.23 0-.16-6.51 2.39-12.87 5.14-19.08 8.23-.12-.01-.07.12.01.08z" fill="#263238"/></svg>