<svg enable-background="new 0 0 500 500" viewBox="0 0 500 500" xmlns="http://www.w3.org/2000/svg"><path d="m399.5 45.7h-169c-9.5.1-17.2 7.9-17.1 17.4v348c-.1 9.5 7.6 17.3 17.1 17.4h169.1c9.5-.1 17.2-7.9 17.1-17.4v-348c0-9.5-7.6-17.3-17.2-17.4zm6.4 354.7c0 9.2-6.9 16.6-15.3 16.6h-151.2c-8.5 0-15.3-7.4-15.3-16.6v-324c0-18.7 6.9-19.6 15.3-19.6h30.3c1.8 0 3.2 2 3.2 4.5v1.1c0 5.8 3.2 5.8 7.1 5.8h70c3.9 0 7.1 0 7.1-5.8v-1.1c0-2.5 1.4-4.5 3.2-4.5h30.3c8.5 0 15.3 2.5 15.3 19.6z" fill="#263238"/><path d="m405.9 76.4v324.1c0 9.2-6.9 16.6-15.3 16.6h-151.2c-8.5 0-15.3-7.4-15.3-16.6v-324.1c0-18.7 6.9-19.6 15.3-19.6h30.3c1.8 0 3.2 2 3.2 4.5v1.1c0 5.8 3.2 5.8 7.1 5.8h70c3.9 0 7.1 0 7.1-5.8v-1.1c0-2.5 1.4-4.5 3.2-4.5h30.3c8.5 0 15.3 2.5 15.3 19.6z" fill="#fff"/><path d="m405.9 76.4v66.5h-181.9v-66.5c0-18.7 6.9-19.6 15.3-19.6h30.3c1.8 0 3.2 2 3.2 4.5v1.1c0 5.8 3.2 5.8 7.1 5.8h70.1c3.9 0 7.1 0 7.1-5.8v-1.1c0-2.5 1.4-4.5 3.2-4.5h30.3c8.5 0 15.3 2.5 15.3 19.6z" fill="#ffac1d"/><path d="m236.3 101.7h157.3v12.6h-157.3z" opacity=".1"/><path d="m150.5 253h3.9v57.8h-3.9z" fill="#dbdbdb"/><path d="m112 253h3.9v57.8h-3.9z" fill="#dbdbdb"/><path d="m148.9 248.6h6.7v8.9h-6.7z" fill="#263238"/><path d="m110.5 248.6h6.7v8.9h-6.7z" fill="#263238"/><path d="m110.5 246.4v6.7h9.7l1.9 1.3h22l1.9-1.3h9.7v-6.7h-9.7l-1.9 1.3h-22l-1.9-1.3z" fill="#263238"/><path d="m90.7 310.8h84.8v120.4h-84.8z" fill="#7bb743"/><path d="m90.7 310.8h84.8v120.4h-84.8z" opacity=".1"/><path d="m100 320.1h66.2v101.8h-66.2z" fill="#7bb743"/><g opacity=".1"><path d="m159 324.4c-.2 7.8-.3 15.5-.3 23.3l-.1 23.3.1 23.3.1 11.6.2 11.6.2-11.6.1-11.6.1-23.3-.1-23.3c0-7.7-.1-15.5-.3-23.3z"/><path d="m150.4 324.4c-.2 7.8-.3 15.5-.3 23.3l-.1 23.3.1 23.3.1 11.6.2 11.6.2-11.6.1-11.6.1-23.3-.1-23.3c0-7.7-.1-15.5-.3-23.3z"/><path d="m141.9 324.4c-.2 7.8-.3 15.5-.3 23.3l-.1 23.3.1 23.3.1 11.6.2 11.6.2-11.6.1-11.6.1-23.3-.1-23.3c-.1-7.7-.2-15.5-.3-23.3z"/><path d="m133.3 324.4c-.2 7.8-.3 15.5-.3 23.3l-.1 23.3.1 23.3.1 11.6.2 11.6.2-11.6.1-11.6.1-23.3-.1-23.3c0-7.7-.1-15.5-.3-23.3z"/><path d="m124.7 324.4c-.2 7.8-.3 15.5-.3 23.3l-.1 23.3.1 23.3.1 11.6.2 11.6.2-11.6.1-11.6.1-23.3-.1-23.3c0-7.7-.1-15.5-.3-23.3z"/><path d="m116.1 324.4c-.2 7.8-.3 15.5-.3 23.3l-.1 23.3.1 23.3.1 11.6.2 11.6.2-11.6.1-11.6.1-23.3-.1-23.3c0-7.7-.1-15.5-.3-23.3z"/><path d="m107.6 324.4c-.2 7.8-.3 15.5-.3 23.3l-.1 23.3.1 23.3.1 11.6.2 11.6.2-11.6.1-11.6.1-23.3-.1-23.3c-.1-7.7-.1-15.5-.3-23.3z"/></g><path d="m175.6 421.9h-16l-6.4 9.3h22.4z" fill="#263238"/><path d="m90.7 421.9h16l6.4 9.3h-22.4z" fill="#263238"/><path d="m175.6 338.7 4.4-.9v-10l-4.4-.9z" fill="#263238"/><path d="m175.6 415.1 4.4-.9v-10l-4.4-.9z" fill="#263238"/><path d="m83.4 371c0 18.3 4.5 29.5 4.5 29.5h2.9v-17h-3.8v-25.1h3.7v-17h-2.9s-4.4 11.3-4.4 29.6z" fill="#263238"/><path d="m86 394.5c.5 2.1 1.1 4.1 1.8 6.1h2.9v-6.1z" fill="#dbdbdb"/><path d="m86 347.5h4.7v-6.1h-2.9c-.7 2-1.3 4.1-1.8 6.1z" fill="#dbdbdb"/><path d="m132.7 304.3c-18.3 0-22.6 4.5-22.6 4.5v2h10.9v-2.8h23.4v2.8h11.7v-2c0-.1-5.1-4.5-23.4-4.5z" fill="#263238"/><path d="m165.5 438.6h4l2.6-7.4h-8.6l2.5 3.7z" fill="#263238"/><path d="m161.8 440.9c0 3 2.4 5.4 5.5 5.4s5.4-2.4 5.4-5.5c0-3-2.4-5.4-5.4-5.4-3 .1-5.4 2.5-5.5 5.5z" fill="#263238"/><circle cx="167.3" cy="440.9" fill="#dbdbdb" r="3"/><g fill="#263238"><path d="m167.2 439.1c0 .4 0 .8.1.8s.1-.4.1-.8-.1-.8-.1-.8-.1.4-.1.8z"/><path d="m168.5 439.6c-.3.3-.5.6-.5.6 0 .1.3-.2.6-.5s.5-.6.5-.6-.3.2-.6.5z"/><ellipse cx="169.1" cy="441" rx=".8" ry=".1"/><path d="m168.6 442.1c-.3-.3-.6-.5-.6-.5s.2.3.5.6.6.5.6.5-.2-.3-.5-.6z"/><ellipse cx="167.2" cy="442.7" rx=".1" ry=".8"/><path d="m166.1 442.2c.3-.3.5-.6.5-.6s-.3.2-.6.5-.5.6-.5.6.3-.2.6-.5z"/><path d="m165.5 441c.4 0 .8 0 .8-.1s-.4-.1-.8-.1-.8 0-.8.1.4.1.8.1z"/><path d="m166 439.7c.3.3.6.5.6.5s-.2-.3-.5-.6-.6-.5-.6-.5.2.3.5.6z"/><path d="m100.8 438.6h-4l-2.6-7.4h8.5l-2.4 3.7z"/><path d="m104.5 440.9c0 3-2.4 5.4-5.5 5.4-3 0-5.4-2.4-5.4-5.5 0-3 2.4-5.4 5.4-5.4 3 .1 5.5 2.5 5.5 5.5z"/></g><path d="m102 440.9c0 1.7-1.3 3-3 3s-3-1.3-3-3 1.3-3 3-3c1.6 0 3 1.4 3 3z" fill="#dbdbdb"/><ellipse cx="98.9" cy="439.1" fill="#263238" rx=".1" ry=".8"/><path d="m97.8 439.6c.3.3.5.6.5.6 0 .1-.3-.2-.6-.5s-.5-.6-.5-.6.3.2.6.5z" fill="#263238"/><path d="m97.2 440.8c.4 0 .8 0 .8.1s-.3.1-.8.1c-.4 0-.8-.1-.8-.1s.4-.1.8-.1z" fill="#263238"/><path d="m97.7 442.1c.3-.3.6-.5.6-.5s-.2.3-.5.6-.6.5-.6.5.2-.3.5-.6z" fill="#263238"/><path d="m98.9 442.7c0-.4 0-.8.1-.8s.1.3.1.8 0 .8-.1.8-.1-.4-.1-.8z" fill="#263238"/><path d="m100.2 442.2c-.3-.3-.5-.6-.5-.6.1 0 .3.2.6.5s.5.6.5.6-.3-.2-.6-.5z" fill="#263238"/><ellipse cx="100.8" cy="440.8" fill="#263238" rx=".8" ry=".1"/><path d="m100.3 439.7c-.3.3-.6.5-.6.5s.2-.3.5-.6.6-.5.6-.5-.2.3-.5.6z" fill="#263238"/><path d="m226.3 453.1c-2.3.3-65.6-14.5-67.6-16.5-.2-.2 2.7-12.4 2.7-12.4 1-5 15.6-45.8 15.6-45.8l41.4 10.2-15.6 37.8s7.9 5.3 14.7 10.4c3 2.1 5.9 4.4 8.6 6.9 1.8 2.5 2.5 9.2.2 9.4z" fill="#eb9481"/><path d="m226.3 453.1c-2.3.3-65.6-14.5-67.6-16.5-.2-.2 2.7-12.4 2.7-12.4.3-1.6 2.3-7.1 4.9-13.8l39.6 9.2-3.2 6.8s7.9 5.3 14.7 10.4c3 2.1 5.9 4.4 8.6 6.9 2 2.5 2.6 9.2.3 9.4z" fill="#ebebeb"/><path d="m226.5 453.3c-2.4.2-66.2-14-68.2-16.1-.8-.8 4.9-21.3 4.9-21.4l40.8 9-.2.7s20.5 15.7 22.6 18.3 2.5 9.3.1 9.5z" fill="#7bb743"/><path d="m226.3 450.7c-10.7-2.6-54.1-12.5-64.8-14.3-.1 0-.1 0 0 .1 10.5 2.9 54 12.3 64.8 14.4.2 0 .2-.2 0-.2z" fill="#263238"/><path d="m207 425.3c-4-1.7-9.4-2.2-13.3 0-.1.1 0 .3.1.3 4.3-.4 8.7-.3 13 .2.2 0 .3-.1.3-.3 0-.1 0-.2-.1-.2z" fill="#263238"/><path d="m209.7 427.8c-4.1-1.7-9.4-2.2-13.3 0-.1.1 0 .3.1.3 4.3-.4 8.7-.3 13 .2.2 0 .3-.1.3-.3 0-.1-.1-.2-.1-.2z" fill="#263238"/><path d="m212.3 430.3c-4-1.7-9.4-2.2-13.3 0-.1.1 0 .3.1.3 4.3-.4 8.7-.3 13 .2.2 0 .3-.1.3-.3 0-.1 0-.1-.1-.2z" fill="#263238"/><path d="m214.6 417.3c-1.1-2.6-4.5-2.3-6.6-1.2-3.6 1.9-6.6 4.8-8.7 8.2v.2c-.1.3.1.6.4.7h.2c3.8-.5 7.9-.6 11.4-2.2 2.1-1.1 4.4-3.2 3.3-5.7zm-9.1 5.9c-1.9.3-3.7.5-5.6.9 1.6-1.6 3.4-3.2 5.2-4.7.9-.7 1.8-1.3 2.8-1.9 1.5-.9 7.1-2.2 5.3 2.3-1 2.4-5.5 3-7.7 3.4z" fill="#263238"/><path d="m188.8 420.7c3.2 2.3 7.2 3.1 10.8 4.3.4.1.7-.2.7-.6.1 0 .1-.1.1-.1-1.4-3.8-3.9-7.1-7-9.7-1.9-1.5-5.1-2.4-6.7 0s.3 4.8 2.1 6.1zm-1.2-3.4c-.9-4.7 4.3-2.4 5.6-1.3.8.7 1.6 1.5 2.4 2.4 1.5 1.8 2.9 3.6 4.2 5.5-1.7-.7-3.5-1.2-5.3-1.9-2.1-.7-6.4-2.1-6.9-4.7z" fill="#263238"/><path d="m205.9 425.1-44.1-9.9s36.4-101.4 33.2-105.7c-1.6-2.1-42.5-2.8-55.5-13.8-16.9-14.3-5.6-36.2-5.6-36.2l45.6-1.4s-.6 9.5 1.2 11c1.2 1 55.6 5.5 61.5 23.9 7.5 22.5-36.3 132.1-36.3 132.1z" fill="#37474f"/><path d="m207.2 417.1c-1.2-.5-12.6-3.7-15.1-4.4-5.1-1.3-10.3-2.6-15.4-3.8-2.7-.6-8.5-2-8.8-2-.1 0-.1.1-.1.1 0 .1.1.1.1.1 5 1.6 10.1 2.9 15.2 4.3s22.6 5.6 24.1 5.8c0 .2.2 0 0-.1z" fill="#263238"/><path d="m202.8 305.8c-.9-.8-2.3-.9-3.4-1.1l-19.8-3.3c-6.2-1-12.4-2-18.5-3.1-5.1-1-10.2-2.3-14.7-5.1-4.3-2.7-7.5-6.9-9-11.7-1.4-4.9-1.8-10-1.2-15 .1-1.2.3-2.5.6-3.7 0-.1-.1-.1-.2 0-1.7 9.4-1.8 20.2 5.2 27.6 3.4 3.6 8.1 5.8 12.9 7.1 5.4 1.6 11.1 2.3 16.6 3.2l19.8 3.3c3.2.5 6.4.9 9.5 1.6.6.1 1.2.3 1.7.8.5.7.6 1.5.3 2.3-.3 1.5-.7 3.1-1.2 4.6-3.6 12.3-27.9 87.9-28.6 89.2-.1.1.1.2.2.1 6-10.8 23.6-73 27.6-84.6 1.1-2.9 1.9-5.9 2.6-9 .4-1.2.5-2.4-.4-3.2z" fill="#263238"/><path d="m313.4 453.8c-2.2.7-65.5-.1-67.9-1.7-.9-.9-1.7-9-2.2-19.1l-10.9-43.2 40.7-.3 11.9 42.9s8.8 3.7 16.4 7.3c3.4 1.5 6.6 3.1 9.8 5 2.4 2 4.4 8.4 2.2 9.1z" fill="#eb9481"/><path d="m314.7 453.9c-2.3.8-67.6.5-70.1-1.1-.9-.6-1.5-10.1-1.7-21.6 0-.1 0-.2 0-.4l42.2-.3v.7s25 11.3 27.5 13.3 4.4 8.6 2.1 9.4z" fill="#7bb743"/><path d="m313.9 451.3c-11-.3-55.5-.6-66.4-.1-.1 0-.1.1 0 .1 10.9.6 55.4.5 66.4.2.3 0 .3-.2 0-.2z" fill="#263238"/><path d="m289.7 430.6c-4.3-.8-9.6-.2-13 2.9-.1.1 0 .3.2.2 4.1-1.3 8.4-2.2 12.8-2.6.2 0 .3-.1.3-.3-.1-.1-.2-.2-.3-.2z" fill="#263238"/><path d="m292.8 432.5c-4.3-.8-9.6-.2-13 2.9-.1.1 0 .3.2.2 4.2-1.3 8.4-2.2 12.8-2.6.1 0 .3-.1.3-.3 0-.1-.2-.2-.3-.2z" fill="#263238"/><path d="m295.9 434.4c-4.3-.8-9.6-.2-13 2.9-.1.1 0 .3.2.3 4.1-1.3 8.4-2.2 12.8-2.6.1 0 .3-.1.3-.2 0-.2-.1-.4-.3-.4z" fill="#263238"/><path d="m295.3 421.2c-1.7-2.4-4.9-1.3-6.7.2-3.1 2.7-5.4 6.1-6.7 9.9 0 .1 0 .1.1.1 0 .3.2.6.5.6h.1c3.6-1.3 7.6-2.3 10.7-4.6 1.9-1.4 3.6-4 2-6.2zm-7.6 7.7c-1.8.7-3.5 1.3-5.2 2 1.2-2 2.6-3.9 4-5.7.7-.9 1.5-1.7 2.3-2.5 1.3-1.2 6.4-3.6 5.6 1.1-.3 2.7-4.6 4.3-6.7 5.1z" fill="#263238"/><path d="m270.9 430.1c3.6 1.5 7.7 1.5 11.5 1.9.3 0 .5-.2.5-.5 0-.1 0-.1 0-.2.1 0 .1-.1.1-.2-2.3-3.4-5.4-6.1-9-7.9-2.1-1-5.5-1.2-6.5 1.5s1.3 4.5 3.4 5.4zm-1.9-3c-1.9-4.4 3.6-3.3 5.2-2.5 1 .5 1.9 1.1 2.9 1.8 1.9 1.4 3.6 2.9 5.3 4.5-1.9-.3-3.7-.5-5.6-.7-2.3-.3-6.8-.8-7.8-3.1z" fill="#263238"/><path d="m288 430.9h-47.5s-20.3-97.7-23.9-102.3c-4.8-6.1-72-6-86.4-26-12.9-18-2-43.4-2-43.4l50.9-1.5c-1.1 5.4-2.7 10.8-4.7 16 0 0 61.3 11.3 78.4 30 11.5 12.7 35.2 127.2 35.2 127.2z" fill="#37474f"/><path d="m183.2 270.2c-1.5.3-2.9.8-4.3 1.4-1.5.5-2.9 1.2-4.3 1.9-2.8 1.4-5.4 2.9-8.1 4.5-.1 0 0 .2.1.1 2.8-1.4 5.6-2.7 8.4-3.9l4.1-1.8c1.4-.5 2.8-1.1 4.1-1.8.3-.1.2-.4 0-.4z" fill="#263238"/><path d="m180.1 257.7c-.6 2.3-1.1 4.6-1.8 7-.3 1.1-.6 2.1-1 3.1-.3.9-.9 1.9-1.9 2-1.1.2-1.5-.8-1.4-1.7s.4-2.1.6-3.2c.2-1.2.5-2.4.7-3.6.1-.6.2-1.2.3-1.8 0-.1.1-1.3.2-1.6 0 0 0 .1.1 0s.1 0 .1-.1 0-.1-.1-.2h-.1c-.2.1-.2.4-.3.6-.2.6-.4 1.2-.6 1.8-.3 1.1-.6 2.2-.9 3.3s-.6 2.2-.8 3.4c-.3.8-.4 1.7-.2 2.6.2.8 1 1.4 1.8 1.5 0 .1-.1.1-.1.2-.1.2-.2.5-.3.7s-.2.5-.2.7c0 .1-.1.2-.1.4v.4c0 .1 0 .2.1.2s.2 0 .2-.1c.1-.1.1-.2.2-.3s.1-.3.2-.4c.1-.2.1-.5.2-.7s.1-.5.2-.7 0-.3 0-.4c.5 0 .9-.2 1.3-.5.7-.6 1.1-1.3 1.4-2.1.4-1 .6-2 .9-3 .7-2.4 1.2-4.9 1.5-7.5.1-.1 0-.1-.2 0z" fill="#263238"/><path d="m283.1 422.4c-1.3-.1-2.5-.2-3.8-.2l-4-.1c-2.7-.1-5.3-.1-7.9-.1-5.3 0-10.6 0-15.9.1-2.8 0-8.7.1-9 .2-.1 0-.1.1-.1.2 0 0 .1.1.1.1 5.3.3 10.5.4 15.8.5s10.5.2 15.8.1c1.5 0 2.9-.1 4.4-.1s3.1-.1 4.6-.2c.1-.2.2-.5 0-.5z" fill="#263238"/><path d="m222.1 329.2c-.4-1.5-1.1-2.8-2-4.1-1.1-1-2.4-1.7-3.9-2-12.7-3.5-25.7-5-38.6-7.5-6.4-1.1-12.6-2.7-18.8-4.6-6.3-1.9-12.2-4.5-17.8-8-2.7-1.7-4.9-4.1-6.5-6.9-1.5-2.7-2.5-5.6-3.1-8.6-1.4-6.9-1.4-14 0-20.9.3-1.7.8-3.4 1.3-5.1 0-.1-.1-.1-.2 0-2.4 6.6-3.4 13.7-2.9 20.7.5 6.1 1.9 12.5 5.9 17.4 2 2.4 4.5 4.3 7.3 5.7 2.9 1.6 5.9 3 9 4.2 6 2.3 12.2 4.2 18.5 5.5 12.9 2.8 26 4.3 38.8 7.1 1.6.4 3.2.7 4.7 1.1 1.6.3 3.2.8 4.7 1.5 1.5 1 2 2.9 2.6 4.4.7 1.7 21.3 88.7 21.8 90.4 0 .1.2.2.3.1.1 0 .2-.2.1-.3-1.7-6.8-19.9-86.6-21.2-90.1z" fill="#263238"/><path d="m218.3 331.1c-.5-1.5-.9-3.2-2.3-4.1s-21.8-3.6-24-4c-.1 0-.1.1 0 .2 2 .3 20.7 3.7 22.4 4.2.7.2 1.4.6 1.8 1.2.5.8.9 1.6 1.1 2.5.6 1.8 8.1 33.3 9.1 37.5.1.3.5.2.5-.1-1.5-7.9-8-35.5-8.6-37.4z" fill="#263238"/><path d="m174.5 273.8c9.4 1.1 18.7 3 27.8 5.7 9.1 2.6 18.1 5.8 26.8 9.7 4.9 2.2 9.6 4.6 14.2 7.2.1 0 0 .2-.1.1-8.4-4.3-17.1-8.1-26-11.4-8.8-3.2-17.9-5.9-27.1-7.9-5.2-1.1-10.4-2-15.6-2.9-.4.1-.3-.5 0-.5z" fill="#263238"/><path d="m220.4 171.5-9.2 29.6c-.3.5-.2 1.2.3 1.5.2.1.4.2.6.2l15.5.9c1 0 1.8-.6 2.2-1.5l9.2-29.6c.4-.9 0-1.6-.9-1.6l-15.5-.9c-.9 0-1.7.5-2.2 1.4z" fill="#37474f"/><path d="m222.3 171.6-9.2 29.5c-.4.9 0 1.6.9 1.6l15.5.9c1 0 1.8-.6 2.2-1.5l9.2-29.5c.4-.9 0-1.6-.9-1.6l-15.5-.9c-1 0-1.8.6-2.2 1.5z" fill="#455a64"/><path d="m226.4 173.2c-.1.7-.7 1.3-1.4 1.2s-1.3-.7-1.2-1.4.7-1.2 1.4-1.2 1.3.6 1.2 1.4c0-.1 0 0 0 0z" fill="#263238"/><path d="m168 214.1c7.5 19.2 25.6 44.6 33.7 45.3 3.9.3 10.7 1.7 16.1-2.4 11.7-9 22.2-26.9 24.7-37.4.9-3.7-16.9-13.1-19.8-10.2-6.8 6.8-15.1 20.4-16.2 20.3-4.1-.6-19.5-15.2-30.2-25.5-13.1-12.6-11.3 2.2-8.3 9.9z" fill="#eb9481"/><path d="m244.3 200.1c-1.4-7.8-3-9.6-.7-16.8 1.5-4.7-.9-7.7-4.6-4.1-6 6-6.2 16.4-5.3 20z" fill="#eb9481"/><path d="m241.4 222.7s4.1-10.5 3.4-18.9c-.5-5.9-3-18.4-18.8-26-3.7-1.8-10.4-1.7-5.3 3.4 3.6 3.7 7 4.9 8.7 7.4 0 0-8.4 1.1-10.1 4.9-1.5 3.3-2.7 6.8-3.6 10.3.6.3 1.2.6 1.9.9 0 0-1.4 3.6 1 9.1z" fill="#eb9481"/><path d="m243.5 198.3c-2.2-2.1-7-6.6-12.1-8.9-5.7-2.5-17.5-5.9-19.3-1.6-1.3 3.1 3 4.8 3 4.8s-5.1-.4-5.7 2.7c-.6 2.8 2.9 3.9 2.9 3.9s-3.2.3-3.2 3.1c0 3.4 6.6 2.1 9.6 5.6.6.8 24.8-9.6 24.8-9.6z" fill="#eb9481"/><path d="m229.7 196c-4.4-2.6-9.4-3.8-14.5-3.4-.1 0-.2.1-.1.1 5 .5 9.9 1.6 14.6 3.3z" fill="#263238"/><path d="m226.9 201.7c-2.2-1.2-9-3.4-14.7-2.6-.1 0-.2.1-.1.1 5.1.3 10 1.2 14.8 2.5 0 0 .1 0 0 0z" fill="#263238"/><path d="m242.6 229.3s-17.4 26.7-26.3 29.5-14.2 1.8-17.4 1.1c-1.2-.4-2.4-1-3.3-1.9-8.4-6.9-22.7-30.2-28.3-43.1-4.2-9.7-3.1-18.2 4-15 2.4 1.2 4.6 2.8 6.4 4.7 12.7 12.1 27.5 23.8 28.3 23.5s9.3-12 9.3-12z" fill="#7bb743"/><path d="m195.5 258.1c-8.4-6.9-22.7-30.2-28.3-43.1-4.2-9.7-3.1-18.2 4-15 3.3 7.6 17.4 41.1 24.3 58.1z" opacity=".1"/><path d="m237.8 233.1c-1-.6-10.1-4.9-12.2-5.8s-10.2-4.6-12.4-5.3h-.1v.1c2 1.1 10.2 4.9 12.3 5.9s11.2 5 12.3 5.3c.1-.1.2-.2.1-.2z" fill="#263238"/><path d="m206 228.2c-.8 1.2-1.6 2.3-2.4 3.4s-1.7 2.2-2.6 3.2c.5-1.3 1.1-2.6 2-3.7s1.8-2.1 3-2.9z" fill="#263238"/><path d="m184.5 269.1c-1.4 1.4-63.1 7.8-63.4 7.4-.8-1.1 10.7-58.9 35.4-78.8 4.4-3.5 11.6-2 14.9.1 1.6 1.1 6.2 9.4 7.5 16.7s6.5 53.7 5.6 54.6z" fill="#ebebeb"/><path d="m158.1 196.2s6.7 34.9 6.9 36.4-.8 40.3-.8 40.3l-45.8 5.6s5.2-19.3 5.4-20.2 10-33 20.4-47.3c9.8-13.3 13.9-14.8 13.9-14.8z" fill="#7bb743"/><path d="m172.3 198.2s4.6 31 4.8 33 3.6 39.6 3.6 39.6l5.6-2.1s-3.2-24.6-3.5-26.7-3-25-4-29.2c-1.5-6.7-6.5-14.6-6.5-14.6z" fill="#7bb743"/><path d="m156 197.7c-24.6 9.4-54.2 33.4-53.5 42.4.7 10.1 36-3.1 35.8-4.7-.2-1.3 8-11.2 19.7-25.4 11.8-14.4 4.1-14.6-2-12.3z" fill="#7bb743"/><path d="m102.5 240.1c1.3 7.1 11.2 12.9 34.6 29.6 3.2 2.3 25.7-16.2 22.4-18.8-4.2-3.3-21.2-15.4-22.6-16.1-11.5-6.1-35.3.5-34.4 5.3z" fill="#eb9481"/><path d="m154.8 247.4s10.1 6.6 14.4 11.7c5.7 6.9 7.8 15.1 8.5 18.6 1.4 7.3-.3 26-5.8 26.5-5 .4-2.3-18.6-2.3-18.6s.5 19.9-5.6 19.3-1.7-22.5-1.7-22.5 0 20.4-6.1 18.8c-4.6-1.2-1.8-21.3-1.8-21.3s-.1 17.5-4.9 16.5c-5.3-1.2-3.9-19.9-3.9-19.9-11.8-4.7-15.5-11.8-17.6-17.2-.4-1.2 26.8-11.9 26.8-11.9z" fill="#eb9481"/><path d="m170 278.7c.1 2.3.3 4.7.2 7s-.2 4.7-.5 7c-.3 3-1 6-2 8.9 1.4-5.3 1.8-13.6 1.8-16 .1-2.3.3-4.7.3-7 .1.1.2.1.2.1z" fill="#263238"/><path d="m161.5 278.3c0 3 .2 6 .1 8.9s-.4 5.8-.7 8.8c0 .2-.1.1-.1-.1.2-3 .1-5.7.2-8.7s.4-5.9.5-8.9z" fill="#263238"/><path d="m154.4 276.7c.2 4.6-.1 9.2-.9 13.7 0 .2-.2.1-.1-.1.4-4.5.7-8.1.8-13.5 0-.2.2-.2.2-.1z" fill="#263238"/><path d="m160.1 248.5s-31 18.8-31.3 18.7-26.7-19.6-26.4-27.1 24.2-10.6 34.4-5.4 23.3 13.8 23.3 13.8z" fill="#7bb743"/><path d="m150.7 244.4c-1.2.6-11 6.9-13.1 8.3s-10.8 7.2-12.8 8.8c0 0-.1.1 0 .1 0 0 .1.1.1 0 2.3-1.2 11.1-7 13.2-8.4s11.7-7.9 12.7-8.8c.1 0 0-.1-.1 0z" fill="#263238"/><path d="m124.2 232.3c2.5-.1 9.3 0 14.5 3.3.1 0 0 .1 0 .1-4.5-2.2-12-3.3-14.5-3.4 0 .1-.1 0 0 0z" fill="#263238"/><path d="m158.2 249.7 1.9-1.2v.2l-5.4-3.4c-1.8-1.1-3.6-2.2-5.4-3.3-3.6-2.2-7.3-4.4-11.1-6.3l-.5-.3.3-.5c2.6-3.8 5.3-7.4 8.1-11 1.4-1.8 2.9-3.6 4.3-5.3 1.5-1.7 3-3.4 4.6-5-2.9 3.5-5.7 7.1-8.4 10.8s-5.4 7.3-7.9 11.1l-.2-.7c3.8 2 7.4 4.2 11 6.5 1.8 1.2 3.6 2.4 5.3 3.6 1.8 1.2 3.5 2.5 5.2 3.7l.1.1-.1.1z" fill="#263238"/><path d="m148.4 221.4 1.2-1.2c.4-.4.8-.8 1.3-1.1.9-.7 1.8-1.4 2.8-1.9-.8.8-1.6 1.6-2.5 2.3-.4.4-.9.7-1.4 1-.4.4-.8.7-1.4.9z" fill="#263238"/><path d="m120.4 260.7c1.5.9 3 1.9 4.4 3 .7.5 1.4 1.1 2.1 1.6l2.1 1.7h-.3l2.7-1.2c-.8.6-1.6 1.1-2.4 1.6l-.1.1-.2-.1c-.7-.5-1.5-1-2.2-1.5s-1.4-1.1-2.1-1.6c-1.4-1.1-2.7-2.3-4-3.6z" fill="#263238"/><path d="m169.9 207.4c-3.6.6-9.3-5.1-11.5-9.6-.1-.3 1.8-12.2 2-14.6 0-.5 14.9 4.6 14.9 4.6-1 3-1.7 6-2 9.1-.1.3 0 9.9-3.4 10.5z" fill="#eb9481"/><path d="m175.2 187.7c0 .1-.1.4-.3.8-.2.8-.6 2.1-1 3.6-.4 1.6-.6 3.1-.7 4.7v.3.1.8c-.5 0-1 0-1.5 0-8.2-.7-10.4-10.9-10.9-14.8l.2.1c.4.1.9.2 1.5.4l.5.1c1 .3 2.2.7 3.4 1l1.2.4 2.6.8c.3.1.7.2 1 .4l1 .4.5.2.2.1 1.2.4.6.2c.1 0 .2.1.2.1z" fill="#263238"/><path d="m159.3 167.1c-1.7 5.3 1.1 20.8 4.9 24.3 5.5 5 14.5 5.5 18.8-1.1 4.1-6.4.2-26.5-4.1-29.6-6.2-4.6-17.1-1.5-19.6 6.4z" fill="#eb9481"/><path d="m174.4 176.2s-.1.1-.1.1c.2 1 .4 2.2-.5 2.8 1.2-.3 1-1.9.6-2.9z" fill="#263238"/><path d="m173.3 175.3c-1.7.2-1.1 3.6.4 3.4s1-3.5-.4-3.4z" fill="#263238"/><path d="m180.5 175.4s.1 0 0 0c.2 1.1.6 2.3 1.6 2.5v.1c-1.2.1-1.7-1.6-1.6-2.6z" fill="#263238"/><path d="m181.2 174.2c1.7-.4 2.3 2.9.8 3.3s-2.2-3-.8-3.3z" fill="#263238"/><path d="m171.8 174c.4-.1.9-.4 1.3-.5.5-.1.9-.4 1.2-.8.1-.3.1-.6-.2-.9-.5-.4-1.2-.4-1.8-.1-.6.2-1.1.6-1.4 1.2-.2.4 0 .8.4 1 .1.1.3.1.5.1z" fill="#263238"/><path d="m182.3 172.1c-.5 0-.9-.1-1.4-.1s-1-.1-1.4-.4c-.2-.2-.3-.6-.1-.9.4-.5 1.1-.7 1.7-.6.7 0 1.3.3 1.8.7.3.3.3.8 0 1.1-.2.1-.4.2-.6.2z" fill="#263238"/><path d="m175 186.1c.3.2.6.5 1 .5.4-.1.8-.2 1.1-.4m.1-.1c-.2.5-.7.8-1.2.8s-.9-.3-1-.8c0 0 0-.1.1 0z" fill="#263238"/><path d="m175.6 182.8c.7.7 1.6 1.2 2.6 1.2.4 0 .9 0 1.3-.1l.2-.1.2-.1c.1 0 .2-.2.2-.3v-.1-.1c-.1-.8-.4-2-.4-2 .3.1 1.9.5 1.8.1-.7-3.6-1.7-7.1-3.1-10.5 0-.1-.1-.1-.1-.1s-.1.1-.1.1c.6 3.3 1.8 6.6 2.5 9.9-.6-.2-1.2-.2-1.8-.2-.1.1.6 2.3.6 2.7-1.3.4-2.7.2-3.9-.5 0-.1-.1 0 0 .1z" fill="#263238"/><path d="m179 183.5c-.3.6-.9 1.2-1.5 1.6-.3.2-.7.3-1.1.3-.9-.1-1-.9-1-1.5 0-.4.1-.7.2-1.1 1 .6 2.2.8 3.4.7z" fill="#263238"/><path d="m177.5 185.1c-.3.2-.7.3-1.1.3-.9-.1-1-.9-1-1.5.9-.2 1.8.3 2.1 1.2z" fill="#ff9abb"/><path d="m184.8 180.9s-.4 7.7-4.3 7.9c-2.3.1-3.9-2.1-3.9-2.1h-1.3s-1.9 4.5-6 2.6c-4.4-2-6.3-13.9-6.3-13.9s-1.1 5.4-3.4 5.6c.3 2.7.7 5.3 1.4 7.9.9 3.8 6.4 9.7 15 9.4 3.6-.1 8.4-5.4 8.8-9.2.3-2.8.3-5.5 0-8.2z" fill="#263238"/><path d="m161.3 178.7c2.4 0 2.7-5.6 2.7-5.6s6.1 1.5 6-6.6c0 0 7.2 2.2 11.6-.4 3.7-2.2 5.6-8.7 2.7-12.4-1.6-2.1-6.1-4-12.5 2.6 0 0-8.8-5.6-11.6 4.8 0 0-4.4.7-4.8 5-.7 6.8 3.8 12.7 5.9 12.6z" fill="#263238"/><path d="m170 165.9c0-.1 0-.1 0 0-.1-.1-.1 0-.1 0 .4 2 .9 4.1-.6 5.8-1.4 1.6-3.8 2.1-5.7 1.2-.1-.1-.2.1-.1.2 1.9.9 4.2.6 5.7-.8 1.9-1.7 1.7-4.2.8-6.4z" fill="#263238"/><path d="m161.5 177.5c-3.4-1.6-6.1-4.4-6.5-8.3-.3-1.9.2-3.8 1.2-5.4 1-1.4 2.6-2 4-2.8v-.1c-8.9 2.5-6.7 14.5 1.1 17 .1 0 .2-.1.3-.2-.1-.1-.1-.2-.1-.2z" fill="#263238"/><path d="m185.4 153.7c-3.9-5.2-11.2-1.4-13.9 3 2.5-3.3 7.8-6.6 11.8-4.2 4.9 2.9 3.1 11.6-2.3 12.6-.2 0-.1.3 0 .3 5.1-.5 7.3-7.9 4.4-11.7z" fill="#263238"/><path d="m162.7 179.7s-3.6-4.9-5.8-3.6.5 8.5 3.2 9.4c1.4.6 3 0 3.6-1.4v-.1z" fill="#eb9481"/><path d="m157.7 178.2c1.9.7 2.9 2.4 3.6 4.2-.4-.7-1.3-.9-2-.5-.1 0-.1.1-.2.1v.1c.7-.2 1.4 0 1.8.6.4.5.7.9.9 1.5.1.2.4.1.3-.1.1-2.5-1.8-5.8-4.4-5.9z" fill="#263238"/><path d="m173.2 198.1-4 8.8-10.6-11.8-3.3 3.5s10.1 18.5 10.2 17.7l4-7.6 5.1 5.6.1-13.5z" fill="#ebebeb"/><path d="m175.1 207.6c-.1-2.2 0-4.5-.2-6.7 0-.1-.1-.1-.1 0-.5 2.1-.3 10.7-.4 12.7-.2-.2-4.8-4.9-4.8-4.9-.9 1.2-3.8 6.7-4 7.2-1.6-2.9-7.8-13.6-9.7-16.4h-.1v.1c1.4 3.1 9.6 17.5 9.7 17.4 1.5-2.6 3-5.3 4.2-8 .8 1 5.3 6.3 5.3 6 .1-2.4.2-4.9.1-7.4z" fill="#263238"/><path d="m280.6 208.7h45.4c5.6 1.1 9.9 5.7 9.7 12.8-.1 3.1 0 6.2 0 9.3 0 .6 0 1.1-.2 1.7-.4 2-2.4 3.3-4.5 2.9-2-.4-3.3-1.9-3.3-4.3 0-3.6 0-7.1 0-10.7 0-2.5-1.5-4-4-4-4.8 0-9.7 0-14.5 0-.6 0-1.1 0-1.8 0 .2.1.2.2.3.2 3.6 1.5 5.1 4.3 5.1 8v54.4 1c0 .7.3.9 1 .9h10.4c1.6 0 2.9-1.1 3.4-2.6.2-.6.1-1.1.1-1.7 0-4.7 0-9.4 0-14.1 0-1.4.3-2.7 1.5-3.6 1.3-1 2.6-1.2 4.1-.5 1.6.8 2.3 2.2 2.3 3.9 0 4.9.1 9.9 0 14.8-.1 7.5-6.4 11.8-11.9 11.6-3.1-.1-6.3 0-9.5 0-1.5 0-1.5 0-1.5 1.5v2.1c-.2 5.4-5 9.1-10 7.5-7.8-2.5-15.5-5.1-23.3-7.7-3.1-1.1-5-3.9-5-7.2 0-22.9 0-45.7 0-68.6 0-.5 0-1 .1-1.5.8-3.3 3-5.2 6.1-6.1z" fill="#ffac1d"/><path d="m366 247.8c-.3.7-.6 1.3-1.2 1.9-5 5-10 10-15 15-1.1 1.1-2.4 1.5-3.8 1.2-1.7-.4-3-1.9-3-3.8 0-3.4 0-6.8 0-10.2 0-1.1 0-1.2-1.2-1.2-4.6 0-9.2 0-13.7 0-1.5 0-2.7-.5-3.6-1.8-.8-1.3-.9-2.6-.2-3.9s1.9-2.1 3.4-2.1h13.9c1.3 0 1.3 0 1.3-1.3 0-3.3 0-6.6 0-9.9 0-1.7.7-3 2.3-3.7s3.1-.4 4.4.8c5.1 5 10.2 10.1 15.2 15.2.5.5.8 1.1 1.1 1.6.1.7.1 1.5.1 2.2z" fill="#ffac1d"/></svg>