<svg viewBox="0 0 366.19 345.32" xmlns="http://www.w3.org/2000/svg"><ellipse cx="183.09" cy="324.19" fill="#ebebeb" rx="183.09" ry="21.13"/><path d="m30.2 155.84h1v18.49h-1z" fill="#7bb743" transform="matrix(.99741576 -.07184561 .07184561 .99741576 -11.78 2.63)"/><path d="m31.8 183.82h1v6.96h-1z" fill="#7bb743" transform="matrix(.99741576 -.07184561 .07184561 .99741576 -13.37 2.81)"/><path d="m264.13 268.63h-214.16c-4.84 0-9.09-3.96-9.44-8.81l-10.52-146.13c-.35-4.84 3.33-8.81 8.17-8.81h214.16c4.84 0 9.09 3.96 9.44 8.81l10.52 146.13c.35 4.84-3.33 8.81-8.17 8.81z" fill="#7bb743"/><path d="m264.95 268.63h-214.16c-4.84 0-9.09-3.96-9.44-8.81l-10.52-146.13c-.35-4.84 3.33-8.81 8.17-8.81h214.16c4.84 0 9.09 3.96 9.44 8.81l10.52 146.13c.35 4.84-3.33 8.81-8.17 8.81z" fill="#7bb743"/><path d="m264.95 268.63h-214.16c-4.84 0-9.09-3.96-9.44-8.81l-10.52-146.13c-.35-4.84 3.33-8.81 8.17-8.81h214.16c4.84 0 9.09 3.96 9.44 8.81l10.52 146.13c.35 4.84-3.33 8.81-8.17 8.81z" fill="#fff" opacity=".5"/><path d="m253.48 109.29h-214.16c-.24 0-.48 0-.72.03-5.47.45-4.36 8.78 1.17 8.78h214.52c5.53 0 5.44-8.33-.1-8.78-.24-.02-.48-.03-.72-.03z" fill="#7bb743"/><path d="m44.9 113.69c.08 1.12-.76 2.02-1.87 2.02s-2.08-.9-2.16-2.02c-.08-1.11.76-2.02 1.87-2.02s2.08.9 2.16 2.02z" fill="#fafafa"/><path d="m51.77 113.69c.08 1.12-.76 2.02-1.87 2.02s-2.08-.9-2.16-2.02c-.08-1.11.76-2.02 1.87-2.02s2.08.9 2.16 2.02z" fill="#fafafa"/><path d="m58.63 113.69c.08 1.12-.76 2.02-1.87 2.02s-2.08-.9-2.16-2.02c-.08-1.11.76-2.02 1.87-2.02s2.08.9 2.16 2.02z" fill="#fafafa"/><path d="m259.27 254.04h-204.9c-1.76 0-3.3-1.43-3.42-3.19l-8.65-120.17c-.13-1.76 1.2-3.19 2.96-3.19h204.9c1.76 0 3.3 1.43 3.42 3.19l8.65 120.17c.13 1.76-1.2 3.19-2.96 3.19z" fill="#fff"/><path d="m172.95 208.26-3.34-46.32-10.1-6.08h-27.81l3.78 52.4z" fill="#fff"/><path d="m172.95 208.75h-37.47c-.25 0-.47-.2-.48-.45l-3.77-52.4c0-.13.04-.27.13-.37s.22-.15.35-.15h27.8c.09 0 .17.02.25.07l10.11 6.08c.13.08.22.22.23.38l3.34 46.32c0 .13-.04.27-.13.36-.09.1-.22.15-.35.15zm-37.02-.97h36.5l-3.28-45.55-9.78-5.88h-27.15l3.7 51.43z" fill="#7bb743"/><path d="m169.61 161.94-10.1-6.08 3.71 8.06z" fill="#ececec"/><g fill="#7bb743"><path d="m163.22 164.4c-.18 0-.36-.11-.44-.28l-3.71-8.06c-.09-.19-.04-.42.12-.56s.39-.16.57-.05l10.11 6.08c.16.1.25.28.23.47s-.16.35-.34.4l-6.4 1.98s-.1.02-.14.02zm-2.61-7.32 2.88 6.24 4.96-1.53-7.83-4.71z"/><path d="m147.39 179.47c.08 1.17-.8 2.12-1.96 2.12s-2.19-.95-2.27-2.12.8-2.12 1.96-2.12 2.19.95 2.27 2.12z"/><path d="m161.12 179.47c.08 1.17-.8 2.12-1.96 2.12s-2.19-.95-2.27-2.12.8-2.12 1.96-2.12 2.19.95 2.27 2.12z"/><path d="m165 193.2c-.25 0-.46-.19-.48-.45-.25-3.4-5.58-6.17-11.9-6.17-4.18 0-7.94 1.24-9.81 3.25-.83.89-1.21 1.85-1.14 2.86.02.27-.18.5-.45.52s-.5-.18-.52-.45c-.09-1.27.39-2.51 1.4-3.59 2.04-2.19 6.07-3.56 10.52-3.56 6.93 0 12.58 3.11 12.87 7.07.02.27-.18.5-.45.52-.01 0-.02 0-.04 0z"/><path d="m139.59 175.18c-.12 0-.24-.04-.33-.13-.2-.18-.21-.49-.03-.68l2.12-2.29c.18-.2.49-.21.68-.03.2.18.21.49.03.68l-2.12 2.29c-.1.1-.23.16-.36.16z"/><path d="m164 175.18c-.12 0-.24-.04-.33-.13l-2.45-2.29c-.2-.18-.21-.49-.02-.68.18-.2.49-.21.68-.02l2.45 2.29c.2.18.21.49.02.68-.1.1-.22.15-.35.15z"/><path d="m128.68 218.62h2.26l3.26 4.33-.31-4.33h2.28l.56 7.83h-2.28l-3.24-4.3.31 4.3h-2.28z"/><path d="m137.75 222.54c-.09-1.28.19-2.27.85-2.99s1.63-1.07 2.9-1.07 2.33.35 3.09 1.05 1.18 1.68 1.27 2.94c.07.92-.03 1.67-.3 2.25-.27.59-.68 1.04-1.24 1.37s-1.27.49-2.14.49-1.62-.14-2.22-.42-1.1-.73-1.5-1.34-.64-1.37-.7-2.29zm2.42.01c.06.79.24 1.36.56 1.7.32.35.73.52 1.24.52s.91-.17 1.17-.51.36-.95.3-1.82c-.05-.74-.24-1.28-.56-1.62s-.74-.51-1.25-.51-.87.17-1.14.52-.38.92-.32 1.72z"/><path d="m150.57 218.62h3.6c.71 0 1.29.1 1.74.29s.83.47 1.14.83.55.78.71 1.26.26.98.3 1.52c.06.84.01 1.49-.15 1.95s-.39.85-.71 1.16-.66.52-1.05.62c-.52.14-1 .21-1.43.21h-3.6l-.56-7.83zm2.55 1.77.31 4.28h.59c.51 0 .86-.06 1.07-.17s.36-.31.46-.59.13-.73.08-1.36c-.06-.83-.24-1.4-.53-1.7-.29-.31-.75-.46-1.38-.46z"/><path d="m163.87 225.16h-2.75l-.29 1.29h-2.47l2.38-7.83h2.64l3.51 7.83h-2.53zm-.62-1.69-1.07-2.82-.65 2.82z"/><path d="m165.79 218.62h7.36l.14 1.93h-2.47l.42 5.9h-2.42l-.42-5.9h-2.47z"/><path d="m178.78 225.16h-2.75l-.29 1.29h-2.47l2.38-7.83h2.64l3.51 7.83h-2.53l-.48-1.29zm-.62-1.69-1.07-2.82-.65 2.82z"/></g><path d="m230.25.02-.4.1s.04-.09.07-.12z" fill="#263238"/><path d="m241.76 288.92h-.18v-.13z" fill="#f7a9a0"/><path d="m237.94 220.33-2.37 14.23-16.07 86.81h-2.6l11.69-86.81 1.73-14.23z" fill="#dbdbdb"/><path d="m230.32 220.33h7.62l-2.37 14.23h-6.98z" fill="#a6a6a6"/><path d="m288.43 321.37h-2.59l-16.08-86.81-2.37-14.23h7.62l1.73 14.23z" fill="#dbdbdb"/><path d="m275.01 220.33 1.73 14.23h-6.98l-2.37-14.23z" fill="#a6a6a6"/><path d="m336.65 321.37h-2.59l-16.08-86.81-2.37-14.23h7.62l1.73 14.23z" fill="#dbdbdb"/><path d="m324.96 234.56h-6.98l-2.37-14.23h7.62z" fill="#a6a6a6"/><path d="m332.54 227.01h-117.8v-12.41h44.1l14.82-64.65h54.39z" fill="#dbdbdb"/><path d="m332.54 227.01h-6.42l-4.19-77.06h6.12z" fill="#a6a6a6"/><path d="m213.35 331.47c2.22.28 62.88-13.87 64.85-15.78.24-.21-1.9-11.94-1.9-11.94-.95-4.79-17.48-43.83-17.48-43.83l-39.65 9.79 16.77 36.25s-7.56 5.12-14 10c-2.87 2.02-5.61 4.22-8.22 6.57-1.96 2.33-2.59 8.68-.37 8.94z" fill="#f7a9a0"/><path d="m278.2 315.69c-2 1.91-62.63 16.06-64.85 15.78s-1.59-6.61.33-8.92c2.61-2.35 5.35-4.55 8.22-6.57 6.49-4.88 14-10 14-10l-3.74-8.08 38.42-9.36c2.91 7.25 5.3 13.49 5.65 15.23.07-.02 2.21 11.71 1.97 11.92z" fill="#ebebeb"/><path d="m213.18 331.65c2.3.24 63.44-13.47 65.43-15.47.77-.74-.71-9.76-2.81-20.6 0-.11-.05-.22-.07-.33l-39.54 8.4.16.66s-21.05 15.7-23 18.13-2.47 8.98-.17 9.21z" fill="#ffc727"/><path d="m213.34 329.12c10.25-2.56 51.83-11.93 62.16-13.69.08 0 .1.05 0 .07-10.1 2.76-51.76 11.79-62.13 13.79-.21.04-.25-.11-.03-.17z" fill="#263238"/><path d="m231.82 304.74c3.89-1.66 9-2.15 12.73 0 .15.08 0 .29-.11.28-4.16-.39-8.35-.32-12.49.19-.15-.03-.24-.17-.22-.31.01-.06.04-.12.09-.16z" fill="#263238"/><path d="m229.29 307.16c3.89-1.66 9-2.15 12.73 0 .15.08 0 .29-.12.27-4.16-.38-8.34-.31-12.48.2-.15-.03-.24-.17-.22-.31.01-.06.04-.12.09-.16z" fill="#263238"/><path d="m226.76 309.59c3.88-1.67 9-2.16 12.73 0 .15.08 0 .28-.12.27-4.16-.38-8.34-.31-12.48.2-.15-.03-.24-.17-.22-.31.01-.06.04-.12.09-.16z" fill="#263238"/><path d="m227.68 302.45c3.36 1.59 7.3 1.66 10.93 2.15.28.02.52-.2.54-.48 0-.06 0-.12-.02-.17.06-.02.1-.09.08-.15 0 0 0-.01 0-.02-2.05-3.31-4.92-6.03-8.34-7.88-2-1-5.2-1.36-6.3 1.19s1.15 4.44 3.12 5.36zm-1.77-3c-1.71-4.28 3.59-3 5-2.19.93.55 1.82 1.17 2.67 1.84 1.74 1.41 3.41 2.91 5 4.49-1.77-.35-3.55-.54-5.33-.83-2.11-.36-6.39-.97-7.31-3.34z" fill="#263238"/><path d="m251.35 294.59c-1.55-2.31-4.63-1.41-6.42 0-3.02 2.44-5.35 5.64-6.75 9.26-.02.06 0 .12.06.14h.03c0 .32.28.66.64.55 3.47-1.15 7.33-1.93 10.36-4.11 1.76-1.29 3.54-3.68 2.08-5.85zm-7.53 7.13c-1.69.6-3.41 1.12-5.08 1.78 1.32-1.8 2.56-3.65 4.06-5.32.71-.81 1.48-1.58 2.29-2.29 1.28-1.08 6.26-3.29 5.36 1.24-.51 2.46-4.6 3.86-6.63 4.58z" fill="#263238"/><path d="m231.01 328.13c-9.61 2.1-17.06 3.6-17.83 3.52-2.3-.23-1.79-6.79.16-9.21 2.53-2.39 5.2-4.63 8-6.7z" opacity=".2"/><path d="m233.33 304.59 42.09-9.92s-35.13-80.51-32-84.6c1.54-2.05 40.73-2.65 53.19-13.21 16.19-13.71 5.33-34.67 5.33-34.67l-43.77-1.3s.53 9.14-1.18 10.52c-1.12.92-53.27 5.3-59 22.87-7.05 21.58 35.34 110.31 35.34 110.31z" fill="#37474f"/><path d="m233.34 298.11c1.1-.52 12-3.71 14.45-4.34 4.92-1.26 9.86-2.49 14.82-3.62 2.58-.59 8.12-1.88 8.46-1.82.16 0 .19.31 0 .35-4.8 1.59-9.67 2.93-14.54 4.28s-21.64 5.4-23.11 5.49c-.1.01-.24-.26-.08-.34z" fill="#263238"/><path d="m235.94 206.48c.99-.62 2.13-.97 3.3-1l18.95-3.18c5.92-1 11.86-1.87 17.74-3 4.87-.93 9.83-2.2 14-4.84 4.13-2.6 7.18-6.6 8.61-11.26 1.34-4.68 1.71-9.59 1.11-14.42-.11-1.18-.33-2.35-.55-3.51 0-.09.13-.12.15 0 1.6 9 1.74 19.37-5 26.51-3.31 3.41-7.77 5.46-12.31 6.81-5.24 1.34-10.56 2.37-15.92 3.1l-18.95 3.16c-3 .5-6.13.9-9.14 1.53-.61.07-1.19.33-1.65.73-.45.64-.55 1.46-.27 2.19.31 1.48.71 2.95 1.13 4.41 3.45 11.77 28.91 71.81 29.59 73.1.08.13-.14.24-.21.11-5.8-10.33-24.85-57.58-28.68-68.71-1.01-2.83-1.83-5.72-2.48-8.66-.27-1.09-.42-2.28.58-3.07z" fill="#263238"/><path d="m150.75 334.12c2.12.72 62.83-.14 65.14-1.62 2.53-2.4 3.6-59.67 3.6-59.67l-39.05-.33-2.44 41.09s-8.43 3.51-15.77 7c-3.22 1.41-6.35 3.02-9.37 4.81-2.36 1.93-4.23 8.03-2.11 8.72z" fill="#f7a9a0"/><path d="m218.43 306.7c-.58 12.87-1.41 24.74-2.54 25.8-2.31 1.48-63 2.34-65.14 1.62s-.25-6.79 2.1-8.67c3.02-1.79 6.15-3.4 9.37-4.81 7.34-3.49 15.77-7 15.77-7l.41-6.92z" fill="#ebebeb"/><path d="m149.5 334.17c2.2.72 64.86.42 67.24-1.1.91-.57 1.4-9.69 1.67-20.73v-.34l-40.43-.26v.69s-23.94 10.83-26.38 12.78-4.29 8.24-2.1 8.96z" fill="#ffc727"/><path d="m150.2 331.74c10.56-.31 53.19-.57 63.66-.07.08 0 .08.06 0 .06-10.47.54-53.09.45-63.66.18-.26 0-.26-.17 0-.17z" fill="#263238"/><path d="m173.49 311.88c4.15-.8 9.24-.18 12.43 2.76.12.11 0 .29-.18.24-3.98-1.26-8.08-2.09-12.23-2.48-.14 0-.26-.11-.27-.25s.11-.26.25-.27z" fill="#263238"/><path d="m170.5 313.7c4.15-.8 9.24-.18 12.43 2.76.12.11 0 .29-.18.24-3.98-1.26-8.08-2.09-12.24-2.48-.14 0-.26-.11-.26-.26 0-.14.11-.26.25-.26z" fill="#263238"/><path d="m167.5 315.52c4.16-.8 9.24-.18 12.43 2.76.13.11 0 .29-.17.24-3.98-1.26-8.08-2.09-12.24-2.48-.14 0-.26-.11-.27-.25s.11-.26.25-.27z" fill="#263238"/><path d="m169.94 308.75c2.95 2.27 6.78 3.19 10.22 4.44.28.07.56-.1.63-.37.01-.05.02-.1.02-.15.06 0 .11-.05.11-.11 0-.01 0-.03 0-.04-1.28-3.67-3.51-6.94-6.45-9.48-1.74-1.45-4.79-2.44-6.41-.19s.16 4.58 1.89 5.9zm-1.07-3.33c-.76-4.55 4.15-2.18 5.39-1.07.79.74 1.53 1.53 2.21 2.37 1.39 1.75 2.69 3.57 3.89 5.45-1.65-.72-3.35-1.29-5-1.94-2.03-.79-6.09-2.3-6.5-4.81z" fill="#263238"/><path d="m194.74 306.13c-1-2.59-4.21-2.37-6.26-1.39-3.48 1.74-6.44 4.36-8.58 7.6-.04.05-.02.12.03.15.01 0 .02.01.03.02-.08.27.07.55.34.64.05.02.11.02.16.02 3.64-.37 7.58-.31 11-1.79 1.99-.86 4.25-2.79 3.28-5.25zm-8.88 5.35c-1.78.23-3.57.37-5.35.66 1.68-1.48 3.29-3 5.11-4.33.87-.65 1.78-1.23 2.73-1.75 1.48-.78 6.82-1.87 5 2.35-1.05 2.33-5.36 2.81-7.49 3.07z" fill="#263238"/><path d="m175.83 312.21h44.05s-.56-79.47 2.89-83.88c4.6-5.88 69-5.74 82.81-24.91 12.4-17.21 1.93-41.58 1.93-41.58l-48.76-1.44c1.1 5.22 2.61 10.35 4.52 15.33 0 0-58.75 10.86-75.21 28.86-11.12 12.13-12.23 107.62-12.23 107.62z" fill="#37474f"/><path d="m254.69 172.42c1.42.3 2.8.75 4.13 1.32 1.4.53 2.78 1.14 4.13 1.79 2.65 1.32 5.22 2.77 7.71 4.36.08.05 0 .16-.07.12-2.64-1.37-5.37-2.6-8.1-3.78l-3.94-1.64c-1.36-.52-2.7-1.11-4-1.76-.15-.14-.05-.45.14-.41z" fill="#263238"/><path d="m257.61 160.39c.56 2.23 1.05 4.47 1.69 6.67.29 1 .58 2 1 3 .32.83.81 1.77 1.77 2 1.11.21 1.42-.73 1.33-1.65s-.36-2-.56-3c-.23-1.16-.47-2.31-.68-3.47-.1-.58-.21-1.16-.31-1.74 0-.14-.13-1.25-.21-1.57 0 0 0 .05-.06.05s-.07-.03-.07-.06c-.02-.06 0-.13.06-.16.03-.02.07-.02.1 0 .21.11.22.4.29.62.18.56.37 1.12.53 1.69.31 1.06.61 2.12.88 3.19s.53 2.15.8 3.22c.27.79.35 1.64.21 2.47-.21.81-.92 1.38-1.75 1.42.05.07.09.14.12.22.1.22.17.45.25.67s.16.46.23.7c.03.11.05.23.06.34v.39c0 .13-.25.32-.35.12s-.14-.2-.21-.31-.11-.25-.16-.37-.14-.45-.19-.68-.13-.45-.17-.67 0-.28 0-.41c-.46-.04-.91-.21-1.28-.49-.63-.52-1.09-1.22-1.33-2-.34-.93-.6-1.89-.86-2.83-.68-2.34-1.16-4.74-1.42-7.17-.13-.35.23-.45.29-.19z" fill="#263238"/><path d="m286.61 165.84c.21 1.1.33 2.21.59 3.31s.54 2.14.89 3.18c.32 1.01.77 1.98 1.36 2.86.61.84 1.34 1.58 2.16 2.2 1.58 1.25 3.34 2.23 5.23 2.91.95.34 1.92.63 2.9.85.51.11 1 .2 1.55.27.43.01.86.11 1.25.29.12.07.16.22.09.34-.02.04-.05.07-.09.09-.75.23-1.55.25-2.31.07-.83-.08-1.66-.22-2.47-.43-1.64-.44-3.22-1.12-4.67-2-1.47-.83-2.79-1.91-3.9-3.19-1.04-1.34-1.75-2.91-2.09-4.57-.52-2.03-.74-4.12-.68-6.21.04-.05.11-.06.15-.02.02.01.03.03.04.05z" fill="#263238"/><path d="m213.54 257.09c.43-6.91 1-13.82 1.72-20.71.18-1.7.35-3.4.56-5.1.12-1.32.41-2.62.86-3.87 1-2.59 3.17-3.9 5.78-4.56 3.08-.78 6.27-1.24 9.4-1.75s6.42-1 9.64-1.43c6.51-.91 13-1.74 19.51-2.83 6.47-1.03 12.86-2.47 19.15-4.31 5.76-1.74 11.67-3.89 16.28-7.88 9.93-8.59 10.29-23 9.08-35-.17-1.7-.38-3.4-.59-5.1 0-.09.13-.12.14 0 .79 6.79 1.7 13.61 1 20.45-.43 5.65-2.3 11.1-5.42 15.83-3.36 4.81-8.34 7.92-13.71 10.09-5.92 2.29-12.04 4.05-18.27 5.26-12.87 2.69-26 3.83-38.95 6.05-1.6.27-3.19.56-4.78.87-1.48.22-2.93.6-4.32 1.15-2.94 1.32-3.75 4.18-4.11 7.13-.85 6.86-1.42 13.77-1.92 20.66-1 13.9-1.53 27.86-1.51 41.8v9.22c0 .15-.23.14-.23 0-.37-14.03-.19-32.04.69-45.97z" fill="#263238"/><path d="m177.94 305.31c10.05-.69 38.66-.41 39-.27.1.05.14.17.09.27-.02.04-.05.07-.09.09-5.05.36-37.46.53-38.91.26-.25-.07-.31-.34-.09-.35z" fill="#263238"/><path d="m262.94 175.88c-9 1.08-17.9 2.9-26.6 5.45-8.77 2.45-17.34 5.55-25.65 9.26-4.67 2.1-9.18 4.44-13.66 6.9-.09.05 0 .18.08.13 8.09-4.17 16.44-7.81 25-10.89 8.49-3.09 17.17-5.61 26-7.53 5-1.08 10-1.92 15-2.76.28-.03.19-.6-.17-.56z" fill="#263238"/><path d="m220.06 246.12c.31-4.79.81-9.57 1.59-14.3.32-1.92.41-4.39 2.41-5.34.93-.44 19.6-3.68 22.27-3.63.07 0 .13.04.13.11 0 .05-.02.1-.07.12-.24.11-18 3.47-20.23 4-.97.07-1.88.54-2.5 1.29-.42.97-.68 2.01-.75 3.07-1.5 9.3-2.32 18.69-2.48 28.1-.07 2.6-.11 5.21-.13 7.81s.09 5.38-.11 8.05c0 .12-.1.22-.22.22s-.22-.1-.22-.22c-.2-2.43-.13-4.89-.14-7.33s0-4.88 0-7.32c.01-4.89.13-9.77.45-14.63z" fill="#263238"/><path d="m221.21 84.98 10.85 26.69c.33.44.25 1.07-.19 1.4-.15.11-.32.18-.51.2l-14.28 2c-.9.06-1.74-.41-2.18-1.19l-10.86-26.69c-.33-.44-.25-1.07.19-1.4.15-.11.33-.18.52-.2l14.27-2c.9-.06 1.75.41 2.19 1.19z" fill="#37474f"/><path d="m219.51 85.21 10.85 26.68c.41.77.1 1.49-.7 1.6l-14.27 2c-.9.06-1.75-.4-2.19-1.19l-10.85-26.71c-.41-.77-.1-1.49.7-1.6l14.27-2c.9-.05 1.76.43 2.19 1.22z" fill="#455a64"/><path d="m215.77 87.02c.11.67.74 1.12 1.41 1.02s1.12-.74 1.02-1.41c-.11-.67-.74-1.12-1.41-1.02 0 0-.01 0-.02 0-.66.12-1.1.75-1 1.41z" fill="#263238"/><path d="m273.1 120.41c-5.5 18.38-20.28 43.4-27.76 44.62-3.56.58-9.8 2.38-15.09-1-11.54-7.42-22.63-23.24-25.84-32.77-1.14-3.39 14.68-13.46 17.6-11 6.85 5.76 15.6 17.77 16.63 17.54 3.79-.87 16.92-15.6 26.08-26 11.11-12.54 10.57 1.28 8.38 8.61z" fill="#f7a9a0"/><path d="m201.31 113.32c.73-7.33 2.05-9.1-.62-15.63-1.75-4.28.23-7.23 3.91-4.14 6 5.06 7.06 14.73 6.46 18.18z" fill="#f7a9a0"/><path d="m205.69 134.16s-4.62-9.38-4.61-17.27c0-5.46 1.35-17.34 15.39-25.6 3.34-2 9.47-2.39 5.19 2.79-3 3.67-6.07 5.09-7.45 7.55 0 0 7.87.38 9.7 3.79 1.6 2.99 2.99 6.08 4.15 9.27-.53.34-1.09.65-1.66.93 0 0 1.62 3.25-.19 8.47z" fill="#f7a9a0"/><path d="m201.94 111.68c1.88-2.16 5.95-6.65 10.56-9.17 5.12-2.8 15.74-6.81 17.77-3 1.49 2.78-2.43 4.67-2.43 4.67s4.73-.73 5.53 2.08c.72 2.56-2.4 3.84-2.4 3.84s2.95.05 3.17 2.65c.26 3.13-6 2.51-8.43 5.92-.58.75-23.77-6.99-23.77-6.99z" fill="#f7a9a0"/><path d="m214.54 108.41c3.85-2.74 8.44-4.24 13.17-4.3.12 0 .19.09.08.11-4.56.87-9 2.29-13.22 4.24z" fill="#263238"/><path d="m217.51 113.5c4.08-2.36 8.72-3.57 13.43-3.51.12 0 .18.1.07.12-4.61.64-9.13 1.81-13.47 3.48 0 0-.05-.08-.03-.09z" fill="#263238"/><path d="m205.32 138.45s18 25.32 26.54 27.28 13.27.53 16.2-.37c1.12-.44 2.12-1.12 2.94-2 7.27-7 18.74-29.74 22.92-42.17 3.14-9.34 1.46-17.12-4.88-13.58-2.12 1.31-4.02 2.96-5.61 4.89-10.8 12.21-23.67 24.23-24.4 24s-9.54-10.44-9.54-10.44z" fill="#ffc727"/><path d="m205.32 138.45s18 25.32 26.54 27.28 13.27.53 16.2-.37c1.12-.44 2.12-1.12 2.94-2 7.27-7 18.74-29.74 22.92-42.17 3.14-9.34 1.46-17.12-4.88-13.58-2.12 1.31-4.02 2.96-5.61 4.89-10.8 12.21-23.67 24.23-24.4 24s-9.54-10.44-9.54-10.44z" opacity=".2"/><path d="m209.51 142.92c.84-.65 9-5.34 10.84-6.32s9.13-5.06 11.07-5.92c.04-.02.08 0 .1.03s0 .08-.03.1c-1.74 1.2-9.12 5.34-10.94 6.37s-10 5.5-11 5.87c-.07.03-.1-.08-.04-.13z" fill="#263238"/><path d="m253.28 172.07c1.29 1.43 59.78 11.71 60.1 11.34.86-1-6.26-57.09-28.52-77.8-3.92-3.65-11-2.73-14.24-.93-1.64.9-7.3 8.86-9 15.84s-9.14 50.64-8.34 51.55z" fill="#ffc727"/><path d="m302.52 135.26-43.29-2.67c.19-1.06.37-2.07.55-3l41.53 2.59c.42.97.82 2.02 1.21 3.08z" fill="#37474f"/><path d="m304.73 141.59-46.58-2.92c.19-1 .36-2.05.54-3l45 2.82c.35.97.7 2.02 1.04 3.1z" fill="#37474f"/><path d="m288.78 106.97c19.84 10.07 42.61 32.81 41.28 40.37-1.49 8.43-30-5.81-29.71-7.07.25-1.08-5.74-10.13-14.3-23.1-8.71-13.19-2.18-12.69 2.73-10.2z" fill="#ffc727"/><path d="m288.78 106.97c19.84 10.07 42.61 32.81 41.28 40.37-1.49 8.43-30-5.81-29.71-7.07.25-1.08-5.74-10.13-14.3-23.1-8.71-13.19-2.18-12.69 2.73-10.2z" opacity=".2"/><path d="m330.06 147.34c-1.74 5.89-10.52 9.83-31.68 21.84-2.93 1.66-20.22-15.86-17.18-17.79 3.83-2.44 19.2-11.07 20.4-11.56 10.15-4.12 29.64 3.52 28.46 7.51z" fill="#f7a9a0"/><path d="m285.39 148.84s-9.11 4.66-13.14 8.58c-4.09 4.19-7.1 9.31-8.77 14.92-1.82 6.05-2.05 21.93 2.52 22.79 4.12.79 3.54-15.46 3.54-15.46s-2.14 16.66 3 16.69 3.4-18.77 3.4-18.77-1.81 17.17 3.5 16.35c4-.61 3.39-17.74 3.39-17.74s-1.45 14.76 2.7 14.31c4.59-.5 5-16.35 5-16.35 10.37-2.93 14.11-8.57 16.29-12.89.53-1.07-21.43-12.43-21.43-12.43z" fill="#f7a9a0"/><path d="m269.94 173.86c-.32 2-.66 3.92-.81 5.89s-.23 3.95-.19 5.92c0 2.58.29 5.15.87 7.67-.7-4.54-.29-11.6-.14-13.57s.2-3.94.34-5.91c-.02-.05-.07-.05-.07 0z" fill="#263238"/><path d="m277.03 174.26c-.3 2.51-.69 5-.89 7.5s-.15 4.91-.17 7.42c0 .19.1.13.11-.06.12-2.51.43-4.83.57-7.34s.2-5 .44-7.51h-.06z" fill="#263238"/><path d="m283.21 173.51c-.56 3.83-.72 7.71-.48 11.57 0 .19.13.1.13-.1.09-3.85.13-6.87.48-11.45 0-.07-.12-.1-.13-.02z" fill="#263238"/><path d="m280.84 149.34s24.38 18.57 24.64 18.47 24.2-14.15 24.58-20.47-19.44-11-28.44-7.55-20.78 9.55-20.78 9.55z" fill="#ffc727"/><path d="m280.84 149.34s24.38 18.57 24.64 18.47 24.2-14.15 24.58-20.47-19.44-11-28.44-7.55-20.78 9.55-20.78 9.55z" opacity=".2"/><path d="m289.1 146.65c.95.58 8.65 6.78 10.29 8.16s8.42 7 10 8.54c.03.03.02.09-.01.11-.02.02-.06.02-.09 0-1.83-1.24-8.68-6.86-10.38-8.24s-9.18-7.67-9.9-8.47c-.07-.07.03-.17.09-.11z" fill="#263238"/><path d="m312.46 138.85c-2.09-.33-7.85-.81-12.52 1.53-.05 0 0 .09 0 .07 4.05-1.19 8.26-1.7 12.47-1.53.08 0 .1-.06.05-.07z" fill="#263238"/><path d="m268.47 105.53c-2.48 2.21-3.39 9.56 1.38 11s11.36-6.31 12.13-10.53-8.04-5.41-13.51-.47z" fill="#37474f"/><path d="m269.86 114.59c3.41.75 9.14-4.53 11.37-8.76.16-.29-1.23-11.78-1.27-14.09 0-.47-14.42 3.76-14.42 3.76.87 2.87 1.39 5.83 1.55 8.82 0 .38-.52 9.59 2.77 10.27z" fill="#f7a9a0"/><path d="m279.51 91.78c-.67 3.73-3.16 13.43-11 13.75-.47.02-.94 0-1.41-.06v-1.11c-.17-2.98-.69-5.92-1.56-8.77l.24-.07c.1 0 .24-.07.4-.12l.16-.05.32-.09.4-.12.67-.19.25-.07.52-.15 2-.58.78-.22 1-.28 1-.27h.13l1.68-.46.56-.15 1.07-.28.72-.18 1.41-.33.31-.06z" fill="#263238"/><path d="m279.61 74.03c2.25 4.87 1.58 19.91-1.59 23.68-4.59 5.46-13.11 7.09-18 1.35-4.75-5.56-3.54-25.15.09-28.68 5.34-5.2 16.17-3.54 19.5 3.65z" fill="#f7a9a0"/><path d="m266.24 84.92s.08 0 .07.09c-.07 1 0 2.18.92 2.56 0 0 0 .06 0 .05-1.12-.2-1.22-1.76-.99-2.7z" fill="#263238"/><path d="m267.19 83.9c1.63-.06 1.63 3.21.11 3.26s-1.49-3.21-.11-3.26z" fill="#263238"/><path d="m260.63 85.07s-.08.05-.08.09c0 1-.1 2.18-1 2.52 0 0 0 .06 0 0 1.11-.09 1.27-1.66 1.08-2.61z" fill="#263238"/><path d="m259.72 84.01c-1.63-.12-1.76 3.15-.25 3.26s1.62-3.16.25-3.26z" fill="#263238"/><path d="m268.48 82.4c-.43-.12-.86-.27-1.27-.45-.47-.1-.89-.34-1.21-.7-.16-.27-.11-.62.11-.84.51-.36 1.17-.43 1.74-.18.6.17 1.12.57 1.45 1.1.19.36.06.81-.3 1-.16.08-.34.11-.52.07z" fill="#263238"/><path d="m258.46 83.46c.45-.08.86-.22 1.3-.34.48-.05.92-.26 1.26-.6.19-.25.19-.59 0-.84-.47-.41-1.12-.54-1.71-.32-.62.13-1.17.48-1.54 1-.2.36-.07.81.28 1.01.12.07.26.1.41.09z" fill="#263238"/><path d="m267.44 94.32c-.24.23-.48.56-.85.59-.38 0-.75-.09-1.09-.25m-.05.05c.3.4.79.62 1.29.55.42-.11.74-.47.8-.9.02-.06-.06-.08-.1-.04z" fill="#263238"/><path d="m266.38 91.28c-.52.81-1.36 1.37-2.31 1.54-.41.08-.83.09-1.25.05h-.46c-.11-.03-.19-.12-.2-.23s0-.07 0-.11v-.09c0-.78.06-2 .06-2-.29.14-1.74.8-1.72.39.09-3.52.54-7.02 1.34-10.45 0-.11.2-.09.19 0-.07 3.26-.71 6.48-.83 9.74.52-.24 1.07-.4 1.64-.49.11 0-.19 2.29-.15 2.64 1.29.13 2.59-.27 3.58-1.11.09-.03.17.04.11.12z" fill="#263238"/><path d="m263.29 92.48c.43.56.99.99 1.64 1.27.36.13.75.16 1.12.07.81-.21.83-1 .68-1.59-.08-.35-.2-.68-.36-1-.87.73-1.95 1.17-3.08 1.25z" fill="#263238"/><path d="m264.94 93.75c.36.13.75.16 1.12.07.81-.21.83-1 .68-1.59-.88.03-1.62.66-1.8 1.52z" fill="#ff99ba"/><path d="m258.27 76.47c5.31 3.33 12.15-2.31 12.15-2.31 1 2.27 3.37 3.62 5.84 3.32 0 0 1.37 8.68 3.67 8.57 3.51-.17 4.11-12.11 2.91-14.4s-4.21-2.77-4.21-2.77c-.38-1.41-1.29-2.61-2.53-3.37-2.47-1.74-10.64 1.07-10.64 1.07-.52-1.09-1.28-2.03-2.23-2.77-.95-.75-2.32-.59-3.08.35-.01.02-.03.04-.04.06.47.63.78 1.35.93 2.12.52 2.54-1.57 2.62-1.64.3-.06-.87.19-1.72.71-2.42-1.09-1.47-2.79-1.89-3.78-1-1.8 1.51-2.47 10.49 1.94 13.25z" fill="#263238"/><path d="m278.11 86.42s2.78-5.15 5.08-4.21.6 8.12-1.83 9.36c-1.23.74-2.83.33-3.56-.9-.02-.03-.04-.06-.06-.1z" fill="#f7a9a0"/><path d="m282.65 84.32c-1.7.93-2.44 2.69-2.9 4.47.33-.73 1.18-1.06 1.92-.73.06.03.12.06.17.09.03 0 .05.02.05.05s-.02.05-.05.05c-.66-.12-1.33.18-1.68.76-.28.48-.5.98-.67 1.51-.06.17-.36.12-.32-.07v-.05c-.32-2.26 1.07-5.63 3.48-6.15z" fill="#263238"/></svg>