<svg width="2" height="2" viewBox="0 0 2 2" fill="none" xmlns="http://www.w3.org/2000/svg">
<path d="M0.476349 0.897727V0.522727H0.539986V0.897727H0.476349ZM0.320668 0.742045V0.678409H0.695668V0.742045H0.320668ZM1.02528 1.00795C1.00142 1.00758 0.977557 1.00303 0.953693 0.994318C0.92983 0.985606 0.908049 0.970928 0.888352 0.950284C0.868655 0.929451 0.852841 0.901326 0.840909 0.865909C0.828977 0.830303 0.823011 0.785606 0.823011 0.731818C0.823011 0.680303 0.827841 0.634659 0.8375 0.594886C0.847159 0.554924 0.861174 0.521307 0.879545 0.494034C0.897917 0.466572 0.920076 0.445739 0.946023 0.431534C0.972159 0.417329 1.00161 0.410227 1.03437 0.410227C1.06695 0.410227 1.09593 0.416761 1.12131 0.429829C1.14688 0.442708 1.16771 0.460701 1.18381 0.483807C1.19991 0.506913 1.21032 0.533523 1.21506 0.563636H1.14574C1.1393 0.5375 1.1268 0.515814 1.10824 0.49858C1.08968 0.481345 1.06506 0.472727 1.03437 0.472727C0.989299 0.472727 0.953788 0.492329 0.927841 0.531534C0.902083 0.570739 0.88911 0.625758 0.88892 0.696591H0.893466C0.904072 0.680492 0.916667 0.666761 0.93125 0.655398C0.946023 0.643845 0.962311 0.634943 0.980114 0.628693C0.997917 0.622443 1.01676 0.619318 1.03665 0.619318C1.06998 0.619318 1.10047 0.627651 1.12812 0.644318C1.15578 0.660795 1.17794 0.683617 1.1946 0.712784C1.21127 0.741761 1.2196 0.775 1.2196 0.8125C1.2196 0.848485 1.21155 0.881439 1.19545 0.911364C1.17936 0.941098 1.15672 0.964773 1.12756 0.982386C1.09858 0.999811 1.06449 1.00833 1.02528 1.00795ZM1.02528 0.945455C1.04915 0.945455 1.07055 0.939489 1.08949 0.927557C1.10862 0.915625 1.12367 0.899621 1.13466 0.879545C1.14583 0.85947 1.15142 0.837121 1.15142 0.8125C1.15142 0.788447 1.14602 0.766572 1.13523 0.746875C1.12462 0.726989 1.10994 0.711174 1.09119 0.699432C1.07263 0.687689 1.05142 0.681818 1.02756 0.681818C1.00956 0.681818 0.992803 0.685417 0.977273 0.692614C0.961742 0.699621 0.948106 0.70928 0.936364 0.721591C0.924811 0.733901 0.91572 0.748011 0.909091 0.76392C0.902462 0.77964 0.899148 0.796212 0.899148 0.813636C0.899148 0.836742 0.904545 0.858333 0.915341 0.878409C0.926326 0.898485 0.941288 0.914678 0.960227 0.926989C0.979356 0.939299 1.00104 0.945455 1.02528 0.945455ZM1.33132 1V0.948864L1.52337 0.738636C1.5459 0.714015 1.56446 0.692614 1.57905 0.674432C1.59363 0.656061 1.60443 0.638826 1.61143 0.622727C1.61863 0.606439 1.62223 0.589394 1.62223 0.571591C1.62223 0.551136 1.61731 0.533428 1.60746 0.518466C1.5978 0.503504 1.58454 0.491951 1.56768 0.483807C1.55083 0.475663 1.53189 0.471591 1.51087 0.471591C1.48852 0.471591 1.46901 0.476231 1.45234 0.485511C1.43587 0.494602 1.42308 0.507386 1.41399 0.523864C1.40509 0.540341 1.40064 0.559659 1.40064 0.581818H1.33359C1.33359 0.547727 1.34145 0.517803 1.35717 0.492045C1.37289 0.466288 1.39429 0.446212 1.42138 0.431818C1.44865 0.417424 1.47924 0.410227 1.51314 0.410227C1.54723 0.410227 1.57744 0.417424 1.60376 0.431818C1.63009 0.446212 1.65073 0.465625 1.6657 0.490057C1.68066 0.514489 1.68814 0.541667 1.68814 0.571591C1.68814 0.592992 1.68426 0.61392 1.67649 0.634375C1.66892 0.65464 1.65566 0.677273 1.63672 0.702273C1.61797 0.727083 1.59193 0.757386 1.55859 0.793182L1.42791 0.932955V0.9375H1.69837V1H1.33132Z" fill="#636363"/>
</svg>
