<svg enable-background="new 0 0 500 500" viewBox="0 0 500 500" xmlns="http://www.w3.org/2000/svg"><path d="m240.2 72.8h-169c-9.5.1-17.2 7.9-17.1 17.4v348c-.1 9.5 7.6 17.3 17.1 17.4h169.1c9.5-.1 17.2-7.9 17.1-17.4v-348c0-9.5-7.6-17.3-17.2-17.4zm6.5 354.7c0 9.2-6.9 16.6-15.3 16.6h-151.3c-8.5 0-15.3-7.4-15.3-16.6v-324.1c0-18.7 6.9-19.6 15.3-19.6h30.3c1.8 0 3.2 2 3.2 4.5v1.1c0 5.8 3.2 5.8 7.1 5.8h70.1c3.9 0 7.1 0 7.1-5.8v-1.1c0-2.5 1.4-4.5 3.3-4.5h30.3c8.5 0 15.3 2.5 15.3 19.6z" fill="#263238"/><path d="m246.7 103.4v324.1c0 9.2-6.9 16.6-15.3 16.6h-151.3c-8.5 0-15.3-7.4-15.3-16.6v-324.1c0-18.7 6.9-19.6 15.3-19.6h30.3c1.8 0 3.2 2 3.2 4.5v1.1c0 5.8 3.2 5.8 7.1 5.8h70.1c3.9 0 7.1 0 7.1-5.8v-1.1c0-2.5 1.4-4.5 3.3-4.5h30.3c8.3 0 15.2 2.5 15.2 19.6z" fill="#fff"/><path d="m246.7 103.4v28.9h-181.9v-28.9c0-18.7 6.9-19.6 15.3-19.6h30.3c1.8 0 3.2 2 3.2 4.5v1.1c0 5.8 3.2 5.8 7.1 5.8h70.1c3.9 0 7.1 0 7.1-5.8v-1.1c0-2.5 1.4-4.5 3.3-4.5h30.3c8.3 0 15.2 2.5 15.2 19.6z" fill="#7bb743"/><path d="m105.2 91.1-.3.3-.2.2c-1.6-1.6-4.1-1.6-5.6 0l-.2-.2c-.1-.1-.2-.2-.3-.3l.4-.3c.3-.2.5-.4.8-.5.4-.2.8-.3 1.2-.4.2 0 .4-.1.6-.1h.5.4c.3 0 .7.1 1 .2.2.1.5.2.7.3s.5.3.7.5z" fill="#fff"/><path d="m100 92.4-.5-.4c1.3-1.3 3.4-1.3 4.7 0l-.5.5c-1-1.1-2.7-1.1-3.7-.1z" fill="#fff"/><path d="m103.3 92.9-.5.5c-.5-.5-1.4-.5-1.9 0l-.5-.5c.8-.8 2.1-.8 2.9 0z" fill="#fff"/><path d="m102.3 93.8c0 .2-.2.4-.4.4s-.4-.2-.4-.4c0-.2.2-.4.4-.4.2 0 .4.2.4.4z" fill="#fff"/><path d="m76.6 92c0-.7.5-1.2 1.2-1.2s1.2.5 1.2 1.2-.5 1.2-1.2 1.2c-.6 0-1.2-.6-1.2-1.2z" fill="#fff"/><path d="m80.4 92c0-.7.5-1.2 1.2-1.2s1.2.5 1.2 1.2-.5 1.2-1.2 1.2c-.6 0-1.2-.6-1.2-1.2z" fill="#fff"/><path d="m84.2 92c0-.7.5-1.2 1.2-1.2s1.2.5 1.2 1.2-.5 1.2-1.2 1.2c-.6 0-1.2-.6-1.2-1.2z" fill="#fff"/><path d="m88 92c0-.7.5-1.2 1.2-1.2s1.2.5 1.2 1.2-.5 1.2-1.2 1.2c-.6 0-1.2-.6-1.2-1.2z" fill="#fff"/><path d="m91.8 92c0-.7.5-1.2 1.2-1.2s1.2.5 1.2 1.2-.5 1.2-1.2 1.2c-.6 0-1.2-.6-1.2-1.2z" fill="#fff"/><path d="m233 94.6h-9.8v-4.6h9.8zm-9.3-.5h8.8v-3.5h-8.8z" fill="#fff"/><path d="m224 90.8h6.3v3h-6.3z" fill="#fff"/><path d="m233 91.1h.9v2.4h-.9z" fill="#fff"/><path d="m82 121.5-5.4-5 5.4-5 .8.9-4.4 4.1 4.4 4.1z" fill="#fff"/><path d="m228.9 119.2h-9.1l-2.3-9.2h-.9v-.8h1.5l.4 1.8h12.6zm-8.5-.7h7.9l1.8-6.6h-11.3z" fill="#fff"/><path d="m227.4 120.7-.6-1.5h-5.2l-.5 1.5-.7-.3.7-2h6.2l.8 2z" fill="#fff"/><path d="m218.7 112.9h11.3v.8h-11.3z" fill="#fff"/><path d="m224 110.1h.8v10.2h-.8z" fill="#fff" transform="matrix(.00436331 -1 1 .00436331 108.2426 339.1259)"/><path d="m219.8 116.8h9.3v.8h-9.3z" fill="#fff"/><path d="m223.9 111.5h.8v7.3h-.8z" fill="#fff"/><path d="m222.3 114.8h7.3v.8h-7.3z" fill="#fff" transform="matrix(.0793291 -.9968 .9968 .0793291 93.2138 331.3109)"/><path d="m223.5 115.5h7.4v.8h-7.4z" fill="#fff" transform="matrix(.1807 -.9835 .9835 .1807 72.2016 318.4119)"/><path d="m222.2 111.5h.8v7.3h-.8z" fill="#fff" transform="matrix(.9968 -.07985098 .07985098 .9968 -8.4879 18.1418)"/><path d="m220.4 111.5h.8v7.4h-.8z" fill="#fff" transform="matrix(.9835 -.1809 .1809 .9835 -17.1934 41.828)"/><path d="m227.7 121.8c-.7 0-1.2-.6-1.2-1.2s.6-1.2 1.2-1.2c.7 0 1.2.6 1.2 1.2s-.5 1.2-1.2 1.2zm0-1.7c-.3 0-.5.2-.5.5 0 .2.2.5.4.5.3 0 .5-.2.5-.5.1-.3-.1-.5-.4-.5z" fill="#fff"/><path d="m220.8 121.8c-.7 0-1.2-.5-1.2-1.2s.5-1.2 1.2-1.2 1.2.5 1.2 1.2c0 .6-.5 1.2-1.2 1.2zm0-1.7c-.3 0-.5.2-.5.5s.2.5.5.5.5-.2.5-.5-.2-.5-.5-.5z" fill="#fff"/><circle cx="230.6" cy="109.1" fill="#455a64" r="3.3"/><path d="m231.1 107.2v3.7c0 .2-.2.3-.3.3-.2 0-.3-.1-.3-.3v-3l-.2.1c-.1 0-.1 0-.2 0s-.2-.1-.3-.2-.1-.3.1-.4l.8-.4h.2v.1z" fill="#fff"/><path d="m145.7 116.4c0-1.6 1.3-2.9 2.9-2.9.7 0 1.3.2 1.9.6.2.2.2.4.1.6-.2.2-.4.2-.6.1-.4-.3-.8-.4-1.3-.4s-1 .2-1.4.6-.6.9-.6 1.4.2 1 .6 1.4.9.6 1.4.6.9-.2 1.3-.4c.2-.2.5-.2.7 0s.2.5 0 .7c0 0-.1.1-.1.1-1.3 1-3.2.7-4.2-.6-.5-.7-.7-1.3-.7-1.8z" fill="#fff"/><path d="m154.8 117.9h-1.9l-.4 1c-.1.2-.2.3-.4.3h-.1c-.2-.1-.4-.3-.3-.6l1.8-4.7c.1-.2.2-.3.4-.3s.4.1.4.3l1.8 4.7c.1.2 0 .5-.3.6h-.1c-.2 0-.3-.1-.4-.3zm-.3-.9-.6-1.7-.6 1.7z" fill="#fff"/><path d="m160.9 118.6c.1.2-.1.5-.3.6-.1 0-.1 0-.2 0-.1 0-.2 0-.3-.1s-.2-.2-.3-.3c-.1-.3-.2-.7-.2-1 0-.1 0-.2-.1-.3s-.1-.2-.2-.2c-.1-.1-.3-.1-.4-.2h-.9v1.8c0 .2-.2.4-.4.4s-.4-.2-.4-.4v-4.7c0-.2.2-.4.4-.4h1.4c.9 0 1.7.8 1.7 1.7 0 .5-.2.9-.6 1.3.1.1.2.2.3.3.2.3.3.6.3.9v.5c0-.2.1-.1.2.1zm-1.2-3.2c0-.5-.4-.8-.8-.8h-1v1.6h1c.5 0 .8-.4.8-.8z" fill="#fff"/><path d="m165.4 114.5h-1.3v4.3c0 .2-.2.4-.4.4-.2 0-.4-.2-.4-.4v-4.3h-1.3c-.2 0-.4-.2-.4-.4s.2-.4.4-.4h3.4c.2 0 .4.2.4.4 0 .2-.1.4-.4.4z" fill="#fff"/><path d="m165.3 87.9h-19.1c-.7 0-1.2-.5-1.2-1.2 0-.7.5-1.2 1.2-1.2h19.1c.7 0 1.2.5 1.2 1.2 0 .7-.6 1.2-1.2 1.2z" fill="#fff"/><path d="m64.8 132.2h181.9v25h-181.9z" fill="#ebebeb"/><path d="m246.7 413.6v13.8c0 9.2-6.9 16.6-15.3 16.6h-151.3c-8.5 0-15.3-7.4-15.3-16.6v-13.8z" fill="#7bb743"/><path d="m133.3 427.8c0-1.6 1.3-2.9 2.9-2.9.7 0 1.3.2 1.9.6.2.2.2.4.1.6-.2.2-.4.2-.6.1-.4-.3-.8-.4-1.3-.4s-1 .2-1.4.6-.6.9-.6 1.4.2 1 .6 1.4.9.6 1.4.6.9-.1 1.3-.4c.2-.1.5-.1.6.1s.1.5-.1.6c-.5.4-1.2.6-1.9.6-1.5 0-2.9-1.3-2.9-2.9z" fill="#fff"/><path d="m139.7 430.2v-4.7c0-.2.2-.4.4-.4.2 0 .4.2.4.4v1.9h2.1v-1.9c0-.2.2-.4.4-.4.2 0 .4.2.4.4v4.7c0 .2-.2.4-.4.4-.2 0-.4-.2-.4-.4v-1.9h-2.1v1.9c0 .2-.2.4-.4.4-.2.1-.4-.1-.4-.4z" fill="#fff"/><path d="m145.4 430.2v-4.7c0-.2.2-.4.4-.4h2.6c.2 0 .4.2.4.4s-.2.4-.4.5h-2.2v1.5h1.9c.2 0 .4.2.4.4s-.2.4-.4.4h-1.9v1.5h2.2c.2 0 .4.3.4.5s-.2.3-.4.4h-2.6c-.2 0-.4-.2-.4-.5z" fill="#fff"/><path d="m149.9 427.8c0-1.6 1.3-2.9 2.9-2.9.7 0 1.3.2 1.9.6.2.2.2.4.1.6-.2.2-.4.2-.6.1-.4-.3-.8-.4-1.3-.4s-1 .2-1.4.6-.6.9-.6 1.4.2 1 .6 1.4.9.6 1.4.6.9-.1 1.3-.4c.2-.1.5-.1.6.1s.1.5-.1.6c-.5.4-1.2.6-1.9.6-1.6 0-2.9-1.3-2.9-2.9z" fill="#fff"/><path d="m156.3 430.2v-4.7c0-.2.2-.4.4-.4s.4.2.4.4v2.3l2.6-2.6c.2-.1.5-.1.6.1s.1.4 0 .5l-1.8 1.8 1.8 2.3c.2.2.1.5 0 .6-.2.2-.5.1-.6-.1l-1.7-2.3-.8.9v1.1c0 .2-.2.4-.4.4-.3.1-.5-.1-.5-.3z" fill="#fff"/><path d="m166.1 425.7c1.1 1.1 1.1 2.9 0 4-.5.5-1.2.8-1.9.9-.8 0-1.5-.3-2-.9-1-1.1-1-2.9 0-4 .5-.6 1.2-.9 2-.9.7.1 1.4.4 1.9.9zm-.1 2c0-.5-.2-1-.5-1.4s-.8-.6-1.3-.6-1 .2-1.3.6-.5.9-.5 1.4.2 1 .5 1.4.8.6 1.3.6.9-.2 1.3-.6c.3-.3.4-.8.5-1.4z" fill="#fff"/><path d="m170.4 430.6c-1.3 0-2.3-1-2.3-2.3v-2.9c0-.2.2-.4.4-.4.2 0 .4.2.4.4v2.9c.1.8.8 1.4 1.5 1.3s1.2-.6 1.3-1.3v-2.9c0-.2.2-.4.4-.4s.4.2.4.4v2.9c.2 1.3-.8 2.3-2.1 2.3z" fill="#fff"/><path d="m177.8 425.9h-1.3v4.3c0 .2-.2.4-.4.4-.2 0-.4-.2-.4-.4v-4.3h-1.3c-.2 0-.4-.2-.4-.5 0-.2.2-.4.4-.4h3.4c.2 0 .4.2.4.4 0 .3-.2.5-.4.5z" fill="#fff"/><path d="m246.7 103.4v324.1c0 9.2-6.9 16.6-15.3 16.6h-151.3c-8.5 0-15.3-7.4-15.3-16.6v-324.1c0-18.7 6.9-19.6 15.3-19.6h30.3c1.8 0 3.2 2 3.2 4.5v1.1c0 5.8 3.2 5.8 7.1 5.8h70.1c3.9 0 7.1 0 7.1-5.8v-1.1c0-2.5 1.4-4.5 3.3-4.5h30.3c8.3 0 15.2 2.5 15.2 19.6z" opacity=".5"/><path d="m333.3 131.2-.4.1s0-.1.1-.1z" fill="#263238"/><path d="m344.8 427.1h-.2v-.1z" fill="#dd6a57"/><path d="m319.3 455.4c2.3.8 68.4-.1 70.9-1.7 1-.6 1.4-10.2 1.6-21.9v-.4c0-2.4.1-4.9.1-7.4 0-.3 0-.7 0-1l-3.2-34.3-44.2.5 4.4 33.9v1.3l.3 7v.7s-25.1 11.6-27.6 13.7-4.7 8.8-2.3 9.6z" fill="#f7a9a0"/><path d="m319.3 455.4c2.3.8 68.4-.1 70.9-1.7 1-.6 1.4-10.2 1.6-21.9v-.4c0-2.4.1-4.9.1-7.4 0-.3 0-.7 0-1l-43 .1v1.3l.3 7v.7s-25.1 11.6-27.7 13.7-4.6 8.8-2.2 9.6z" fill="#ebebeb"/><path d="m319.3 455.4c1.2.4 19.1.3 36.7 0 3.5-.1 7-.2 10.4-.2 12.5-.3 22.8-.9 23.8-1.5s1.4-10 1.6-21.4c0-.2 0-.3 0-.5s0-.3 0-.4l-42.6.1v.7s-25.1 11.6-27.6 13.7-4.7 8.7-2.3 9.5z" fill="#ffac27"/><path d="m319.9 452.8c11.1-.4 56.1-1 67.1-.6.1 0 .1.1 0 .1-11 .7-56 .9-67.1.7-.2 0-.2-.2 0-.2z" fill="#263238"/><path d="m344.3 431.6c4.4-.9 9.7-.3 13.1 2.8.1.1 0 .3-.2.3-4.2-1.3-8.5-2.1-12.9-2.5-.2 0-.3-.2-.2-.3 0-.1.1-.2.2-.3z" fill="#263238"/><path d="m341.2 433.6c4.4-.9 9.7-.3 13.1 2.8.1.1 0 .3-.2.3-4.2-1.3-8.5-2.1-12.9-2.5-.2 0-.3-.2-.2-.3 0-.2.1-.3.2-.3z" fill="#263238"/><path d="m338.1 435.5c4.4-.9 9.7-.3 13.1 2.8.1.1 0 .3-.2.3-4.2-1.3-8.5-2.1-12.9-2.5-.2 0-.3-.1-.3-.3 0-.1.1-.3.3-.3z" fill="#263238"/><path d="m355.9 455.4c3.5-.1 7-.2 10.4-.2 12.5-.3 22.8-.9 23.8-1.5s1.4-10 1.6-21.4c0-.2 0-.3 0-.5s0-.3 0-.4c-5.9 4.1-26.4 17.7-35.8 24z" fill="#263238"/><path d="m346.2 431.6h47.6s-9.6-111.1-9.2-113c.5-2.5 18.2-72 21.6-85.1 5.1-19.7 9.1-35 9.1-35h-40.3s-4.7 14.9-10.6 34.3c-9.6 31.5-22.5 74.8-23.8 85.4-2.1 16.9 5.6 113.4 5.6 113.4z" fill="#455a64"/><path d="m348.3 423.5c7.3-.1 5.2-.2 12.5-.3 3.5 0 26.9-.2 30.2.3.1 0 .1.1 0 .1-3.3.5-26.7.4-30.2.3-7.3-.1-5.2-.1-12.5-.3-.1.1-.1 0 0-.1-.1 0 0 0 0 0z" fill="#263238"/><path d="m375.6 311.8c1.6-6.9 3.9-13.6 5.9-20.4 4.1-13.8 8.3-27.5 12.4-41.2 2.1-6.9 4.2-13.7 6.3-20.5 1.1-3.5 2.1-6.9 3.2-10.4s2.3-6.7 3.2-10.1c.4-1.4.6-.6.1 1.1-1 3.6-2 7.1-3 10.6-2 7-4.1 14-6.2 21-4.1 13.9-8.3 27.9-12.5 41.8-2.1 7-4.2 14-6.3 21-1.1 3.3-1.9 6.7-2.6 10.1-.6 3.6-.7 7.2-.4 10.8.5 7.3 1.3 14.5 2 21.8s1.3 14.5 2 21.8c1.3 14.5 2.7 29 4 43.4.2 1.8.3 3.7.5 5.5 0 .6-.9.6-1 0-1.6-14.3-2.8-28.7-4.1-43s-2.7-28.5-4-42.8c-.3-3.6-.7-7.2-.7-10.8 0-3.1.4-6.4 1.2-9.7z" fill="#263238"/><path d="m379.6 198.5c2.5 19.1 5.9 83.3 6.6 113.4 4.5-18.2 17.2-67.6 20-78.4 4.7-18.1 8.5-32.6 9-34.7 0-.1 0-.1 0-.2 0 0 0 0 0-.1z" fill="#263238"/><path d="m367.4 224.9c1.1 0 5.3-1.4 6-3.3.8-2.1 1.3-4.2 1.7-6.4.4-2.4.6-4.8.9-7.3 0-.1.1-.1.1 0 0 2.8-.1 5.6-.5 8.3-.1 2.2-.6 4.4-1.5 6.5-.8 1.7-5.5 2.9-6.8 2.5 0-.1 0-.3.1-.3z" fill="#263238"/><path d="m368.9 455.4c2.3.8 68.4-.1 70.9-1.7 1-.6 1.4-10.2 1.6-21.9v-.4c0-2.4.1-4.9.1-7.4 0-.3 0-.7 0-1l-3.2-34.3-44.2.5 4.4 33.9v1.3l.3 7v.7s-25.1 11.6-27.7 13.7-4.5 8.8-2.2 9.6z" fill="#f7a9a0"/><path d="m368.9 455.4c2.3.8 68.4-.1 70.9-1.7 1-.6 1.4-10.2 1.6-21.9v-.4c0-2.4.1-4.9.1-7.4 0-.3 0-.7 0-1l-43 .1v1.3l.3 7v.7s-25.1 11.6-27.7 13.7-4.5 8.8-2.2 9.6z" fill="#ebebeb"/><path d="m368.9 455.4c1.2.4 19.1.3 36.7 0 3.5-.1 7-.2 10.4-.2 12.5-.3 22.9-.9 23.8-1.5s1.4-10 1.6-21.4c0-.2 0-.3 0-.5s0-.3 0-.4l-42.6.1v.7s-25.1 11.6-27.7 13.7-4.5 8.7-2.2 9.5z" fill="#ffac27"/><path d="m369.6 452.8c11.1-.4 56.1-1 67.1-.6.1 0 .1.1 0 .1-11 .7-56 .9-67.1.7-.2 0-.2-.2 0-.2z" fill="#263238"/><path d="m394 431.6c4.4-.9 9.7-.3 13.1 2.8.1.1 0 .3-.2.3-4.2-1.3-8.5-2.1-12.9-2.5-.2 0-.3-.2-.2-.3 0-.1.1-.2.2-.3z" fill="#263238"/><path d="m390.9 433.6c4.4-.9 9.7-.3 13.1 2.8.1.1 0 .3-.2.3-4.2-1.3-8.5-2.1-12.9-2.5-.2 0-.3-.1-.3-.3.1-.2.2-.3.3-.3z" fill="#263238"/><path d="m387.7 435.5c4.4-.9 9.7-.3 13.1 2.8.1.1 0 .3-.2.3-4.2-1.3-8.5-2.1-12.9-2.5-.2 0-.3-.1-.3-.3.1-.1.2-.3.3-.3z" fill="#263238"/><path d="m376.3 198.4s.9 19.3 5.4 34.6c.4 1.3.7 2.5 1.1 3.7 0 0-.6-.5 6.4 3.8 0 0-2.7 76.7-2.8 81.3-.4 17.1 12 110.5 12 110.5l47.5.2s-17-105.9-16.9-112.1c.1-10.1 6.1-53.9 4.2-86.4-.8-12.4-4.1-24.4-9.7-35.5h-47.2z" fill="#455a64"/><path d="m400 423.8c7.3-.1 5.2-.2 12.4-.2 3.6 0 26.9-.1 30.2.5.1 0 .1.1 0 .1-3.3.5-26.7.2-30.2.2-7.3-.1-5.2-.1-12.4-.3-.1 0-.1 0-.1-.1s.1-.2.1-.2z" fill="#263238"/><path d="m420.8 201.3c6 11.6 8.2 24.7 8.7 37.6.5 14-1.1 28-2.6 41.9-1.5 14.6-2.9 29.3-1.8 44 1.1 14.9 3.8 29.6 5.9 44.3s4.4 29.5 6.2 44.2c.2 1.9.5 3.7.7 5.6 0 .1-.1.1-.1 0-2.6-14.6-4.8-29.2-7-43.8s-4.7-29.1-6.2-43.8-.9-29.2.6-43.8c1.4-14.1 3.3-28.1 3.3-42.3 0-13.2-1.3-26.6-5.9-39.1-.6-1.7-1.3-3.3-2-4.9-.2-.1 0-.1.2.1z" fill="#263238"/><path d="m421 224.9c-2.6 0-12-1.4-14.3-3.7-1.6-1.7-2.7-3.8-3.4-6-.8-2.4-1.5-4.8-2-7.3 0-.1-.2-.1-.2 0-.1 2.8.3 5.6 1 8.3.6 2.3 1.5 4.9 3.3 6.5s4.6 2.3 7.1 2.6c2.8.3 5.6.3 8.4-.1.1 0 .1-.1.1-.2.2-.1.1-.2 0-.1z" fill="#263238"/><path d="m389.5 228.5c0-1 0-2.1 0-3.1 0-1.9-.1-3.8-.1-5.8-.1-4.4-.2-8.7-.5-13.1 0-.1-.2-.1-.2 0-.1 1.7-.2 3.4-.2 5.2s-.1 3.4-.1 5.2c0 3.4-.1 6.8 0 10.3 0 1.3.5 3.8-1.4 3.9-1.5.1-2.4-1.5-2.6-2.8-.2-1.6-.3-3.2-.3-4.8 0-1.7 0-3.5 0-5.2 0-3.8 0-7.6 0-11.4 0-.1-.2-.1-.2 0-.5 3.8-.9 7.6-.9 11.5v5.5c-.1 1.7.1 3.5.5 5.2.3 1.3 1.3 2.4 2.6 2.9h.1s-.1.1-.1.1c-.1.6-.2 1.2-.2 1.8s0 1.2 0 1.8.1 1.2.2 1.8c0 .3.1.6.2.9s.2.6.4.8c0 .1.2.1.2 0 0-.1 0-.2 0-.3 0-.2 0-.4 0-.5 0-.3 0-.6 0-.9 0-.6-.1-1.2-.2-1.8s-.1-1.2-.1-1.8-.2-1.2-.2-1.8c0 0 0 0 0-.1 1.1.2 2.2-.3 2.8-1.2.2-.6.4-1.5.3-2.3z" fill="#263238"/><path d="m395.9 244.7c-1.2-1-2.4-2-3.7-2.9-1.4-1-2.8-1.9-4.2-2.6-2.9-1.5-5.9-2.7-8.9-3.9-.1 0-.2.1-.1.2 2.9 1.4 5.6 3.2 8.4 4.9 1.4.8 2.8 1.6 4.1 2.3s2.8 1.6 4.2 2.3c.2-.1.2-.2.2-.3z" fill="#263238"/><path d="m385.1 149.5c-10.2 18.3-32 41.5-40.2 41-3.9-.2-11 .2-15.9-4.7-10.5-10.7-16.8-26.3-20.7-34-1.8-3.5 19.8-18 22.3-14.6 5.9 7.8 12.4 22.7 13.6 22.7 4.2 0 21.6-12.9 34-21.5 13.9-9.7 11 3.8 6.9 11.1z" fill="#f7a9a0"/><path d="m311.3 155.7c-2.2-2.4-11.4-14.4-13.2-18.4s-6.2-15.6-3.3-17.2 4.4 1.6 4.4 1.6-1.1-5.2 2-6.6 5.3 3.8 5.3 3.8-.7-5.4 2.4-6.6 4.5 4.4 4.5 4.4-.9-4.9 2.1-4.8c3.6.1 4.2 9.4 6.5 13.5.5.9 12 18.4 12 18.4z" fill="#f7a9a0"/><path d="m313.3 116.2c.4 6.8 1.8 9.7 5.8 15.2v.1h-.1c-4.4-5-6.6-8.4-6-15.3 0-.4.3-.4.3 0z" fill="#263238"/><path d="m306.5 118.3c1.1 7 2.5 10.2 6.3 16.2.1.1-.1.2-.1.1-4.1-5.6-6.3-9-6.5-16.2-.1-.3.2-.4.3-.1z" fill="#263238"/><path d="m299.5 122c1.5 6.7 3 10.3 7.4 15.7v.2h-.1c-5-5-6.8-9.4-7.4-15.8-.2-.4 0-.5.1-.1z" fill="#263238"/><path d="m310.6 109 19.6 29.1c.4.5.4 1.2-.1 1.6-.1.1-.3.2-.5.3l-15.6 4.2c-1 .2-2-.2-2.5-1l-19.6-29.1c-.4-.5-.4-1.2.1-1.6.1-.1.3-.2.5-.3l15.5-4.2c1-.2 2 .2 2.6 1z" fill="#37474f"/><path d="m308.9 107.7-15.6 4.2c-.6.1-1 .7-.9 1.3 0 .2.1.4.3.5l19.6 29.1c.6.8 1.6 1.2 2.6 1l15.6-4.1c.6-.1 1-.7.9-1.4 0-.2-.1-.4-.3-.5l-19.6-29.1c-.6-.7-1.6-1.1-2.6-1zm20.6 29.6c.5.8.3 1.6-.5 1.8l-13.9 3.7c-.9.2-1.8-.2-2.3-1l-18.2-27.1c-1-1.6-.5-1.8.3-2l2.8-.7c.2 0 .4.1.5.3l.1.1c.3.5.6.4 1 .3l6.5-1.7c.4-.1.6-.2.3-.7l-.1-.1c-.1-.2-.1-.4 0-.5l2.8-.7c.8-.2 1.5-.2 2.5 1.3z" fill="#263238"/><path d="m311.6 140h-.1" fill="none"/><path d="m311.3 110.1 18.2 27.1c.5.8.3 1.6-.5 1.8l-13.9 3.7c-.9.2-1.8-.2-2.3-1l-18.2-27.1c-1-1.6-.5-1.8.3-2l2.8-.7c.2 0 .4.1.5.3l.1.1c.3.5.6.4 1 .3l6.5-1.7c.4-.1.6-.2.3-.7l-.1-.1c-.1-.2-.1-.4 0-.5l2.8-.7c.7-.2 1.5-.2 2.5 1.2z" fill="#fff"/><path d="m311.3 110.1 1.6 2.4-16.8 4.5-1.6-2.4c-1-1.6-.5-1.8.3-2l2.8-.7c.2 0 .4.1.5.3l.1.1c.3.5.6.4 1 .3l6.5-1.7c.4-.1.6-.2.3-.7l-.1-.1c-.1-.2-.1-.4 0-.5l2.8-.7c.8-.2 1.6-.2 2.6 1.2z" fill="#ffac27"/><path d="m297.5 112.6c-.1 0-.2 0-.3 0s-.2.1-.2.2 0 0 0-.1l.1-.1h.3z" fill="#fff"/><path d="m297.1 112.8c0-.1 0-.1.1-.1h.3v.1c-.1 0-.1 0-.2 0-.1-.1-.1 0-.2 0z" fill="#fff"/><path d="m297.5 112.8h-.1s0 0-.1 0h-.1s.2-.1.3 0z" fill="#fff"/><path d="m294.9 113.4v-.1c.1 0 .1 0 .2.1v.1c0-.1-.1-.1-.2-.1z" fill="#fff"/><path d="m295.3 113.3c0-.1 0-.1 0-.1.1 0 .1 0 .2.1v.1s-.1-.1-.2-.1z" fill="#fff"/><path d="m295.7 113.2c0-.1 0-.1 0-.1.1 0 .1 0 .2.1v.1c-.1 0-.2-.1-.2-.1z" fill="#fff"/><path d="m296 113.1v-.1c.1 0 .1 0 .2.1v.1c-.1 0-.2-.1-.2-.1z" fill="#fff"/><path d="m296.4 113c0-.1 0-.1 0-.1.1 0 .1 0 .2.1v.1c-.2 0-.2-.1-.2-.1z" fill="#fff"/><path d="m309.5 109.7-.9.2-.3-.4.9-.2zm-.9.2.8-.2-.2-.3-.8.2z" fill="#fff"/><path d="m309.1 109.5-.6.1.1.3.6-.2z" fill="#fff"/><path d="m309.5 109.6-.2-.2h.1z" fill="#fff"/><path d="m297.1 115.7-.8-.3.3-.5h.1l-.2.5.6.2z" fill="#fff"/><path d="m310.5 111.9-.8.2-.7-.7h-.1v-.1h.1l.1.1 1.2-.3zm-.8.1.7-.2-.2-.6-1 .3z" fill="#fff"/><path d="m310.5 112.1-.2-.2-.4.2v.1h-.1v-.2l.5-.1.2.1z" fill="#fff"/><path d="m310.3 111.4-1 .3-.1-.1 1.1-.3z" fill="#fff"/><path d="m310.4 111.6-1 .2.9-.3z" fill="#fff"/><path d="m310.4 111.8-.8.2-.1-.1.9-.2z" fill="#fff"/><path d="m310.1 112h-.1l-.4-.6h.1z" fill="#fff"/><path d="m310.2 111.9v.1l-.4-.7h.1z" fill="#fff"/><path d="m310.4 111.9h-.1l-.3-.6h.1z" fill="#fff"/><path d="m309.9 112-.4-.6.5.6z" fill="#fff"/><path d="m309.8 112.1-.5-.6.5.5z" fill="#fff"/><path d="m310.6 112.1c-.1 0-.1 0-.2-.1v-.1c.1 0 .1 0 .2.1z" fill="#fff"/><path d="m309.9 112.3c-.1 0-.1 0-.2-.1v-.1c.1 0 .1 0 .2.1.1 0 .1.1 0 .1.1 0 .1 0 0 0z" fill="#fff"/><path d="m310.4 110.9c.1.2 0 .3-.1.4-.2 0-.4 0-.5-.2s0-.3.1-.4c.2 0 .4.1.5.2z" fill="#455a64"/><path d="m310 110.8.2.3h-.1l-.1-.3h-.1z" fill="#fff"/><path d="m302.7 113.7c-.1-.1-.1-.2 0-.3h.1.2s0 0-.1 0h-.1s-.1 0-.1.1v.2c.1-.1.1 0 .2 0h.2s.1 0 .1-.1h.1v.1s-.1.1-.1.1c-.3 0-.4 0-.5-.1z" fill="#fff"/><path d="m303.6 113.6h-.2v.1s0 0-.1 0l-.1-.4h.1l.4.3v.1zm-.1-.1-.1-.1v.2z" fill="#fff"/><path d="m304.2 113.5h-.3-.1l.1.1s0 0-.1 0l-.3-.4s0 0 0-.1h.1c.1 0 .2 0 .2.1v.1s.1 0 .1.1zm-.3-.2h-.1-.1l.1.1h.1z" fill="#fff"/><path d="m304.4 113.1h-.1l.2.4s0 0-.1 0l-.2-.4h-.1m0 0 .3-.1m0 0s0 .1 0 0z" fill="#fff"/><path d="m302.9 110.8-1.8.5c-.1 0-.1 0-.2-.1 0-.1 0-.1 0-.1l1.8-.5c.1 0 .1 0 .2.1.1 0 .1.1 0 .1z" fill="#fff"/><path d="m314.3 114.6-16.8 4.5-1.4-2.1 16.8-4.5z" fill="#ebebeb"/><path d="m320.5 123.9-16.8 4.4-1.4-2.1 16.8-4.4z" fill="#ebebeb"/><path d="m323.2 127.8-16.8 4.5-.4-.6 16.8-4.4z" fill="#ebebeb"/><path d="m307.7 122.9-4.9 1.2-2.9-4.4 4.8-1.2z" fill="#ebebeb"/><path d="m303.5 120.1-.2.1-.2-.3c-.1 0-.2 0-.3 0s-.1.1-.2.2l.2.3h-.2l-.2-.3c-.1-.1.2-.4.3-.4s.6 0 .6.1z" fill="#37474f"/><path d="m306.3 122.7-2.6.7s-.6-.9-1-1.5-.8-1.6.2-1.9 1.9.6 2.3 1.2 1.1 1.5 1.1 1.5z" fill="#ffac27"/><path d="m305.8 122.6-1.9.5-.7-1 1.9-.5z" opacity=".1"/><path d="m305.3 121.9-1.9.5 1.9-.6z" fill="#ffac27"/><path d="m303.8 120.8-.1.4-.5-.2.1-.4z" fill="#a6a6a6"/><path d="m298.4 117.3.3.4z"/><path d="m298.8 117.4.1.2h-.1l-.2-.2-.1-.1.1.1z"/><path d="m299 117.5c-.1 0-.1-.1 0-.2h.1c.1 0 .2 0 .3.1l-.4.1c.1.1.2.1.3.1 0 0 .1 0 .1-.1 0 .1 0 .1-.1.1s-.2 0-.3-.1zm0 0 .3-.1c-.1-.1-.1-.1-.2-.1s-.1.1-.1.2z"/><path d="m299.9 117.2c0-.1-.1-.1-.2-.1s-.1.1 0 .1l.1.2-.1-.2c0-.1-.1-.1-.2-.1s-.1.1 0 .1l.1.2-.1-.2-.1-.1s0-.1.1-.1h.2c0-.1 0-.1.1-.1 0 .1.1.2.1.3l.2.1z"/><path d="m300.2 117.3h.1.1s0 0-.1 0h-.1l-.1-.1v-.1h.1s.1 0 .1 0h-.1-.1.1.1s.1 0 .1.1m0 .1c-.1 0-.2 0-.2 0z"/><path d="m300.7 116.9.2.3z"/><path d="m301.2 116.9c0-.1-.1-.1-.2-.1v.1l.1.2-.1-.2-.1-.1s0-.1.1-.1c.1.1.2.1.2.2l.2.1z"/><path d="m301.6 116.8c0-.1 0-.1 0-.2h.1.1-.1s-.1.1-.1.2c0-.1.1 0 0 0 .1 0 .2.1.3 0h.1s-.1.1-.1.1c-.1 0-.2 0-.3-.1z"/><path d="m302.3 116.5.2.3s0 .1-.1.1-.2 0-.3-.1 0-.2.1-.2c0-.1.1-.1.1-.1zm0 .1c0-.1-.1-.1-.2-.1s-.1.1 0 .2.1.1.2.1.1-.1 0-.2z"/><path d="m302.4 116.4s.1 0 .1-.1c0 .1 0 .1-.1.1.1.1.1.1.1.1l.1.1z"/><path d="m302.9 116.3.1.2h-.1l-.2-.2-.1-.1.1.1z"/><path d="m306.1 129.5.3-.1-.3.1.1.2h.2l-.2.1.1.2.2-.1-.3.1z"/><path d="m306.9 129.6c0-.1-.1-.1-.2-.1v.1l.1.2-.1-.2-.1-.1s0-.1.1-.1c.2.1.3.1.2.2l.2.1z"/><path d="m307.2 129.4.2.2h-.1l-.2-.2h-.1l-.1-.1.1.1z"/><path d="m307.4 129.5c0-.1 0-.1 0-.2h.1c.1 0 .2 0 .3.1l-.4.1c.1 0 .2.1.3.1 0 0 .1-.1.1-.1 0 .1 0 .1-.1.1-.2 0-.3 0-.3-.1zm0 0 .3-.1c-.1-.1-.1-.1-.2-.1-.1.1-.1.1-.1.2z"/><path d="m307.7 129.3s.1 0 .1-.1 0 0-.1.1c.1.1.1.1.1.1l.1.2z"/><path d="m308.4 129.3-.1-.1s0-.1.1-.1.2 0 .3.1 0 .2-.1.2-.1 0-.2-.1l.2.3zm0 0c.1.1.1.1.2.1s.1-.1.1-.1c-.1-.1-.1-.1-.2-.1-.1-.1-.1 0-.1.1z"/><path d="m308.8 129s.1 0 .1-.1-.1 0-.1.1c.1.1.1.1.1.1l.1.1z"/><path d="m309.2 128.8c.1 0 .2 0 .3.1s0 .2-.1.2-.2 0-.3-.1c0 0 0-.1.1-.2zm.2.3c.1 0 .1-.1 0-.2s-.1-.1-.2-.1-.1.1 0 .2c0 .1.1.2.2.1z"/><path d="m310.1 128.8c0-.1-.1-.1-.2-.1s-.1.1 0 .1l.1.2-.1-.2c0-.1-.1-.1-.2-.1s-.1.1 0 .1l.1.2-.1-.2-.1-.1s0-.1.1-.1h.2s0-.1.1-.1c.1.1.1.2.1.3l.2.1z"/><path d="m310.4 128.5c.1 0 .2 0 .3.1 0 .1 0 .2-.1.2s-.2 0-.3-.1c0 0 0-.1.1-.2zm.2.3c.1 0 .1-.1 0-.2 0-.1-.1-.1-.2-.1s-.1.1 0 .2.1.1.2.1z"/><path d="m311 128.6c-.1-.1-.1-.1 0-.2h.1.1-.1c-.1 0-.1 0-.1.2 0-.1 0-.1 0 0 .1 0 .2.1.3 0h.1s0 0-.1.1c-.1 0-.2-.1-.3-.1z"/><path d="m311.5 128.2c.1 0 .2 0 .3.1s0 .2-.1.2-.2 0-.3-.1c0 0 0-.1.1-.2zm.2.3c.1 0 .1-.1 0-.2 0-.1-.1-.1-.2-.1s-.1.1 0 .2c0 .1.1.2.2.1z"/><path d="m312.2 128.3c0 .1 0 .1-.1.1s-.2 0-.3-.1c0-.1 0-.1 0-.2h.2l-.1-.2.2.3zm0 0c-.1-.1-.1-.1-.2-.1s-.1.1 0 .2c0 .1.1.1.2.1 0-.1 0-.2 0-.2z"/><path d="m312.3 128.2c0-.1 0-.1 0-.2h.1c.1 0 .2 0 .3.1l-.4.1c.1 0 .2.1.3 0 0 0 .1 0 .1-.1 0 .1 0 .1-.1.1-.1.1-.2.1-.3 0zm0 0 .3-.1c-.1-.1-.1-.1-.2-.1 0 .1 0 .1-.1.2z"/><g fill="#a6a6a6"><path d="m311.9 138.3-.2-.5h.1.1s.1 0 .1.1v.1h.1s.1 0 .1.1c0 .1 0 .1-.1.2zm.1-.3h-.1l.1.2h.1c.1 0 .1-.1.1-.1-.1-.1-.1-.1-.2-.1zm-.2 0h.1s.1-.1.1-.1-.1-.1-.1-.1h-.1z"/><path d="m312.5 137.8.1.2v.1c0 .1 0 .2-.1.2.1 0 .1-.1.1-.2v-.1s0 .1-.1.1h-.1s-.1 0-.1-.1l-.1-.2.1.2c0 .1.1.1.2.1s.1-.1.1-.1v-.1z"/><path d="m312.9 137.7.1.3m.1 0c-.1 0-.1 0 0 0l-.2-.3h-.1.1l-.1-.1.1.1h.1z"/><path d="m313.2 137.9s-.1 0-.1-.1c0-.1 0-.2 0-.2h.1.1v-.1l.1.1.1.2v-.1c0 .1 0 .1-.1.1 0 .2-.1.2-.2.1zm0-.1c0 .1.1.1.2.1s.1-.1.1-.2 0 0 0 0c0-.1-.1-.1-.2-.1-.1.1-.2.1-.1.2-.1 0 0 0 0 0z"/><path d="m313.5 137.5h.1.1s.1 0 .1.1v.2h-.1s-.1 0-.1-.1l.1.2-.1-.3zm.1.2c0 .1.1.1.2.1s.1-.1.1-.2c0-.1-.1-.1-.2-.1-.1 0-.1.1-.1.2z"/><path d="m313.9 137.4h.1.1s.1 0 .1.1c0 .1 0 .2-.1.2h-.1l.1.2-.1-.3zm.1.2c0 .1.1.1.2.1s.1-.1.1-.2c0-.1-.1-.1-.2-.1-.1 0-.1.1-.1.2 0-.1 0 0 0 0z"/><path d="m314.5 137.6-.1-.3z"/><path d="m314.9 137.3c0-.1-.1-.1-.2-.1s-.1.1-.1.1l.1.2-.1-.2-.1-.1v.1c0-.1 0-.1.1-.1s.2 0 .3.1c-.1-.1 0 0 0 0l.1.2z"/><path d="m315.3 137.6c.1 0 .1-.1.1-.2v-.1c0 .1 0 .1-.1.1h-.1s-.1 0-.1-.1c0-.1 0-.2.1-.2h.1.1v-.1l.1.2.1.1v.2c-.2.1-.2.1-.3.1zm0-.4c0-.1-.1-.1-.2-.1-.1 0-.1.1-.1.2 0 .1.1.1.2.1s.2-.1.1-.2z"/><path d="m315.7 136.9.1.3h-.1v-.3h-.1l-.1-.1.1.1z"/><path d="m315.9 137-.1-.3.1.3c0-.1 0-.2.1-.2h.1s.1 0 .1.1l.1.2-.1-.2c0-.1-.1-.1-.2-.1 0 .1-.1.1-.1.2.1 0 .1 0 0 0l.1.2z"/><path d="m316.3 136.9c0-.1 0-.2 0-.2h.1s.1 0 .1.1l-.2.1c.1 0 .1.1.2 0 0 0 .1-.1.1-.1 0 .1-.1.1-.1.1 0 .1-.1.1-.2 0 .1.1 0 .1 0 0zm0 0 .3-.1c0-.1-.1-.1-.2-.1 0 .1-.1.2-.1.2z"/><path d="m316.9 136.8c0-.1 0-.2.1-.2h.1-.1s0 .1-.1.2c.1 0 .1 0 0 0 .1.1.2.1.2.1s.1 0 .1-.1-.1.1-.1.1 0 0-.2-.1c.1.1.1 0 0 0z"/><path d="m317.4 136.6-.1-.3.1.3c0-.1 0-.2 0-.2h.1s.1 0 .1.1l.1.2-.1-.2c0-.1-.1-.1-.2-.1v.2l.1.2z"/><path d="m317.8 136.6c0-.1 0-.2.1-.2h.1s.1 0 .1.1l-.3.1c.1 0 .1.1.2 0 0 0 .1-.1.1-.1 0 .1 0 .1-.1.1s-.1 0-.2 0zm0 0 .3-.1c0-.1-.1-.1-.2-.1s-.1.1-.1.2z"/><path d="m318.2 136.5c0-.1 0-.2.1-.2h.1-.1c-.1 0-.1.1-.1.2 0-.1 0-.1 0 0 .1.1.2.1.2.1s.1 0 .1-.1-.1.1-.1.1-.1 0-.2-.1z"/><path d="m318.8 136.1-.1.2.2.1-.2-.1v.1.1l-.2-.5.2.4z"/><path d="m319.3 136.2c0 .1 0 .2-.1.2h-.1s-.1 0-.1-.1c0-.1 0-.2 0-.2h.1c.1 0 .1 0 .2.1zm0 0c0-.1-.1-.1-.2-.1-.1 0-.1.1-.1.2 0 .1.1.1.2.1.1-.1.1-.1.1-.2z"/><path d="m319.6 135.9.1.2c0 .1 0 .1-.1.2h-.1s-.1 0-.1-.1l-.1-.2.1.2s.1.1.2.1.1-.1.1-.1z"/><path d="m319.8 135.8.1.3m0 0-.2-.3h-.1.1l-.1-.1.1.1z"/><path d="m320.4 136-.1-.2-.1-.3.1.2c0-.1 0-.1.1-.1h.1s.1 0 .1.1c0 .1 0 .2-.1.2 0 .1-.1.1-.1.1zm-.1-.1c0 .1.1.1.2.1s.1-.1.1-.2c0-.1-.1-.1-.2-.1s-.1.1-.1.2z"/><path d="m320.9 135.5.1.2c0 .1 0 .1-.1.2h-.1s-.1 0-.1-.1l-.1-.2.1.2c0 .1.1.1.2.1s.1-.1.1-.1z"/><path d="m321.2 135.5.1.3h-.1v-.3h-.1.1l-.1-.2z"/><path d="m321.5 135.4.1.3m0 0c-.1 0-.1 0 0 0l-.2-.3h-.1.1l-.1-.1.1.1h.1z"/><path d="m321.9 135.4c0 .1 0 .2-.1.2h-.1s-.1-.1-.1-.1c0-.1 0-.2.1-.2h.1c.1.1.1.1.1.1zm0 0c0-.1-.1-.1-.2-.1-.1 0-.1.1-.1.2 0 .1.1.1.2.1.2 0 .2-.1.1-.2.1.1.1.1 0 0z"/><path d="m322.3 135.3c0-.1-.1-.1-.2-.1s-.1.1-.1.1l.1.2-.1-.2-.1-.1v.1s.1-.1.1-.1c.2 0 .2 0 .3.1 0-.1 0 0 0 0l.1.2z"/><path d="m322.9 135 .1.2.1.1c0 .1 0 .2-.1.2h-.1.1c.1 0 .1-.1.1-.2v-.1s0 .1-.1.1h-.1s-.1 0-.1-.1l-.1-.2.1.2c0 .1.1.1.2.1s.1-.1.1-.1v-.1z"/><path d="m323.4 135.1c0 .1 0 .2-.1.2h-.1s-.1 0-.1-.1c0-.1 0-.2 0-.2h.1c.2 0 .2 0 .2.1zm0 0c0-.1-.1-.1-.2-.1-.1 0-.1.1-.1.2 0 .1.1.1.2.1.1-.1.2-.2.1-.2.1 0 .1 0 0 0z"/><path d="m323.7 134.8.1.2c0 .1 0 .1-.1.2h-.1s-.1 0-.1-.1l-.1-.2.1.2c0 .1.1.1.2.1s.1-.1.1-.1z"/><path d="m324.3 135s-.1 0-.1-.1c0-.1 0-.2 0-.2h.1.1v-.1l.1.1.1.2v-.1c0 .1 0 .1-.1.1-.1.1-.2.1-.2.1zm-.1-.1c0 .1.1.1.2.1s.1-.1.1-.2c0-.1-.1-.1-.2-.1-.1 0-.2.1-.1.2z"/><path d="m324.9 135c.1 0 .1-.1.1-.1s0 0 0-.1v-.1c0 .1 0 .1-.1.1h-.1s-.1-.1-.1-.1c0-.1 0-.2 0-.2h.1.1v-.1l.1.2.1.1c.1 0 .1.1 0 .2s-.2.1-.2.1zm0-.3c0-.1-.1-.1-.2-.1-.1 0-.1.1-.1.2 0 .1.1.1.2.1s.2-.1.1-.2c.1 0 .1 0 0 0z"/><path d="m325 134.5v.1-.1c.1 0 .1 0 .1-.1-.1 0-.1.1-.1.2l.1.1z"/><path d="m325.3 134.6c0-.1 0-.2 0-.2h.1.1s.1 0 .1.1l-.3.1c.1 0 .1.1.2 0 0 0 .1-.1.1-.1 0 .1-.1.1-.1.1s-.1 0-.2 0zm0 0 .3-.1c0-.1-.1-.1-.2-.1s-.1.1-.1.2z"/><path d="m325.7 134.4c0-.1 0-.2.1-.2h.1s.1.1.1.1l-.3.1c.1 0 .1.1.2 0 0 0 .1-.1.1-.1 0 .1 0 .1-.1.1 0 .1 0 .1-.2 0 .1.1 0 .1 0 0zm0 0 .3-.1c0-.1-.1-.1-.2-.1 0 .1-.1.2-.1.2z"/><path d="m312.4 138.7.1.3h.1s0 0-.1 0l-.1-.3h-.1.1l-.1-.1z"/><path d="m312.9 138.8c0 .1 0 .2-.1.2h-.1s-.1 0-.1-.1c0-.1 0-.2.1-.2h.1c.1 0 .1.1.1.1zm0 0c0-.1-.1-.1-.2-.1-.1 0-.1.1-.1.2 0 .1.1.1.2.1s.2-.1.1-.2c.1 0 .1 0 0 0z"/><path d="m313.3 138.5.1.3h-.1v-.3h-.1l-.1-.1.1.1z"/><path d="m313.5 138.6-.1-.3.1.3c0-.1 0-.2.1-.2h.1s.1 0 .1.1l.1.2-.1-.2c0-.1-.1-.1-.2-.1s-.1.1-.1.2l.1.2z"/><path d="m313.8 138.5c0-.1 0-.2 0-.2.1 0 .2 0 .2.1l-.2.1c.1 0 .1.1.2.1 0 0 .1-.1.1-.1 0 .1-.1.1-.1.1s0 0-.2-.1c.1.1 0 .1 0 0zm0 0 .3-.1c0-.1-.1-.1-.2-.1 0 .1-.1.1-.1.2z"/><path d="m314.7 138.5-.2-.4h-.2l.4-.1h-.2l.2.4z"/><path d="m314.9 138.3c0-.1 0-.2.1-.2h.1s.1.1.1.1l-.3.1c.1 0 .1.1.2 0 0 0 .1-.1.1-.1 0 .1 0 .1-.1.1s-.1 0-.2 0c-.1-.1 0 0 0 0zm0 0 .3-.1c0-.1-.1-.1-.2-.1s-.1.1-.1.2z"/><path d="m315.2 138v.1c0-.1 0-.1.1-.1-.1 0-.1.1-.1.2l.1.2z"/><path d="m316.1 137.9c0-.1-.1-.1-.1-.1-.1 0-.1.1-.1.1l.1.2-.1-.2c0-.1-.1-.1-.2-.1s-.1.1-.1.1l.1.2-.1-.2-.1-.1v.1s0-.1.1-.1h.1l.1.1c0-.1 0-.1.1-.1.1 0 .1 0 .2.1 0-.1 0-.1 0 0l.1.2z"/><path d="m316.3 138h.1.1m0-.1h-.2s0 0-.1-.1 0-.1.1-.1h.1-.1-.1m0 .1h.2s.1 0 .1.1 0 .1-.1.1h-.1z"/><path d="m317.1 137.7c0 .1 0 .2-.1.2h-.1s-.1 0-.1-.1c0-.1 0-.2 0-.2h.1c.1 0 .2 0 .2.1zm0 0c0-.1-.1-.1-.2-.1-.1 0-.1.1-.1.2 0 .1.1.1.2.1.1-.1.2-.2.1-.2z"/><path d="m317.2 137.3.2.4-.2-.4c0-.1 0-.1 0 0z"/><path d="m317.7 137.5c.1.1.1.1.2.1s.1-.1.1-.2l-.1-.3.1.3c0 .1 0 .2-.1.2h-.1c-.1 0-.1-.1-.1-.1l-.2-.3z"/><path d="m318.3 137.5h.1.1s0 0 0-.1h-.1s0 0-.1.1c0-.1 0-.1 0 0 0-.1 0-.2 0-.2h.1-.1s0 0-.1 0h.2s.1 0 .1.1c0 0 0 .1-.1.1 0 0 0 0-.1 0z"/><path d="m318.6 137.3c0-.1 0-.2.1-.2h.1s.1.1.1.1l-.3.1c.1 0 .1.1.2 0 0 0 .1-.1.1-.1 0 .1-.1.1-.1.1-.1 0-.1 0-.2 0zm0 0 .3-.1c0-.1-.1-.1-.2-.1s-.1.1-.1.2z"/><path d="m319.3 137.2s-.1-.1-.1-.1c0-.1 0-.2.1-.2h.1.1v-.1l.1.2.1.2v-.1c0 .1 0 .1-.1.1s-.2 0-.3 0zm0-.1c0 .1.1.1.2.1s.1-.1.1-.2c0-.1-.1-.1-.2-.1-.1 0-.2.1-.1.2z"/><path d="m319.9 136.9c0-.1-.1-.1-.2-.1s-.1.1-.1.1l.1.2-.1-.2-.1-.1v.1c0-.1 0-.1.1-.1h.1c.2 0 .2 0 .2.1l.1.2z"/><path d="m320.2 137s-.1 0-.1-.1c0-.1 0-.2.1-.2h.1.1l-.1-.2.2.5v-.1c0 .1-.1.1-.1.1-.1 0-.1 0-.2 0zm-.1-.1c0 .1.1.1.2.1s.1-.1.1-.2c0-.1-.1-.1-.2-.1s-.1.1-.1.2z"/><path d="m320.9 136.8-.2-.5h.1.1s.1 0 .1.1c0 .1 0 .1-.1.2h-.1zm0-.2h.1c.1 0 .1-.1.1-.1 0-.1-.1-.1-.2-.1h-.1z"/><path d="m321.2 136.4v.1c0-.1 0-.1.1-.1s-.1.1-.1.2l.1.2z"/><path d="m321.6 136.6-.1-.3z"/><path d="m321.9 136.2v.4l-.3-.3.3.3z"/><path d="m322.2 136.4s-.1 0-.1-.1c0-.1 0-.2 0-.2h.1.1v-.1l.1.2.1.1v-.1c0 .1 0 .1-.1.1 0 .2-.1.2-.2.1zm-.1 0c0 .1.1.1.2.1s.1-.1.1-.2c0-.1-.1-.1-.2-.1-.1 0-.1.1-.1.2 0-.1 0 0 0 0z"/><path d="m322.5 136.2c0-.1 0-.2 0-.2h.1.1-.1s-.1.1-.1.2c.1.1.2.1.2.1s.1 0 .1-.1-.1.1-.1.1 0 0-.2-.1z"/><path d="m323.1 135.9.1.2v.1c0 .1 0 .2-.1.2.1 0 .1-.1.1-.2s0 .1-.1.1h-.1s-.1 0-.1-.1l-.1-.2.1.2c0 .1.1.1.2.1s.1-.1.1-.1v-.2z"/><path d="m323.7 136.1-.2-.5h.1.1s.1 0 .1.1c0 .1 0 .1-.1.2h-.1zm-.1-.2h.1c.1 0 .1-.1.1-.1 0-.1-.1-.1-.2-.1h-.1z"/><path d="m324.3 135.7c0 .1 0 .2-.1.2h-.1s-.1 0-.1-.1c0-.1 0-.2.1-.2h.1c.1.1.1.1.1.1zm0 0c0-.1-.1-.1-.2-.1-.1 0-.1.1-.1.2 0 .1.1.1.2.1s.1-.1.1-.2z"/><path d="m324.3 135.4.2.5z"/><path d="m324.7 135.8-.1-.3z"/><path d="m324.8 135.6c0-.1 0-.2 0-.2h.1.1-.1c-.1 0-.1.1-.1.2.1.1.2.1.2.1s.1 0 .1-.1-.1.1-.1.1-.1 0-.2-.1c0 .1 0 .1 0 0z"/><path d="m325.4 135.3.1.2v.1c0 .1 0 .2-.1.2.1 0 .1-.1.1-.1v-.1c0 .1 0 .1-.1.1h-.1s-.1 0-.1-.1l-.1-.2.1.2c0 .1.1.1.2.1s.1-.1.1-.1v-.1z"/></g><path d="m304.7 124.6s-.1-.1 0 0l-.2-.1h-.1l.1.2-.3-.4h.1c.1 0 .2 0 .2.1.1 0 .1.1.2.2 0-.1 0 0 0 0zm-.3-.3h-.1l.1.2h.1c.1 0 .1-.1 0-.1 0-.1-.1-.1-.1-.1z" fill="#ffac27"/><path d="m304.8 124.5c0-.1 0-.1 0-.2.1 0 .2 0 .3.1l-.3.1c.1.1.2.1.3.1 0 0 .1 0 .1-.1 0 .1 0 .1-.1.1s-.2 0-.3-.1zm0 0 .3-.1c-.1-.1-.1-.1-.2-.1-.1.1-.1.1-.1.2z" fill="#ffac27"/><path d="m305.8 124.2c0-.1-.1-.1-.2-.1s-.1.1 0 .1l.1.2-.1-.2c0-.1-.1-.1-.2-.1s-.1.1 0 .1l.1.2-.1-.2-.1-.1s0-.1.1-.1h.2c0-.1 0-.1.1-.1s.2 0 .2.1l.1.2z" fill="#ffac27"/><path d="m306 124c.1 0 .2 0 .3.1s0 .2-.1.2-.2 0-.3-.1c0-.1 0-.2.1-.2zm.2.3c.1 0 .1-.1 0-.2 0-.1-.1-.1-.2-.1s-.1.1-.1.1c.1.2.2.2.3.2z" fill="#ffac27"/><path d="m306.7 124.2-.3-.3.3.3-.1-.3z" fill="#ffac27"/><path d="m306.8 124c0-.1 0-.1 0-.2h.1c.1 0 .2 0 .3.1l-.4.1c.1.1.2.1.3.1 0 0 .1 0 .1-.1 0 .1 0 .1-.1.1s-.2-.1-.3-.1zm0 0 .3-.1s-.1-.1-.1-.1c-.1 0-.2 0-.2.2 0-.1 0-.1 0 0z" fill="#ffac27"/><path d="m313 116.3h.1v.1l-.1-.1.1.2c.1 0 .2 0 .2.1v.2c-.1 0-.1 0-.2 0h.1l-.1-.1c-.1 0-.2 0-.2-.1-.1-.1-.1-.2.1-.3-.1.1-.1 0 0 0zm.1.2-.1-.1s-.1 0 .1.1c-.1.1-.2 0 0 0zm.1.1.1.1s0 0-.1-.1z"/><path d="m313.6 116.4c.1 0 .1.1.1.1v.1s-.1.1-.1.1c-.1 0-.1 0-.2 0m.1 0c.1 0 .1 0 0 0h.1s0 0 0-.1c.1 0 0 0-.1.1.1-.1 0-.1 0 0 0-.1 0-.1 0 0v-.2h-.1s0 0-.1 0v-.1l.2-.1h.1s0 0 0 0v.1z"/><path d="m314.3 116.4-.3.1.1-.4h.1zm-.3-.2v.2h.1z"/><path d="m308.4 133 .3.4z"/><path d="m308.8 133 .1.2h-.1l-.2-.2h-.1l-.1-.1.1.1z"/><path d="m309 133.2c0-.1 0-.1 0-.2.1 0 .2 0 .3.1l-.3.1c.1.1.2.1.3.1 0 0 .1 0 .1-.1s0 .1-.1.1-.2-.1-.3-.1zm0 0 .3-.1c-.1-.1-.1-.1-.2-.1 0 0 0 .1-.1.2z"/><path d="m310 132.9c0-.1-.1-.1-.2-.1s-.1.1 0 .1l.1.2-.1-.2c0-.1-.1-.1-.2-.1v.1l.1.2-.1-.2-.1-.1s0-.1.1-.1h.2s0-.1.1-.1.2 0 .2.1l.1.2z"/><path d="m310.4 132.5h-.1l.3-.1-.2.1.3.3z"/><path d="m310.9 132.5c.1 0 .2 0 .3.1s0 .2-.1.2-.2 0-.3-.1 0-.2.1-.2zm.2.3c.1 0 .1-.1 0-.2 0-.1-.1-.1-.2-.1s-.1.1-.1.1c0 .2.2.2.3.2z"/><path d="m311.3 132.4.2.2h-.1l-.1-.2h-.1.1l-.1-.1z"/><path d="m311.7 132.3.2.3v-.1c0 .1 0 .1-.1.1s-.2 0-.3-.1c0-.1 0-.1 0-.2h.1c.1 0 .2 0 .1 0 .1-.1 0 0 0 0zm.1.1c0-.1-.1-.1-.2-.1s-.1.1 0 .2c0 .1.1.1.2.1 0 0 .1-.1 0-.2z"/><path d="m311.8 132.1.3.4z"/><path d="m321.7 129.4h.2-.1l.1.1c.1 0 .2 0 .2.1s0 .1-.1.2c-.1 0-.1 0-.2 0s0 0 0-.1h.1l-.1-.1c-.1 0-.2 0-.2-.1s0-.1.1-.2c.1 0 0 .1 0 .1zm.1.2-.1-.1s0 0 .1.1zm.1.1.1.1c.1 0 .1 0-.1-.1.1 0 .1 0 0 0z"/><path d="m322.4 129.5c.1 0 .1.1.1.1v.1s-.1.1-.1.1c-.1 0-.1 0-.2 0m.1 0c.1 0 .1 0 0 0h.1v-.1s0 0-.1.1c.1-.1 0-.1 0 0 0-.1 0-.1 0-.1v-.1h-.1s0 0-.1 0l.2-.1h.1v.1z"/><path d="m323.1 129.5c-.1 0-.1 0 0 0h-.3l.1-.4h.1l.2.3c-.1 0-.1 0-.1.1zm-.3-.2v.2h.1z"/><path d="m309.5 134.8h.2s.1 0 .1-.1v-.1s-.1-.1-.1-.1h-.3s-.1 0-.1-.1v-.1s.1-.1.1-.1h.2c-.1 0-.1 0-.2 0 0 0-.1 0-.1.1v.1h.1.1.2s.1 0 .1.1v.1s-.1.1-.1.1c0 .1-.1.1-.2.1z"/><path d="m310.2 134.4c0-.1-.1-.1-.2-.1 0 0-.1 0-.1.1l.1.2-.1-.2-.2-.2.1.2s0-.1.1-.1c.3 0 .4.1.3.1l.2.2z"/><path d="m310.4 134.3.2.3z"/><path d="m310.7 134.4-.1-.1.1.1c-.1-.1 0-.2 0-.2.1 0 .2 0 .3.1v.2s0 0-.1 0-.1 0-.2 0l.1.2zm0 0c.1.1.1.1.2.1 0 0 .1-.1 0-.1-.1-.1-.1-.1-.2-.1-.1-.1-.1 0 0 .1z"/><path d="m311.2 134.2-.1-.1.1.1c-.1-.1 0-.2 0-.2.1 0 .2 0 .3.1s0 .2-.1.2-.1 0-.2 0l.1.2zm0 0c.1.1.1.1.2.1 0 0 .1-.1 0-.2-.1-.1-.1-.1-.2-.1-.1.1-.1.1 0 .2-.1 0-.1 0 0 0z"/><path d="m311.5 134 .2.3z"/><path d="m312.1 134c0-.1-.1-.1-.2-.1s-.1.1 0 .1l.1.2-.1-.2-.1-.1s0-.1.1-.1.2.1.2.2l.2.1z"/><path d="m312.7 134v.2h-.1.1s0-.1 0-.2c0 .1-.1.1-.1.1-.1 0-.2 0-.3-.1 0-.1 0-.1 0-.2h.2v-.1zm-.1-.1c-.1-.1-.1-.1-.2-.1s-.1.1 0 .2c0 .1.1.1.2.1 0-.1 0-.1 0-.2z"/><path d="m322.7 130.8h.1m0 .1h-.1l.1.1c.1 0 .2 0 .2.1s0 .1-.1.2v-.1c-.1 0-.1 0-.2 0h.1l-.1-.1c-.1 0-.2 0-.2-.1v-.1h.1zm0 .1-.1-.1s-.1 0 .1.1c-.1.1-.1 0 0 0zm.1.1.1.1s0 0-.1-.1z"/><path d="m323.3 130.9c.1 0 .1.1.1.1v.1s-.1.1-.1.1c-.1 0-.1 0-.2 0m.2 0h.1s0 0 0-.1c0 0 0-.1-.1-.1h-.1s0 0-.1 0 0 0-.1 0l-.2-.2.2-.1h.1v.1l-.2.1v.1c.1-.1.2-.1.2-.1z"/><path d="m310.6 135.7h-.1l.2.4s0 0-.1 0l-.2-.4h-.1s0 0-.1 0c0 0 0 0 0-.1l.3-.1m.1.1v.1z"/><path d="m310.9 136.1c-.1 0-.1-.1-.1-.1v-.1s.1-.1.1-.1h.1c.1 0 .1.1.1.1v.1s0 .1-.1.1c.1 0 0 0-.1 0zm0-.2c0 .1 0 .1 0 0 .1.1.1.1.2.1v-.1c-.1 0-.1 0-.2 0-.1 0 0 0 0 0z"/><path d="m311.3 135.7.1.2h.1v.1c-.1 0-.1 0-.1-.1zm-.1 0-.1-.1m.1-.1.1.1z"/><path d="m311.9 135.7.1.1m-.1.1c-.1 0-.1.1-.1.1-.1 0-.1 0-.2 0s-.1-.1-.1-.1v-.1s0-.1.1-.1h.1.1zm-.1-.2s-.1-.1 0 0l-.2-.1v.1l.1.1.1-.1c-.1.1 0 .1 0 0z"/><path d="m311.9 135.3.3.4m-.1 0-.3-.4z"/><path d="m323.6 132.2h.2v.1l-.2-.1.1.2c.1 0 .2 0 .3.1v.2m-.1-.1c-.1 0-.1 0-.2 0m0 0h.1l-.1-.1c-.1 0-.2 0-.2-.1s0-.1.1-.2zm0-.2-.1-.1s0 0 .1.1c-.1 0 0 0 0 0zm.1.1.1.1s0 0-.1-.1c0-.1.1 0 0 0z"/><path d="m324.3 132.2c.1 0 .1.1.1.1v.1s-.1.1-.1.1c-.1 0-.1 0-.2 0 0 0 0 0 0-.1h.1.1s0 0 0-.1c0 0 0 0 0-.1l-.1.1s0 0 0-.1v-.1h-.2s0 0-.1 0l.2-.1m.1.1v.1z"/><path d="m324.4 132.2c0-.1 0-.1 0-.2h.1c.1 0 .2 0 .3.1s.1.1.1.1v.1s-.1.1-.1.1m-.1 0c.1-.1.1-.1.1-.1h-.1c-.1 0-.2 0-.3-.1zm-.2-.2s.1.1.2.1v-.1s-.1-.1-.2-.1z"/><path d="m320.9 126.5-6 1.6-.8-1.2 6-1.6zm-6 1.5 5.8-1.6-.7-1-5.8 1.6z" fill="#ebebeb"/><path d="m326.7 133-16.8 4.5-.1-.1 16.8-4.5z" fill="#ebebeb"/><path d="m328.7 136.1.8 1.2c.5.8.3 1.6-.5 1.8l-13.9 3.7c-.9.2-1.8-.2-2.3-1l-.8-1.2z" fill="#ffac27"/><path d="m319.1 140.1c-.1-.1 0-.2 0-.3h.1.2-.1s-.1 0-.1.1c-.1 0-.1 0-.1.2.1-.1.1 0 .1 0h.2s.1 0 .1-.1h.1m0 .1s-.1.1-.1.1c-.1 0-.2 0-.3-.1z" fill="#fff"/><path d="m319.8 140.1-.3-.4h.1l.1.2.2-.1-.1-.2m.1 0 .3.4m-.1 0-.1-.2h-.2l.1.2v.1h-.1z" fill="#fff"/><path d="m320.3 140-.3-.4v-.1l.2-.1h.1v.1h-.2l.1.1h.2.1s0 .1 0 .1l-.2.1.1.1.2-.1h.1l-.2.1s-.1.1-.2.1c.1 0 .1 0 0 0z" fill="#fff"/><path d="m320.6 139.7c-.1-.1-.1-.2 0-.3h.1.2-.1s-.1 0-.1.1v.1s.1.1.1.1h.2s.1 0 .1-.1h.1s0 0 0 .1c0 0-.1.1-.1.1-.2 0-.4 0-.5-.1z" fill="#fff"/><path d="m321.3 139.7-.3-.4h.1l.1.2.1-.3h.1s0 0 0 .1l-.1.2.3.1v.1l-.3-.1v.1h.1v.1s0 0-.1-.1z" fill="#fff"/><path d="m322 139.1c.1 0 .1.1.2.1v.2c0 .1-.1.1-.1.1-.1 0-.2 0-.2 0-.1 0-.1-.1-.2-.1 0-.1 0-.1 0-.2s.1-.1.1-.1zm.1.2s-.1-.1-.1-.1h-.1s-.1 0-.1.1v.1s.1.1.1.1h.2s.1 0 .1-.1c-.1 0-.1-.1-.1-.1z" fill="#fff"/><path d="m322.7 139.4c-.1 0-.3 0-.3-.1l-.2-.2s0 0 0-.1h.1l.2.2c.1.1.1.1.2.1 0 0 .1-.1.1-.1l-.2-.2h.1l.2.2c-.1 0-.1.1-.2.2z" fill="#fff"/><path d="m323.1 138.8h-.1l.2.4s0 0-.1 0l-.2-.4h-.1m-.1 0 .3-.1h.1v.1z" fill="#fff"/><path d="m311.3 110.1 18.2 27.1c.5.8.3 1.6-.5 1.8l-13.9 3.7c-.9.2-1.8-.2-2.3-1l-18.2-27.1c-1-1.6-.5-1.8.3-2l2.8-.7c.2 0 .4.1.5.3l.1.1c.2.4.6.5 1 .3l6.5-1.7c.4-.1.6-.2.3-.7l-.1-.1c-.1-.2-.1-.4 0-.5l2.8-.7c.7-.2 1.5-.2 2.5 1.2z" opacity=".3"/><path d="m321.5 128.8-12.8 3.4-6.4-9.4 12.9-3.4z" fill="#fff"/><path d="m310.4 129.2-.3-.2.3.2v-.3.3l.1.2z"/><path d="m310.7 129c.1 0 .2 0 .3.1v.2c-.1 0-.2 0-.3-.1s-.1-.2 0-.2zm.2.3c.1 0 .1-.1 0-.2 0-.1-.1-.1-.2-.1 0 0-.1.1 0 .2 0 .1.1.1.2.1z"/><path d="m311 128.9.1.2c0 .1.1.1.2.1v-.1l-.1-.2.1.2v.1s0 0-.1 0-.2 0-.2-.1z"/><path d="m311.5 128.8v.1l.1.1z"/><path d="m312.1 128.8-.1-.1s0-.1.1-.1.2 0 .3.1v.2s0 0-.1 0-.1 0-.2-.1l.2.3zm0 0c0 .1.1.1.2.1s.1-.1 0-.2c0-.1-.1-.1-.2-.1s-.1.1 0 .2c-.1 0-.1 0 0 0z"/><path d="m312.5 128.5.1.2c0 .1.1.1.2.1s.1-.1 0-.1l-.1-.2.1.2v.2c-.1 0-.2 0-.2-.1z"/><path d="m312.9 128.4s.1 0 0 0c.1 0 .1 0 0 0v.1l.1.1z"/><path d="m313.3 128.5c0-.1 0-.1 0-.2h.1.1-.1c-.1 0-.1 0-.1.2 0-.1 0-.1 0 0 .1 0 .2.1.3.1 0 0 .1 0 .1-.1s0 .1-.1.1-.2-.1-.3-.1z"/><path d="m314 128.2c0-.1-.1-.1-.2-.1s-.1.1 0 .1l.1.2-.1-.2-.2-.2.1.2s0-.1.1-.1.2.1.2.1l.2.2z"/><path d="m314.4 128 .2.3s0 .1-.1.1-.2 0-.3-.1 0-.2.1-.2c.1-.1.2-.1.1-.1zm.1.2c0-.1-.1-.1-.2-.1 0 0-.1.1 0 .2.1.1.1.1.2.1 0-.1.1-.2 0-.2z"/><path d="m314.7 128.2h.1.1-.1s0 0-.1 0c-.1 0-.1 0-.1 0s0 0 0-.1c0 0 0 0 .1-.1h.1-.1.1.2.1v.1s0 0-.1.1c-.1 0-.2 0-.3 0z"/><path d="m315 128c-.1-.1 0-.2.1-.2s.2 0 .3.1l-.4.1c.1 0 .2.1.3.1 0 0 .1 0 .1-.1 0 .1 0 .1-.1.1s-.2 0-.3-.1zm0 0 .3-.1c0-.1-.1-.1-.2-.1 0 .1-.1.1-.1.2z"/><path d="m315.9 128-.3-.2.3.2v-.2l.2.2-.1-.3.1.3-.2-.2z"/><path d="m316.6 127.4.2.3v-.1s0 .1-.1.1-.2 0-.3-.1 0-.2.1-.2h.1c0 .1-.1 0 0 0zm0 .2c0-.1-.1-.1-.2-.1s-.1.1 0 .2.1.1.2.1c0-.1.1-.1 0-.2z"/><path d="m316.8 127.6h.1.1s0 0-.1 0c0 .1 0 .1-.1 0 0 .1 0 .1 0 0 0-.1.1-.1.1-.1 0 .1 0 .1-.1.1l.2-.1s.1 0 .1.1v.1s0 0-.1.1c-.1 0-.1 0-.2 0z"/><path d="m312.5 129.8h.1.1s0 0-.1 0h-.1c-.1 0-.1 0-.1 0v-.1c-.1 0-.1 0 .1.1-.1-.1 0-.1 0 0 0-.1 0-.1 0 0l.1-.1s.1 0 .1.1v.1h-.1c-.1 0-.1 0-.1-.1z"/><path d="m312.7 129.4.1.2c0 .1.1.1.2.1 0 0 .1-.1.1-.1l-.1-.2.1.2v.1s0 0-.1 0-.2 0-.2-.1z"/><path d="m313.2 129.4c0-.1 0-.1 0-.2h.1.1-.1s-.1.1-.1.2c.1 0 .2.1.3.1h.1s-.1.1-.1.1c-.1 0-.2-.1-.3-.2z"/><path d="m313.6 129.3c0-.1 0-.1 0-.2h.1.1-.1s-.1.1-.1.2c.1 0 .2.1.3.1h.1s-.1.1-.1.1c-.1 0-.2-.1-.3-.2z"/><path d="m314 129.2c0-.1 0-.1 0-.2h.1c.1 0 .2 0 .3.1l-.4.1c.1 0 .2.1.3.1 0 0 .1-.1.1-.1 0 .1 0 .1-.1.1s-.2 0-.3-.1zm0 0 .3-.1c-.1-.1-.1-.1-.2-.1 0 .1 0 .1-.1.2z"/><path d="m314.6 129.2h.1-.1c-.1 0-.1 0-.1 0s0 0 0-.1c0 0 0 0 .1-.1h.1-.1.1.1s.1 0 .1.1v.1s0 0-.1.1c-.2 0-.2 0-.2-.1-.1.1-.1 0 0 0z"/><path d="m314.9 129.1h.1.1-.1c.1 0 0 0-.1 0-.1 0-.1 0-.1 0v-.1s0 0 .1.1c0-.1.1-.1 0 0 .1-.1 0-.1 0 0 0-.1 0-.1 0 0-.1-.1-.1 0 0 0h.1s.1 0 .1.1m0 0c-.1 0-.2 0-.2 0z"/><path d="m315.2 128.6.2.3-.2-.3c0-.1 0-.1 0 0z"/><path d="m315.4 128.7.1.2c0 .1.1.1.2.1v-.1l-.1-.2.1.2v.2c-.1 0-.2 0-.2-.1v-.3z"/><path d="m315.7 128.4.3.4z"/><path d="m309.8 127.5h-.2l.4.6v.1h-.1l-.4-.6-.2.1h-.1v-.1l.5-.2s0 0 .1.1c0-.1 0 0 0 0z"/><path d="m310.6 128s0 .1 0 0c0 .1-.1.1-.1.1l-.5-.7v-.1s.1 0 .1.1l.1.2s.1-.1.1-.1c.2 0 .4 0 .5.2l.2.3v.1h-.1l-.2-.3c-.1-.1-.1-.1-.2-.1s-.1.1-.1.1z"/><path d="m311.7 127.4.1.2v.1h-.1s-.1.1-.1.1c-.1 0-.2 0-.3 0s-.2-.1-.2-.2-.1-.1 0-.2c0-.1.1-.1.2-.2h.2v-.1h.1zm-.2 0s-.1-.1-.1-.1h-.1s-.1 0-.1.1v.1s.1.1.1.1h.1s.1 0 .1-.1c0 .1 0 0 0-.1z"/><path d="m312.4 127.2.2.3v.1h-.1l-.2-.3c-.1-.1-.1-.1-.2-.1s-.1.1 0 .2l.2.3v.1h-.1l-.2-.3-.1-.2v-.1h.1s.1-.1.1-.1c0-.1.2 0 .3.1z"/><path d="m312.8 127.4-.5-.7m.1-.1h.1l.3.4.2-.2h.1s.1.1.1.1l-.1.2.4.2s.1.1 0 .1h-.1l-.3-.2v.1l.1.1m-.1.1c0 .1-.1.1-.2.1s-.1-.1-.1-.2z"/><path d="m314.1 126.5.2.3.1.2c.1.2 0 .3-.1.4-.1 0-.1 0-.2 0 0 0-.1 0-.1-.1 0 0 0-.1.1 0h.1c.1 0 .1-.1.1-.1s-.1.1-.1.1c-.2 0-.3 0-.4-.2l-.2-.3s0 0 0-.1h.1l.2.3c0 .1.1.1.2.1s.1-.1 0-.2l-.2-.3v-.1c.1-.1.2 0 .2 0z"/><path d="m314.7 126.9c-.1 0-.2-.1-.2-.2-.1-.1-.1-.1 0-.2 0-.1.1-.1.2-.2h.3c.1 0 .2.1.2.2v.2c0 .1-.1.1-.1.2-.2 0-.3 0-.4 0zm-.1-.2s.1.1.1.1h.1s.1 0 .1-.1v-.1s-.1-.1-.1-.1h-.1s-.1 0-.1.1z"/><path d="m315.8 126.7c-.2 0-.3 0-.4-.2l-.2-.3s0 0 0-.1h.1l.2.3c0 .1.1.1.2.1s.1-.1.1-.1l-.2-.3s0 0 0-.1h.1l.2.3c.1 0 .2.1.2.2s-.2.2-.3.2z"/><path d="m316.1 126.3-.3-.5s0 0 0-.1h.1l.3.5v.1zm.3.2h-.1s0 0 0-.1 0 0 .1.1z"/><path d="m312.8 123.5c.5.6.5 1.5-.1 2-.2.2-.4.3-.7.3-1.2.2-2.5-.3-3.2-1.3-.5-.6-.5-1.5.1-2 .2-.2.4-.3.7-.3 1.2-.2 2.4.3 3.2 1.3z" fill="#ffac27"/><path d="m309.9 124.7c.2.1.4.1.5.2l.5.2h-.2c0-.4.1-.8.1-1.3 0-.2.1-.4.1-.6s.1-.4.2-.6v.7s0 .4 0 .6c0 .4-.1.8-.2 1.3v.1l-.1-.1-.5-.3c-.1 0-.3-.1-.4-.2z" fill="#fff"/><path d="m333.8 143.7s1.5-9.3.2-13-7.9-7.2-11.1-8.6c-4.1-1.7-4.6 2-3.6 4.1 1.7 3.7 6.2 7.3 6.5 7.4 0 0-7.6 5.3-5.5 13.2z" fill="#f7a9a0"/><path d="m335.5 143.3-24.4 18.7s12.9 23.7 22.4 27.1 12.5 2.4 15.2 1.9 22.7-16.4 36.1-40.8c12.7-23.1-2.1-16.1-13-8.1-6.2 4.6-26.2 16.4-27 16.2s-9.3-15-9.3-15z" fill="#ffac27"/><path d="m353.1 188.3c7.3-5.6 21.4-19.3 31.7-38 6.7-12.3 5.7-16.1 1.6-15.7-3.6 5.6-22.8 36.7-33.3 53.7z" fill="#263238" opacity=".1"/><path d="m337.4 150.6c-1.6 1.5-3.2 2.9-4.9 4.2-1.7 1.4-3.5 2.8-5.2 4.1s-8.9 6.6-10.7 7.9h-.1s0-.1 0-.1c1.7-1.4 8.5-7 10.2-8.3s3.4-2.7 5.2-3.9c1.8-1.5 3.6-2.8 5.5-3.9 0-.1.1 0 0 0z" fill="#263238"/><path d="m370.7 211.6c1.4 1.4 58.5.9 58.5.9.3-.4-10.9-67.1-30.9-77.7-3.4-1.8-12.6-1.6-15 .8-10.1 9.9-13.4 75.1-12.6 76z" fill="#ffac27"/><path d="m396.8 134.1s-3.5 20.9-3.6 21.2-15.2-1.1-15.4-1.3 5-18.1 5-18.1l-1.5 1.2s-6.1 17.8-7.7 29.9-3 46.1-3 46.1l58.6-.6c-1.7-11.9-4-23.7-7.1-35.3 0 0-16.2-7.1-19.4-9.2s-4-33.1-4-33.1z" fill="#455a64"/><path d="m375.8 169.2c2.1 1.8 4.6 3.2 7.3 4.1 1.5.3 8.7-.8 9.9-1.8.5-.4 1-10.8.9-11.5s-16-2.3-16.5-1.8c-1.2 1.1-2 10.5-1.6 11zm1.8-10.3c.6-.4 14.7.7 15.7 1.6-.1 2.2-.7 10.3-.9 10.5s-7.9 1.9-9.2 1.6c-2-.4-6.2-3.1-6.9-3.8-.4-.3.9-9.6 1.3-9.9z" fill="#263238"/><path d="m384.7 145.4c3.4.8 9.2-4.6 11.5-8.9.1-.3-.4-3.4-.8-7.1-.2-2.3-.5-4.8-.5-7.1l-14.6 3.8c.9 2.9 1.4 5.9 1.6 8.9 0 .3 0 .7-.1 1v.2c-.3 1.8-.4 8.5 2.9 9.2z" fill="#f7a9a0"/><path d="m380.3 126.1c.9 2.9 1.4 5.9 1.6 8.9 0 .3 0 .7-.1 1v.1c.5.1 1 .1 1.5.1 8.5-.4 10.7-10.9 11.1-13.8z" fill="#263238"/><path d="m396.3 105.1c1.5 5.2-1.3 20.2-5 23.5-5.4 4.8-14.1 5.2-18.2-1.3-3.9-6.3.1-25.7 4.3-28.7 6-4.4 16.5-1.2 18.9 6.5z" fill="#f7a9a0"/><path d="m381.2 114.3s.1.1.1.1c-.2 1-.4 2.2.5 2.7v.1c-1.1-.4-1-2-.6-2.9z" fill="#263238"/><path d="m382.3 113.4c1.6.2 1.1 3.5-.4 3.3s-1-3.4.4-3.3z" fill="#263238"/><path d="m375.3 113.3c-.2 1.1-.6 2.2-1.5 2.4 1.1.1 1.5-1.5 1.5-2.4z" fill="#263238"/><path d="m374.6 112.1c-1.6-.4-2.3 2.8-.8 3.2s2.1-2.9.8-3.2z" fill="#263238"/><path d="m383.9 111.2c-.4-.2-.8-.4-1.2-.7-.4-.2-.8-.5-1.1-.9-.1-.3 0-.6.3-.8.6-.3 1.2-.2 1.7.1.6.3 1 .7 1.2 1.3.1.4-.1.8-.5.9-.1.1-.3.1-.4.1z" fill="#263238"/><path d="m373.9 109.3c.5 0 .9-.1 1.3-.1.5 0 1-.1 1.4-.4.2-.2.3-.6.1-.8-.4-.5-1-.7-1.6-.6-.6 0-1.2.3-1.7.7-.3.3-.3.8 0 1 .2.2.4.2.5.2z" fill="#263238"/><path d="m380.7 123.4c-.2.2-.5.6-.8.6-.4 0-.8-.1-1.1-.2 0 0-.1 0 0 .1.3.4.8.6 1.3.5.4-.1.7-.5.8-.9 0-.2-.1-.2-.2-.1z" fill="#263238"/><path d="m379.9 120.2c-.7.7-1.6 1.1-2.5 1.1-.4 0-.8 0-1.2-.2-.1 0-.3-.1-.4-.1s-.2-.1-.2-.3l.4-2.1c-.3.1-1.9.5-1.8.1.7-3.5 1.7-6.9 3.1-10.1 0 0 .1-.1.1-.1s.1.1.1.1c-.6 3.2-1.8 6.3-2.5 9.5.6-.2 1.1-.2 1.7-.2 0 0-.6 2.6-.6 2.6 1.3.4 2.6.2 3.7-.5.1.1.2.2.1.2z" fill="#263238"/><path d="m376.6 120.9c.3.6.8 1.2 1.4 1.6.3.2.7.3 1.1.3.9-.1 1-.8 1-1.5 0-.3-.1-.7-.2-1-1 .6-2.1.8-3.3.6z" fill="#263238"/><path d="m378 122.5c.3.2.7.3 1.1.3.9-.1 1-.8 1-1.5-.9-.2-1.7.3-2.1 1.2z" fill="#ff9cbd"/><path d="m397.3 120c-4.2-.2-5.8-5.4-4.4-9.3 0 0-11.2.2-10.8-8.7-2.1 2.3-5.1 3.5-8.2 3.3l-1.1 3c-1.1-.5-2-3.8 1.1-6 .5-2.7 2-5.1 4.2-6.7 2-1.4 4.6-1.4 6.6-.2 2.1-1.2 4.6-1.5 6.9-.9 2.4.7 4.4 2.5 5.3 4.9 0 0 5.4 1.7 5.9 5.7.3 2.3-.3 4.6-1.8 6.4 0 0 1.2 1.7.1 4.9-.6 2.1-2.6 3.7-3.8 3.6z" fill="#263238"/><path d="m382.4 101.2c-.2.7-.3 1.4-.3 2.2 0 .7 0 1.4.2 2.2.3 1.4 1.1 2.6 2.2 3.5 1.2.8 2.6 1.3 4 1.5.7.1 1.4.2 2.2.2s1.5 0 2.2 0c-.7.1-1.5.2-2.2.2s-1.5 0-2.2 0c-1.5-.1-3-.6-4.2-1.5s-2.1-2.3-2.3-3.8c-.3-1.5-.1-3.1.4-4.5z" fill="#263238"/><path d="m376.1 105.7c1.3-.3 2.5-.8 3.6-1.4.5-.3 1-.7 1.5-1.2.4-.5.8-1 1.1-1.6-.1.7-.4 1.3-.8 1.8-.4.6-.9 1-1.5 1.4s-1.2.6-1.9.8-1.3.3-2 .2z" fill="#263238"/><path d="m392.4 118.2s3.5-4.7 5.7-3.5-.6 8.2-3.2 9.1c-1.3.6-2.9-.1-3.4-1.4v-.1z" fill="#f7a9a0"/><path d="m397.2 116.7s.1 0 0 0c-1.8.8-2.8 2.4-3.5 4.1.4-.7 1.3-.9 2-.5.1 0 .1.1.2.1 0 0 0 .1-.1.1-.6-.2-1.4 0-1.8.5-.3.4-.6.9-.9 1.4-.1.2-.4.1-.3-.1 0-2.3 1.9-5.5 4.4-5.6z" fill="#263238"/><path d="m409.1 154.7c1 8.7 1.4 45.4-2.1 51.6-6.2 11.3-46.4 5.6-55.4 5.9-3.8.1-4.9-27.7-1.2-29.4 2.5-1.1 33.1 3.7 35.3 1.6s7.7-19.2 10.7-33.4c2.8-13.6 10.7-14.7 12.7 3.7z" fill="#f7a9a0"/><path d="m343.2 179.4c-8.6-1.8-11.2-1-17.6-6.4-4.3-3.6-8.4-2.4-6.2 3 3.6 8.7 14.3 13.4 18.4 14z" fill="#f7a9a0"/><path d="m365.8 189.5s-9.4-6.1-18.5-9c-6.2-2-20.3-4.8-34.9 8.3-3.5 3.1-6.2 10 1.3 7 5.3-2.1 8-5.1 11.4-5.8 0 0-2.4 9.1.8 12.5 2.8 2.9 5.9 5.6 9.1 8.1.6-.5 1.2-1 1.7-1.6 0 0 4.8 4.8 14.9 3.3z" fill="#f7a9a0"/><path d="m341.1 179.5c-3.1 1.4-9.8 4.4-14.3 8.7-5.1 4.8-13.5 15.5-9.9 19.2 2.6 2.7 6.2-1.1 6.2-1.1s-2.6 5.1.4 7.1c2.7 1.8 5.3-1.3 5.3-1.3s-1 3.4 1.9 4.6c3.5 1.4 5-5.9 9.8-7.5 1-.3.6-29.7.6-29.7z" fill="#f7a9a0"/><path d="m332.8 192.8c-4.5 3.4-7.9 8.1-9.7 13.5 0 .1 0 .2.1.1 2.6-4.9 5.9-9.5 9.6-13.6z" fill="#263238"/><path d="m337.5 198c-2.2 1.8-7.3 7.8-8.9 14 0 .1 0 .2.1.1 2.4-5 5.4-9.7 8.8-14.1z" fill="#263238"/><path d="m354.6 181 2.3 33.8s41.8 6.4 51.8-8.1c4.1-6 3.8-39.4 1.2-53.2s-9.5-21.4-14.6-.8-8.7 30.2-10 30.8-30.7-2.5-30.7-2.5z" fill="#ffac27"/><path d="m381.7 216.2c13.5-2 24.3-5 26-8.5 1-2.1 1.8-4.2 2.3-6.5.3-2 .5-4 .7-5.9.8-7.7 1.1-15.4.8-23.1-.2-4.4-.5-8.7-1-13.1 0-.1.1-.1.1 0 .6 3.5 1.1 7 1.5 10.5 0-.5.1-1 .1-1.5 0-1.4.1-2.8 0-4.2 0-.1.1-.1.1 0 .1 1.4.2 2.9.1 4.3 0 .8-.1 1.6-.2 2.4.4 4.1.5 8.1.5 12.2 0 4-.2 8-.6 12-.2 1.9-.4 3.9-.7 5.8-.6 2.6-1.4 5.1-2.5 7.6-1.5 3.3-9.3 6.6-27.1 8.1-.1 0-.2-.1-.1-.1z" fill="#263238"/><path d="m362.9 184.5c.4 2.3.7 4.7.8 7 .2 2.4.4 4.8.6 7.2s.6 12.1.7 14.5c0 0-.1.1-.1.1s0 0-.1-.1c-.2-2.4-1.2-11.9-1.4-14.3s-.3-4.7-.4-7.1-.3-4.9-.2-7.2c.1-.1.1-.1.1-.1z" fill="#263238"/><path d="m354.6 181.8-.1-.8c4.5.3 8.9.7 13.3 1s8.9.8 13.3 1.1c1.1.1 2.2.1 3.3.1h.4.2c.1-.2.3-.3.4-.5.3-.5.5-1 .7-1.4.9-2 1.6-4.1 2.4-6.2 1.5-4.2 2.9-8.4 4.3-12.6-1.1 4.3-2.3 8.6-3.6 12.9-.7 2.1-1.4 4.2-2.2 6.3-.2.5-.5 1-.7 1.6-.2.3-.4.6-.6.8-.2.1-.4.2-.6.2h-.5c-1.1 0-2.3 0-3.4-.1-4.5-.3-8.9-.8-13.3-1.2s-8.8-1.1-13.2-1.8z" fill="#263238"/><path d="m390.6 169.6c-.1-.9-.2-1.9-.1-2.8 0-.5.1-.9.2-1.4s.2-.9.3-1.4c.1.9.1 1.9 0 2.8 0 .9-.2 1.9-.4 2.8z" fill="#263238"/><path d="m280.1 148.2c-.2-2.1-.3-4.2-.2-6.3s.4-4.2.8-6.2c.5 4.2.3 8.4-.6 12.5z" fill="#263238"/><path d="m270.7 150.1c-1.3-1.7-2.4-3.5-3.3-5.3-1-1.9-1.8-3.8-2.4-5.8 1.3 1.7 2.4 3.5 3.3 5.3 1 1.8 1.8 3.8 2.4 5.8z" fill="#263238"/><path d="m263.5 156.4c-1.9-.8-3.8-1.8-5.5-3-1.8-1.1-3.5-2.4-5-3.8 1.9.8 3.8 1.8 5.5 3 1.7 1.1 3.4 2.4 5 3.8z" fill="#263238"/><path d="m260.4 165.5c-4.2.5-8.4.2-12.5-.6 2.1-.3 4.2-.3 6.3-.2 2 0 4.1.3 6.2.8z" fill="#263238"/><path d="m262.2 174.9c-1.7 1.3-3.5 2.4-5.3 3.3-1.9 1-3.8 1.8-5.8 2.4 1.7-1.3 3.5-2.4 5.3-3.3 1.9-1 3.8-1.8 5.8-2.4z" fill="#263238"/><path d="m268.5 182.2c-1.7 3.8-4 7.4-6.8 10.5 1.7-3.9 4-7.4 6.8-10.5z" fill="#263238"/><path d="m277.6 185.3c.5 4.2.2 8.4-.6 12.5-.3-2.1-.3-4.2-.2-6.3s.4-4.2.8-6.2z" fill="#263238"/><path d="m287.1 183.4c2.5 3.4 4.4 7.1 5.7 11.1-2.5-3.3-4.4-7.1-5.7-11.1z" fill="#263238"/><path d="m294.3 177.1c3.8 1.7 7.4 4 10.5 6.8-1.9-.8-3.8-1.8-5.5-3-1.8-1.1-3.4-2.4-5-3.8z" fill="#263238"/><path d="m297.4 168c4.2-.5 8.4-.3 12.5.6-2.1.2-4.2.3-6.3.2s-4.1-.3-6.2-.8z" fill="#263238"/><path d="m295.6 158.6c3.4-2.5 7.1-4.4 11.1-5.7-1.7 1.3-3.5 2.4-5.3 3.3-1.9.9-3.8 1.7-5.8 2.4z" fill="#263238"/><path d="m289.2 151.3c1.7-3.8 4-7.4 6.8-10.5-.8 1.9-1.8 3.8-3 5.5-1.1 1.8-2.3 3.5-3.8 5z" fill="#263238"/><path d="m221.4 442.3c-2.1.5-61.3-5.3-63.4-7-.8-.6-.5-9.3.2-19.8.1-2.3.3-4.6.5-7 1.2-15.4 2.9-31.7 2.9-31.7l38.5 3.5-2.8 31.9-.9 6.9s21.7 12.4 23.8 14.4 3.3 8.3 1.2 8.8z" fill="#eb9481"/><path d="m221.4 442.3c-2.1.5-61.3-5.3-63.4-7-1-.8-.3-13.4.8-26.7l38.5 3.7-.9 6.9s21.7 12.4 23.8 14.4 3.3 8.2 1.2 8.7z" fill="#ebebeb"/><path d="m221.4 442.3c-2.1.5-61.3-5.3-63.4-7-.8-.6-.5-9.3.2-19.8l38.2 3.6s21.7 12.4 23.8 14.4 3.3 8.3 1.2 8.8z" fill="#7bb743"/><path d="m220.7 439.9c-9.9-1.2-49.9-5.2-59.8-5.7-.1 0-.1 0 0 .1 9.8 1.4 49.9 5.1 59.8 5.8.2-.1.3-.2 0-.2z" fill="#263238"/><path d="m216.5 431.1c-2.2-.3-4.5.4-6.2 1.8-1.5 1.3-2.5 3.1-2.7 5.1 0 .1.1.1.1 0 1.1-4 4.7-6.7 8.8-6.8.1.1.1 0 0-.1.1.1 0 .1 0 0z" fill="#263238"/><path d="m200.1 420.6c-4-.5-8.7.5-11.5 3.5-.1.1.1.3.2.2 3.7-1.5 7.5-2.6 11.3-3.2.1 0 .2-.2.2-.3s-.1-.2-.2-.2z" fill="#263238"/><path d="m203 422.1c-4-.5-8.7.5-11.5 3.5-.1.1.1.3.2.2 3.6-1.5 7.4-2.6 11.3-3.2.1 0 .2-.2.2-.3s-.1-.2-.2-.2z" fill="#263238"/><path d="m206 423.6c-4-.4-8.7.5-11.5 3.5-.1.1.1.3.2.2 3.6-1.5 7.4-2.6 11.3-3.2.1 0 .2-.1.2-.3 0-.1-.1-.2-.2-.2z" fill="#263238"/><path d="m208.9 425.1c-4-.5-8.7.5-11.5 3.5-.1.1.1.3.2.2 3.7-1.5 7.4-2.6 11.3-3.2.1 0 .2-.2.2-.3s-.1-.2-.2-.2z" fill="#263238"/><path d="m164.4 425c-4.5-.4-5.1 6.5-.7 6.9s5.1-6.4.7-6.9z" fill="#263238"/><path d="m205.4 410.4c-1.9-1.9-4.5-.5-5.9 1.1-2.4 2.8-4 6.2-4.6 9.8 0 .1.1.1.1.1 0 .3.3.5.5.4h.2c3-1.7 6.5-3.1 8.9-5.6 1.3-1.5 2.6-4 .8-5.8zm-5.7 8c-1.5.9-3 1.6-4.4 2.6.8-1.9 1.8-3.8 2.8-5.7.5-.9 1.1-1.7 1.7-2.5 1-1.2 5.2-4.2 5.2.2 0 2.3-3.5 4.4-5.3 5.4z" fill="#263238"/><path d="m184.9 421.8c3.4.9 7.1.2 10.5 0 .3 0 .4-.3.4-.5 0-.1 0-.1 0-.2 0 0 0-.1 0-.2-2.5-2.7-5.6-4.7-9.1-5.8-2-.6-5.1-.3-5.6 2.2s1.8 4 3.8 4.5zm-2.2-2.5c-2.4-3.7 2.8-3.4 4.3-2.9 1 .3 1.9.8 2.8 1.2 1.9 1 3.7 2.1 5.4 3.3-1.7 0-3.4.1-5.1.2-2 .1-6.1.3-7.4-1.8z" fill="#263238"/><path d="m167.2 193.2s-1.6 107.8-.9 116.1c.2 1.9-.6 12-1.9 25-2.6 28.4-7.1 79.5-7.1 79.5l40.9 4.2s10.5-88.4 10.2-104.8-2.7-116-2.7-116z" fill="#455a64"/><path d="m197 410c-6.4-.8-4.5-.7-10.9-1.4-3.1-.4-23.6-2.7-26.6-2.4-.1 0-.1.1 0 .1 2.9.8 23.4 2.8 26.5 3 6.4.6 4.6.4 10.9.9.2 0 .2-.1.1-.2 0 .1 0 .1 0 0z" fill="#263238"/><path d="m170.9 356.2 1.8-19.4c.6-6.3 1.3-12.5 1.6-18.8.7-12.7-.6-25.4-1.1-38.1s-.8-25.4-.8-38.2c-.1-14.3 0-28.6 0-42.8 0-.1-.1-.1-.2 0-.5 25.4-.8 50.9.1 76.3.2 6.3.5 12.7.9 19 .4 6.4.8 12.8.6 19.2s-.7 12.5-1.3 18.8c-.6 6.5-1.2 12.9-1.8 19.4-1.4 14.4-3.5 36.5-4.8 50.8 0 .1.1.2.3.2.1 0 .2-.1.2-.2 1.2-12.8 3.3-33.4 4.5-46.2z" fill="#263238"/><path d="m157.8 192.2s7.8 108.8 8.5 117.1c.2 1.9-.6 12-1.9 25l35.7-137.7z" fill="#263238"/><path d="m115.5 433.8c-2-.8-48.4-38-49.3-40.6-.3-1 4.7-8 11-16.4 1.4-1.8 2.8-3.7 4.2-5.5 9.4-12.2 19.7-24.9 19.7-24.9l30.3 24-19.7 25.1-4.5 5.3s11.4 22.2 12 25.1-1.6 8.6-3.7 7.9z" fill="#eb9481"/><path d="m115.5 433.8c-2-.8-48.4-38-49.3-40.6-.4-1.2 7.1-11.4 15.3-21.9l30.2 24.1-4.5 5.3s11.4 22.2 12 25.1-1.6 8.7-3.7 8z" fill="#ebebeb"/><path d="m115.5 433.8c-2-.8-48.4-38-49.3-40.6-.3-1 4.7-8 11-16.4l30 23.9s11.4 22.2 12 25.1c.7 3-1.6 8.7-3.7 8z" fill="#7bb743"/><path d="m116.3 431.4c-7.6-6.4-38.9-31.7-47-37.5-.1 0-.1 0 0 0 7.4 6.5 39 31.5 47 37.5.1.2.2.1 0 0z" fill="#263238"/><path d="m117.6 421.8c-1.7-1.5-3.9-2.1-6.2-1.8-2 .2-3.8 1.2-5.1 2.8 0 0 0 .1.1.1 3.1-2.8 7.6-3.2 11.2-1.1-.1.1 0 .1 0 0z" fill="#263238"/><path d="m109.6 403.9c-3.1-2.5-7.6-4.3-11.6-3.4-.2 0-.1.3 0 .3 3.9.8 7.6 1.9 11.2 3.5.1.1.3.1.4-.1s.1-.2 0-.3z" fill="#263238"/><path d="m111.2 406.8c-3.1-2.5-7.6-4.3-11.5-3.4-.2 0-.1.2 0 .3 3.9.8 7.6 1.9 11.2 3.5.1.1.3 0 .4-.1s.1-.2-.1-.3z" fill="#263238"/><path d="m112.9 409.7c-3.1-2.5-7.6-4.4-11.5-3.4-.2 0-.1.3 0 .3 3.9.8 7.6 1.9 11.3 3.5.1.1.3 0 .4-.1s-.1-.2-.2-.3z" fill="#263238"/><path d="m114.5 412.5c-3.1-2.5-7.6-4.3-11.5-3.4-.2 0-.1.3 0 .3 3.9.8 7.6 1.9 11.3 3.5.1.1.3 0 .4-.1 0 0 0-.2-.2-.3z" fill="#263238"/><path d="m77.3 388.1c-3.5-2.8-7.8 2.6-4.3 5.4s7.8-2.6 4.3-5.4z" fill="#263238"/><path d="m119.6 398.3c-.5-2.6-3.5-2.9-5.6-2.3-3.5 1-6.7 3-9.2 5.7 0 0-.1.1 0 .2-.1.2 0 .5.2.7h.1c3.4.2 7.1.9 10.5.1 2.1-.5 4.5-1.9 4-4.4zm-9.1 3.6c-1.7-.1-3.4-.2-5.1-.3 1.8-1.2 3.6-2.2 5.5-3.2.9-.5 1.9-.9 2.8-1.2 1.5-.5 6.6-.6 4.2 3-1.3 2-5.4 1.8-7.4 1.7z" fill="#263238"/><path d="m96.2 396.6c2.4 2.6 5.8 4.1 8.8 5.8.2.1.5 0 .6-.2v-.1c.1 0 .1 0 .1-.1-.6-3.6-2.1-7-4.4-9.9-1.4-1.6-4.1-3-5.9-1.2s-.6 4.2.8 5.7zm-.5-3.2c0-4.4 4.2-1.4 5.2-.1.6.8 1.2 1.7 1.7 2.6 1 1.9 1.9 3.8 2.7 5.7-1.4-.9-2.9-1.7-4.3-2.6-1.8-1.2-5.3-3.2-5.3-5.6z" fill="#263238"/><path d="m110.8 399.2-32.8-24.4s49.6-62.3 50.5-68.3c1.3-8.9 9.4-45.3 16-74.8 0 0-5.1-16.9 10.1-39.9l51.2 5.3s-5.8 22.9-13.2 37c-4.1 1-8.1 2.3-11.9 4 0 0-12 66-13 74.3-2.1 16.3-56.9 86.8-56.9 86.8z" fill="#455a64"/><path d="m115.4 390.4c-5.1-4-3.6-2.9-8.8-6.9-2.5-1.9-19.1-14.6-21.8-16-.1 0-.1.1-.1.1 2.1 2.2 18.9 14.6 21.5 16.4 5.2 3.8 3.8 2.7 9.1 6.5 0 .2.2 0 .1-.1z" fill="#263238"/><path d="m194.6 233.3c-4.8 1.2-9.5 2.8-14 4.8-.1 0-.1.1-.1.2s.1.1.2.1c4.7-1.5 9.4-2.8 14.1-4.6.1-.1.2-.3.1-.4-.1 0-.2-.1-.3-.1z" fill="#263238"/><path d="m189.1 225.2c.7-2.6 1.4-5.3 1.9-8 1-5 1.5-10 1.4-15.1 0-.1-.1-.1-.1-.1-.1 0-.1.1-.1.1-.6 7-1.7 13.9-3.4 20.8-.8 3.3-3 8.1.4 9s6.6-7.2 7.3-9.5c1.8-6.4 2.7-13 2.8-19.7 0-.1-.3-.2-.3 0-.5 5.3-1.3 10-2.3 14.9-.4 2.3-3.6 14.9-7.5 13.5-.7-.2-.9-.9-.9-1.9 0-1.3.3-2.6.8-4" fill="#263238"/><path d="m189.2 231.4c-.4.8-.8 1.7-1.2 2.6-.3.7-.5 1.4-.6 2.1 0 .1.1.1.2.1h.1c.5-.6.9-1.3 1.1-2 .4-.8.8-1.6 1.2-2.4.1-.2 0-.5-.2-.6s-.5 0-.6.2z" fill="#263238"/><path d="m160.3 195.7c-1.8 2.5-3.4 5.2-4.7 8s-2.4 5.7-3.2 8.7c-.4 1.5-.7 3-1 4.5s-.5 3.1-.6 4.6c-.3 3.1-.2 6.2.1 9.3v.1c-2.5 12.8-5.1 25.6-7.7 38.3-2.6 12.8-5.2 25.5-7.8 38.3l-.2 1.2-.1.6c0 .2-.1.4-.2.6-.4.7-.9 1.4-1.4 2.1-1 1.3-1.9 2.6-2.9 3.9-2 2.6-4 5.1-6 7.7-4 5.1-27.4 34.6-35.8 44.7l35.1-45.2c2-2.6 4-5.1 6-7.7 1-1.3 2-2.6 2.9-3.9.5-.6.9-1.3 1.3-1.9.1-.2.1-.3.1-.5l.1-.6.2-1.2c2.6-12.8 5.2-25.5 7.8-38.3 2.6-12.7 5.3-25.5 7.9-38.2v.1c-.3-3.1-.3-6.3 0-9.4.1-1.6.4-3.1.6-4.6s.6-3.1 1.1-4.5c.9-3 2-5.9 3.4-8.7 1.5-2.9 3.1-5.5 5-8z" fill="#263238"/><path d="m190.2 96.7c4.2-3.1 10.8-4.4 16-2s10.2 8.5 8.6 17.7c-1.3 7.5-5.3 14.1-7.2 22.3s2.5 30.5-14.8 36.6c-15.5 5.5-40.6-9.1-37.1-27.3 2.8-14.5 23-23.6 26.1-28.8s3.8-15.2 8.4-18.5z" fill="#263238"/><path d="m185.9 104.2c-1 4.2-2.8 8.1-5.3 11.5-.7.9-1.5 1.6-2.3 2.3-.9.7-1.7 1.3-2.6 1.9-1.8 1.2-3.5 2.4-5.2 3.6-3.4 2.5-6.4 5.4-9 8.7-2.5 3.4-4.4 7.2-5.5 11.2.3-2.1.9-4.2 1.7-6.1.8-2 1.8-3.9 3-5.6 2.5-3.5 5.5-6.6 9-9.1 1.7-1.3 3.5-2.5 5.3-3.6 1.8-1 3.5-2.3 4.9-3.8 1.3-1.6 2.5-3.3 3.4-5.2s1.8-3.8 2.6-5.8z" fill="#263238"/><path d="m212.9 118.5c-1.1 4.2-2.4 8.3-3.3 12.4-.5 2.1-.8 4.2-1 6.3s-.1 4.2 0 6.4 0 4.3-.2 6.5-.6 4.3-1.1 6.4c-.6 2.1-1.5 4.1-2.7 6-1.3 1.8-2.9 3.3-4.8 4.4 1.7-1.3 3.2-2.9 4.3-4.8 1-1.8 1.8-3.8 2.3-5.9.8-4.2 1.2-8.4 1-12.7 0-2.1-.1-4.3.1-6.5s.6-4.3 1.2-6.4c1.2-4 2.6-8.1 4.2-12.1z" fill="#263238"/><path d="m197.8 149.8c4.4 9.7 21.6 40.8 32 42.6 6.9 1.2 45.2-.8 49.1-4.2 2.6-2.3-2.9-27.7-6.5-26.7s-35.5 4.8-38.2 4.2-24-23.1-31.9-28.5c-13.5-9.5-6.9 7.4-4.5 12.6z" fill="#eb9481"/><path d="m222 153.6-16.8 11s-7.9-13.5-11.1-22.4-1-13.2 9.8-4.6c6.4 5 12.4 10.3 18.1 16z" fill="#7bb743"/><path d="m204.3 161.1c2.2-1.8 4.5-3.5 6.8-5.1 1.1-.8 2.3-1.6 3.4-2.4s2.4-1.6 3.6-2.4c.1-.1.2.1.1.1-1.1.8-2.2 1.7-3.3 2.6s-2.3 1.7-3.5 2.5c-2.3 1.6-4.6 3.2-7 4.8-.1 0-.1 0-.1-.1z" fill="#263238"/><path d="m194.1 142.2c3.2 8.9 11.1 22.4 11.1 22.4l13.7-9-24-22.7c-2.7.2-2.8 3.9-.8 9.3z" opacity=".1"/><path d="m205.7 197.2 3.1-18.2s8.9-5.2 5.9-14.8c-1.3-4-11.3-25.6-17.6-30.6-5.9-4.7-11-3.7-14.7-.6-11.7 9.9-21 33.1-27.9 58.9z" fill="#7bb743"/><path d="m192.8 172.3c2.8.1 5.6.4 8.4.9 1.4.3 2.7.6 4.1 1 .7.2 1.4.4 2 .5.7.2 1.4.3 2.2.3.1 0 .1.1 0 .1-.7.1-1.3.1-2 .1s-1.3-.1-2-.3c-1.4-.3-2.8-.6-4.2-.9-2.8-.6-5.6-1.2-8.4-1.5-.3 0-.2-.2-.1-.2z" fill="#263238"/><path d="m186.1 175.3c2.3-.4 4.6-.7 6.9-.8 1.1-.1 2.3-.1 3.5 0l1.6.1c.6 0 1.2.2 1.8.2.1 0 .1.1 0 .1-.6 0-1.1.1-1.7.1l-1.7.1-3.5.1c-2.3.1-4.6.1-6.9.3-.1.1-.1-.1 0-.2z" fill="#263238"/><path d="m208 158h71.1v50.5h-71.1z" fill="#7bb743" transform="matrix(1 -.0010472 .0010472 1 -.1917 .2552)"/><path d="m208 158h71.1v50.5h-71.1z" fill="#263238" opacity=".1" transform="matrix(1 -.0010472 .0010472 1 -.1917 .2552)"/><path d="m208 158h24.2v50.5h-24.2z" fill="#263238" opacity=".2" transform="matrix(1 -.00104715 .00104715 1 -.1918 .2306)"/><path d="m209.7 205c1.8-3.6 3.6-7.2 5.3-10.8l5.2-10.9 5.2-10.9c1.7-3.6 3.4-7.3 5.1-11-1.8 3.6-3.6 7.2-5.3 10.8l-5.2 10.9-5.2 10.9c-1.7 3.7-3.4 7.4-5.1 11z" fill="#7bb743"/><path d="m209.7 161.5c1.7 3.7 3.4 7.3 5.1 11l5.2 10.9 5.3 10.9c1.8 3.6 3.5 7.2 5.3 10.8-1.7-3.7-3.4-7.3-5.1-11l-5.2-10.9-5.3-10.9c-1.7-3.6-3.5-7.2-5.3-10.8z" fill="#7bb743"/><path d="m223.8 170.9h-1l-.7-1-.7 1h-.5-.4-.7l-.2-.4-.4.4h-.7-.2-.3l-.1-.2-.2.2-.4-.4-.4.4h-.5v-12.9h7.4z" fill="#fff" opacity=".7"/><path d="m265.2 197.9h.5v7.3h-.5z" fill="#263238"/><path d="m266.5 197.9h.5v7.3h-.5z" fill="#263238"/><path d="m267.7 197.9h.5v7.3h-.5z" fill="#263238" transform="matrix(1 -.00122173 .00122173 1 -.246 .3276)"/><path d="m268.7 198.2h.5v7.3h-.5z" fill="#263238"/><path d="m270.2 197.9h.5v7.3h-.5z" fill="#263238"/><path d="m271.4 197.9h.5v7.3h-.5z" fill="#263238" transform="matrix(1 -.00122173 .00122173 1 -.246 .3321)"/><path d="m272.7 197.9h.5v7.3h-.5z" fill="#263238" transform="matrix(1 -.00122173 .00122173 1 -.246 .3336)"/><path d="m273.9 197.9h.5v7.3h-.5z" fill="#263238"/><path d="m275.1 197.9h.5v7.3h-.5z" fill="#263238"/><path d="m260.2 204.6 2 .6h-4.6l2-.6v-2.7c-1.4-.2-2-1.6-2-4h4.7c0 2.4-.6 3.8-2 4z" fill="#263238"/><path d="m256.4 201.6h-1.2v3.6h-3.1v-3.6h-1.2l2.8-3.7z" fill="#263238"/><path d="m279.2 208.4v-3.4l-46.9-6.4v9.9z" fill="#263238" opacity=".1"/><path d="m177.3 146.5c-2.1 17.3-.3 52.3 4.9 56.9 8.9 8 27.3 15.1 37.8 17.3 3.6.8 9.2-26.6 5.3-26.6-4.7.1-25.6-8.8-26-9.7-.6-1.2-7-21.7-11.4-35.7-5.3-16.7-9.8-9.1-10.6-2.2z" fill="#eb9481"/><path d="m217.3 220.3c9.4 2.8 20.9 7 31.6 4.3 1.2-.3 2.3-.9 3.1-1.9 4.8-1.1 5.8-3.7 5.8-3.7 4.2-2.4 4.8-5.2 4.8-5.2s5.7-1.3 5.4-4.9c-.3-4-8.2-1.3-13.4-2.5-12-2.8-28.3-10-31.7-11.1z" fill="#eb9481"/><path d="m240 212.4c3.5.8 7.1 1.5 10.7 1.8 3.9.2 7.9 0 11.8-.4.1 0 .1.1.1.1s0 .1-.1.1c-7.5 1.6-15.3 1.1-22.5-1.4-.3-.1-.2-.2 0-.2z" fill="#263238"/><path d="m237.3 219.5c3.5.5 9.6 1.4 20.5-.5 0 0 .1.1 0 .1-6.7 2.1-13.8 2.3-20.5.6-.3-.1-.3-.3 0-.2z" fill="#263238"/><path d="m235.9 223.2c6 .7 9.8.3 16.1-.5v.1c-7 1.7-9.7 1.5-16.1.6-.3 0-.3-.2 0-.2z" fill="#263238"/><path d="m240.3 202.3c-1.4-1-.9-1.7 2.1-1.9s15.3 1.6 15.6-2.7-17.1-6.7-22.2-5.9-13 3.7-13 3.7c3.4 1 11.1 4.5 17.5 6.8z" fill="#eb9481"/><path d="m194.6 169.4-20.1.8s.2-15.6 2-24.9 5.9-11.8 10.8 1.1c3 7.5 5.4 15.2 7.3 23z" fill="#7bb743"/><path d="m175.6 166.7c2.8-.4 5.6-.7 8.4-.9 1.4-.1 2.8-.2 4.2-.3s2.9-.1 4.3-.2c.1 0 .1.1 0 .2-1.4.1-2.8.4-4.1.5s-2.9.2-4.3.4c-2.8.2-5.6.4-8.5.5-.1-.1-.1-.2 0-.2z" fill="#263238"/><path d="m194.7 169.5c-1-2.8-1.6-5.7-2.3-8.6s-1.6-5.7-2.5-8.6c0 0 0-.1.1-.1s.1 0 .1.1c.5 1.4 1.1 2.8 1.6 4.1.2.7.5 1.4.7 2.1 0-.3-.1-.6-.1-.9-.1-.9 0-1.8 0-2.6 0-.1.1-.1.1 0 .1.9.2 1.8.3 2.6v1.9l.4 1.2c.9 2.8 1.6 5.7 2 8.6-.3.2-.3.2-.4.2z" fill="#263238"/><path d="m176.5 170.1-2 .2h-.1v-.1c0-1.5 0-2.9 0-4.4s.1-2.9.2-4.4.2-2.9.3-4.4.3-2.9.6-4.4l-.4 8.8-.2 4.4-.3 4.4-.1-.1z" fill="#263238"/><path d="m174.6 154.4c0 1.3.2 2.6.5 3.9-.2-.3-.3-.6-.4-.9s-.2-.7-.2-1c-.1-.7-.1-1.4.1-2z" fill="#263238"/><path d="m185.6 133.3c.2 1 7.4 8 12.2 8.1 1.6 0-.7-8.4-.7-8.4l.2-.6 2.4-8.7-10-7.1-1.4-1s-.5 2.4-1.1 5.4c0 .1-.1.3-.1.4s-.1.3-.1.5c-.1.4-.2.9-.3 1.4s-.1.7-.2 1-.1.7-.2 1.1c-.4 2.5-.7 5.2-.7 7.9z" fill="#eb9481"/><path d="m187.2 120.9c1.5 5.1 5.2 9.2 10.1 11.3l2.4-8.7-10-7.1-1.4-1c0 .1-.5 2.5-1.1 5.5z" fill="#263238"/><path d="m212.5 108.9c2.5 15.6-6.5 18.8-9.9 19.4-3.1.5-13.5 1.8-17.6-13.5s2.3-21.3 9.2-22.8 15.7 1.3 18.3 16.9z" fill="#eb9481"/><path d="m185.1 113.7c3.8-.2 3.3-6.2 3.3-6.2s4.2-.7 4-7.6c1.9 2.7 4.9 4.3 8.2 4.4 1.2.1-3.1-2.8-3.1-2.8s5.2 4.1 14.2 1.7c.6-.2-1.4-9.7-8.8-12.4s-13.7-.4-17.8 4.4c-2.5 1.5-4 4.2-4.1 7.1-.2 5.1 2.7 11.5 4.1 11.4z" fill="#263238"/><path d="m187.6 114.5s-3.8-4.7-5.9-3.3 1 8.3 3.7 9.1c1.4.5 2.9-.2 3.4-1.6v-.1z" fill="#eb9481"/><path d="m182.6 113.3c1.9.6 3 2.2 3.8 4-.5-.7-1.4-.8-2.1-.4-.1 0-.1.1-.2.1s0 .1.1.1c.6-.3 1.4-.1 1.8.4.4.4.7.9 1 1.4.1.2.4 0 .3-.1-.1-2.4-2.1-5.6-4.7-5.5z" fill="#263238"/><path d="m209.5 107.3c-.4 0-.7-.1-1.1-.1s-.8-.1-1.1-.3c-.2-.2-.2-.5-.1-.7.3-.4.8-.6 1.3-.4.5 0 1 .2 1.3.6.2.2.2.6 0 .8 0 0-.1.1-.3.1z" fill="#263238"/><path d="m198.9 108.5c.3-.1.7-.2 1-.4.4-.1.7-.3 1-.6.1-.2.1-.5-.1-.7-.4-.3-.9-.4-1.4-.1-.5.1-.9.4-1.2.9-.2.3-.1.7.2.8.2.1.4.2.5.1z" fill="#263238"/><path d="m201.5 111.1s-.1.1-.1.1c.2 1.1.2 2.3-.8 2.8v.1c1.3-.3 1.3-2 .9-3z" fill="#263238"/><path d="m200.5 110.1c-1.7.1-1.5 3.5.1 3.5s1.3-3.5-.1-3.5z" fill="#263238"/><path d="m199.8 110.4c-.3.2-.6.6-.9.7s-.8-.3-1.1-.6h-.1c0 .7.4 1.3 1.1 1.4s1.1-.6 1.2-1.3c0-.2-.1-.3-.2-.2z" fill="#263238"/><path d="m207.4 110.6c.1 1.2.4 2.4 1.4 2.7v.1c-1.3-.1-1.6-1.8-1.4-2.8z" fill="#263238"/><path d="m208.2 109.4c1.7-.2 2.1 3.2.5 3.4s-1.9-3.2-.5-3.4z" fill="#263238"/><path d="m209 109.6c.3.2.6.4.9.4s.6-.4.8-.8h.1c.1.7-.1 1.4-.7 1.6s-1-.3-1.3-1c0-.1.1-.3.2-.2z" fill="#263238"/><path d="m202.3 119.8c.3.2.5.6.9.6s.8-.1 1.1-.3c-.3.4-.8.7-1.4.6-.5-.1-.8-.5-.9-.9.1 0 .1-.1.3 0-.1-.1 0 0 0 0z" fill="#263238"/><path d="m206.4 115.5s.4 1.6.4 2.3c0 .1-.2.1-.4.2-1.3.4-2.7 0-3.6-1-.1-.1 0-.2.1-.1 1 .6 2.2.8 3.4.6 0-.2-.7-2.7-.6-2.7.6 0 1.2.1 1.8.2-.7-3.3-1.9-6.5-2.5-9.8 0-.1.1-.2.2-.1 1.4 3.4 2.4 6.9 3.1 10.4 0 .5-1.6.1-1.9 0z" fill="#263238"/><path d="m205.9 117.6c-.3.6-.8 1.1-1.4 1.4-.3.2-.7.2-1.1.2-.8-.1-.9-.8-.8-1.4 0-.3.1-.7.2-1 .9.6 2 .9 3.1.8z" fill="#263238"/><path d="m204.5 119c-.3.2-.7.2-1.1.2-.8-.1-.9-.8-.8-1.4.8-.1 1.6.4 1.9 1.2z" fill="#ff9cbd"/><path d="m208.6 93.8c-1.9 0-11.6 2.6-15.6 5.6s-10.3 11.2-10.6 11.6-6.2-15.3 6.2-21.4c13.6-6.6 20 4.2 20 4.2z" fill="#7bb743"/><path d="m183 110.1s5.9-13.5 10.1-17.3 14.6-7.8 22-6.5c5.8 1-5.3 10.8-5.3 10.8-.5-1-1.5-1.8-2.6-2-3.6-.5-9.5 2-12.7 4-4.1 2.5-11.5 11-11.5 11z" fill="#7bb743"/><path d="m183 110.1s5.9-13.5 10.1-17.3 14.6-7.8 22-6.5c5.8 1-5.3 10.8-5.3 10.8-.5-1-1.5-1.8-2.6-2-3.6-.5-9.5 2-12.7 4-4.1 2.5-11.5 11-11.5 11z" opacity=".2"/><path d="m197.1 132.9-2.5 7.1-9.1-8.4-2.3 2.9s9.1 13.6 9.1 13l2.6-6.1 4.3 4-.8-10.5z" fill="#7bb743"/><path d="m199.2 140.1c-.2-1.7-.3-3.5-.6-5.2 0-.1-.1-.1-.1 0-.3 1.7.5 8.3.6 9.9-.2-.2-4-3.5-4-3.4-.6 1-2.5 5.4-2.6 5.9-1.4-2.2-6.9-10-8.6-12.1 0-.1-.1 0-.1.1 1.3 2.3 8.6 12.9 8.7 12.9 1-2.1 1.9-4.3 2.7-6.5.6.7 4.5 4.5 4.5 4.3-.1-2.1-.3-4-.5-5.9z" fill="#263238"/><path d="m282.2 156.6c2.1 3.8 7 8.5 7.6 11.7.3 1.6-.4 3.2-1.9 4 0 0 3.3 1.4 3.3 4.4 0 1.5-2.4 2.9-2.4 2.9 1.5.7 2.4 2.3 2.4 3.9-.1 2.1-2.5 3.2-2.5 3.2s1.9 2.4 1.1 4.5c-1.6 4.3-19.8 5.2-22.9-1.3-1.5-3 3-3 3-3s-6.4-1.6-6.7-5.3 5.5-3.4 5.5-3.4-6.2-1.6-6.1-5.5c.1-4.1 5.8-2.7 5.8-2.7s-4.2-2.5-3.4-5.5c1.2-4.9 9.2.8 13.1-.4l1.9-6.7z" fill="#eb9481"/><path d="m286.2 162.1c-1.6-3.8 2.9-8.8 1.9-12.7-1.4-5.2-7.1.3-8 8l.3 6.1z" fill="#eb9481"/><path d="m288.4 186.9c.1 0 .1.1 0 0-6.1 1.9-12.6 1.9-18.7-.1-.2-.1-.2-.4.1-.4 6.1 1.1 12.4 1.2 18.6.5z" fill="#263238"/><path d="m289 179.6c.1 0 .1.1 0 .1-6.8 2-14 1.5-20.4-1.4-.2-.1-.3-.4 0-.3 4.3 1.8 14.5 2.4 20.4 1.6z" fill="#263238"/><path d="m268.1 169.6c6.3 2.8 12.9 3.2 19.7 2.8.1 0 .1.1 0 .1-3.3 1.1-7.6 1-11 .6-3.2-.3-6.2-1.4-8.8-3.3-.1-.1-.1-.3.1-.2z" fill="#263238"/><path d="m246.7 300v127.5c0 9.2-6.9 16.6-15.3 16.6h-151.3c-8.5 0-15.3-7.4-15.3-16.6v-127.5z" fill="#fff"/><ellipse cx="155.7" cy="365.8" fill="#7bb743" rx="35.8" ry="35.8" transform="matrix(.9215 -.3883 .3883 .9215 -129.8426 89.1759)"/><path d="m135.4 372.3c2.1 1.8 4 3.9 6 5.8s3.8 4.1 5.6 6.2h-3.2c4.7-7.1 9.8-14 15.1-20.6 2.6-3.3 5.4-6.6 8.3-9.8s5.8-6.3 8.9-9.2c-2 3.9-4.1 7.5-6.4 11.2-2.3 3.6-4.6 7.2-7.1 10.6-4.9 7-10.1 13.7-15.7 20.2l-1.8 2.1-1.4-2.1c-1.5-2.3-3-4.6-4.4-7-1.4-2.5-2.7-4.9-3.9-7.4z" fill="#fff"/><path d="m324 87.9h-13.3v13.9z" fill="#ffac27"/><path d="m306.8 44.4h43.5v43.5h-43.5z" fill="#ffac27"/><path d="m336 75.9h-16.2l-4.1-16.4h-1.6v-1.4h2.7l.8 3.2h22.4zm-15.1-1.4h14l3.2-11.8h-20.2z" fill="#fff"/><path d="m333.4 78.5-1.1-2.6h-9.2l-.9 2.6-1.3-.5 1.2-3.5h11.1l1.5 3.5z" fill="#fff"/><path d="m317.9 64.5h20.2v1.4h-20.2z" fill="#fff"/><path d="m327.4 59.5h1.4v18.3h-1.4z" fill="#fff" transform="matrix(.00436331 -1 1 .00436331 258.015 396.4995)"/><path d="m319.7 71.5h16.6v1.4h-16.6z" fill="#fff"/><path d="m327.1 62.1h1.4v13.1h-1.4z" fill="#fff"/><path d="m324.3 68h13.1v1.4h-13.1z" fill="#fff" transform="matrix(.0793291 -.9968 .9968 .0793291 236.2015 393.0352)"/><path d="m327.5 67.9h13.3v1.4h-13.3z" fill="#fff" transform="matrix(.1809 -.9835 .9835 .1809 206.2139 384.8594)"/><path d="m324.1 62.1h1.4v13.1h-1.4z" fill="#fff" transform="matrix(.9968 -.07985098 .07985098 .9968 -4.4448 26.1571)"/><path d="m320.9 62h1.4v13.3h-1.4z" fill="#fff" transform="matrix(.9835 -.1809 .1809 .9835 -7.1122 59.2884)"/><path d="m334.1 80.5c-1.2 0-2.2-1-2.2-2.2s1-2.2 2.2-2.2 2.2 1 2.2 2.2c0 1.2-1 2.2-2.2 2.2zm0-3c-.5 0-.8.4-.8.8s.4.8.8.8c.5 0 .8-.4.8-.8 0-.5-.3-.8-.8-.8 0-.1 0-.1 0 0z" fill="#fff"/><path d="m321.6 80.5c-1.2 0-2.2-1-2.2-2.2s1-2.2 2.2-2.2 2.2 1 2.2 2.2c0 1.2-1 2.2-2.2 2.2zm0-3c-.5 0-.8.4-.8.8s.4.8.8.8c.5 0 .8-.4.8-.8 0-.5-.3-.8-.8-.8 0-.1 0-.1 0 0z" fill="#fff"/><path d="m345.1 57.7c0 3.3-2.7 5.9-5.9 5.9s-5.9-2.7-5.9-5.9c0-3.3 2.7-5.9 5.9-5.9 3.2 0 5.9 2.7 5.9 5.9z" fill="#263238"/><path d="m338.5 61.1-2.6-2.6.9-.8 1.5 1.5 3-4.8 1.1.6z" fill="#fff"/></svg>