<svg viewBox="0 0 394.09 326.23" xmlns="http://www.w3.org/2000/svg"><path d="m50.49 153.41c-1.55-.1-2.72-1.44-2.62-2.98.09-1.4 1.21-2.52 2.62-2.62 6.86 0 12.63-9.82 12.63-21.44.1-1.55 1.44-2.72 2.98-2.62 1.4.09 2.52 1.21 2.62 2.62 0 15.16-7.98 27.04-18.23 27.04z" fill="#7bb743"/><path d="m92.78 153.41c-1.55-.1-2.72-1.44-2.62-2.98.09-1.4 1.21-2.52 2.62-2.62 6.86 0 12.63-9.82 12.63-21.44.1-1.55 1.44-2.72 2.98-2.62 1.4.09 2.52 1.21 2.62 2.62.06 15.16-8.01 27.04-18.23 27.04z" fill="#7bb743"/><path d="m135.04 153.41c-1.55-.1-2.72-1.44-2.62-2.98.09-1.4 1.21-2.52 2.62-2.62 6.84 0 12.63-9.82 12.63-21.44 0-1.54 1.25-2.79 2.79-2.79s2.79 1.25 2.79 2.79c.04 15.16-7.96 27.04-18.22 27.04z" fill="#7bb743"/><path d="m177.37 153.41c-1.55.1-2.88-1.07-2.98-2.62s1.07-2.88 2.62-2.98h.37c6.84 0 12.63-9.82 12.63-21.44 0-1.54 1.25-2.79 2.79-2.79s2.79 1.25 2.79 2.79c0 15.16-8.01 27.04-18.22 27.04z" fill="#7bb743"/><path d="m219.66 153.41c-1.55-.1-2.72-1.44-2.62-2.98.09-1.4 1.21-2.52 2.62-2.62 6.86 0 12.63-9.82 12.63-21.44.1-1.55 1.44-2.72 2.98-2.62 1.4.09 2.52 1.21 2.62 2.62 0 15.16-8.01 27.04-18.23 27.04z" fill="#7bb743"/><path d="m261.95 153.41c-1.55-.1-2.72-1.44-2.62-2.98.09-1.4 1.21-2.52 2.62-2.62 6.84 0 12.63-9.82 12.63-21.44.1-1.55 1.44-2.72 2.98-2.62 1.4.09 2.52 1.21 2.62 2.62 0 15.16-8.01 27.04-18.23 27.04z" fill="#7bb743"/><g opacity=".3"><path d="m50.49 153.41c-1.55-.1-2.72-1.44-2.62-2.98.09-1.4 1.21-2.52 2.62-2.62 6.86 0 12.63-9.82 12.63-21.44.1-1.55 1.44-2.72 2.98-2.62 1.4.09 2.52 1.21 2.62 2.62 0 15.16-7.98 27.04-18.23 27.04z"/><path d="m92.78 153.41c-1.55-.1-2.72-1.44-2.62-2.98.09-1.4 1.21-2.52 2.62-2.62 6.86 0 12.63-9.82 12.63-21.44.1-1.55 1.44-2.72 2.98-2.62 1.4.09 2.52 1.21 2.62 2.62.06 15.16-8.01 27.04-18.23 27.04z"/><path d="m135.04 153.41c-1.55-.1-2.72-1.44-2.62-2.98.09-1.4 1.21-2.52 2.62-2.62 6.84 0 12.63-9.82 12.63-21.44 0-1.54 1.25-2.79 2.79-2.79s2.79 1.25 2.79 2.79c.04 15.16-7.96 27.04-18.22 27.04z"/><path d="m177.37 153.41c-1.55.1-2.88-1.07-2.98-2.62s1.07-2.88 2.62-2.98h.37c6.84 0 12.63-9.82 12.63-21.44 0-1.54 1.25-2.79 2.79-2.79s2.79 1.25 2.79 2.79c0 15.16-8.01 27.04-18.22 27.04z"/><path d="m219.66 153.41c-1.55-.1-2.72-1.44-2.62-2.98.09-1.4 1.21-2.52 2.62-2.62 6.86 0 12.63-9.82 12.63-21.44.1-1.55 1.44-2.72 2.98-2.62 1.4.09 2.52 1.21 2.62 2.62 0 15.16-8.01 27.04-18.23 27.04z"/><path d="m261.95 153.41c-1.55-.1-2.72-1.44-2.62-2.98.09-1.4 1.21-2.52 2.62-2.62 6.84 0 12.63-9.82 12.63-21.44.1-1.55 1.44-2.72 2.98-2.62 1.4.09 2.52 1.21 2.62 2.62 0 15.16-8.01 27.04-18.23 27.04z"/></g><path d="m23.99 129.24h272.28c7.55.15 13.81 5.9 14.61 13.41l15.08 169.98c.72 6.65-4.1 12.63-10.75 13.34-.49.05-.98.08-1.47.07h-272.3c-7.55-.16-13.8-5.9-14.61-13.41l-15.07-169.98c-.72-6.65 4.08-12.62 10.73-13.34.5-.05 1-.08 1.5-.07z" fill="#7bb743"/><path d="m23.99 129.24h272.28c7.55.15 13.81 5.9 14.61 13.41l15.08 169.98c.72 6.65-4.1 12.63-10.75 13.34-.49.05-.98.08-1.47.07h-272.3c-7.55-.16-13.8-5.9-14.61-13.41l-15.07-169.98c-.72-6.65 4.08-12.62 10.73-13.34.5-.05 1-.08 1.5-.07z" fill="#fafafa" opacity=".4"/><path d="m294 129.24h-272.29c-7.47.09-13.6 5.95-14.02 13.41l-7.67 169.98c-.37 7.03 5.02 13.02 12.05 13.39.24.01.48.02.72.02h272.32c7.47-.09 13.6-5.95 14.02-13.41l7.68-169.98c.36-7.03-5.04-13.03-12.08-13.39-.25-.01-.49-.02-.74-.02z" fill="#7bb743"/><path d="m294 129.24h-272.29c-7.47.09-13.6 5.95-14.02 13.41l-7.67 169.98c-.37 7.03 5.02 13.02 12.05 13.39.24.01.48.02.72.02h272.32c7.47-.09 13.6-5.95 14.02-13.41l7.68-169.98c.36-7.03-5.04-13.03-12.08-13.39-.25-.01-.49-.02-.74-.02z" fill="#fafafa" opacity=".2"/><path d="m26.71 281.12 6.34-140.38c.16-2.86 2.51-5.1 5.37-5.13h238.3c2.69-.02 4.89 2.15 4.91 4.85v.28l-6.35 140.38c-.16 2.86-2.51 5.1-5.37 5.13h-238.3c-2.69.02-4.89-2.15-4.91-4.85 0-.09 0-.19 0-.28z" fill="#7bb743"/><path d="m26.71 281.12 6.34-140.38c.16-2.86 2.51-5.1 5.37-5.13h238.3c2.69-.02 4.89 2.15 4.91 4.85v.28l-6.35 140.38c-.16 2.86-2.51 5.1-5.37 5.13h-238.3c-2.69.02-4.89-2.15-4.91-4.85 0-.09 0-.19 0-.28z" fill="#fafafa" opacity=".1"/><path d="m19.99 292.58 6.65-147.42c.16-3 2.63-5.36 5.63-5.38h250.25c2.82-.02 5.12 2.24 5.15 5.06v.32l-6.66 147.42c-.16 3-2.62 5.36-5.62 5.39h-250.29c-2.81.02-5.11-2.25-5.13-5.06 0-.11 0-.22 0-.33z" opacity=".1"/><path d="m13.8 304.47 6.94-153.77c.19-3.12 2.75-5.56 5.87-5.62h261.05c2.95-.02 5.35 2.34 5.38 5.29v.33l-6.98 153.77c-.19 3.12-2.75 5.56-5.87 5.62h-261.02c-2.94.03-5.35-2.33-5.38-5.26 0-.12 0-.24 0-.36z" fill="#fafafa"/><path d="m261.92 154.3c-1.99 0-3.6-1.6-3.6-3.59 0-.07 0-.15 0-.22.1-2 1.73-3.57 3.73-3.6 1.99 0 3.6 1.6 3.6 3.59v.22c-.1 2-1.73 3.57-3.73 3.6z" fill="#7bb743"/><path d="m219.62 154.3c-1.99 0-3.6-1.6-3.6-3.59 0-.07 0-.15 0-.22.1-2 1.73-3.57 3.73-3.6 1.99 0 3.6 1.6 3.6 3.59v.22c-.09 2-1.73 3.58-3.73 3.6z" fill="#7bb743"/><path d="m177.33 154.3c-1.99 0-3.6-1.6-3.6-3.59 0-.07 0-.15 0-.22.1-1.99 1.73-3.57 3.73-3.6 1.99 0 3.6 1.6 3.6 3.59v.22c-.09 2-1.73 3.58-3.73 3.6z" fill="#7bb743"/><path d="m135.04 154.3c-1.99 0-3.6-1.6-3.6-3.59 0-.07 0-.15 0-.22.11-2 1.74-3.57 3.74-3.6 1.99 0 3.6 1.6 3.6 3.59v.22c-.09 2-1.73 3.58-3.74 3.6z" fill="#7bb743"/><path d="m92.75 154.3c-1.99 0-3.6-1.6-3.6-3.59 0-.07 0-.15 0-.22.1-2 1.73-3.57 3.73-3.6 1.99 0 3.6 1.6 3.6 3.59v.22c-.1 2-1.73 3.57-3.73 3.6z" fill="#7bb743"/><path d="m50.45 154.3c-1.99 0-3.6-1.6-3.6-3.59 0-.07 0-.15 0-.22.1-2 1.73-3.57 3.73-3.6 1.99 0 3.6 1.6 3.6 3.59v.22c-.09 2-1.73 3.58-3.73 3.6z" fill="#7bb743"/><g fill="#fafafa" opacity=".1"><path d="m261.92 154.3c-1.99 0-3.6-1.6-3.6-3.59 0-.07 0-.15 0-.22.1-2 1.73-3.57 3.73-3.6 1.99 0 3.6 1.6 3.6 3.59v.22c-.1 2-1.73 3.57-3.73 3.6z"/><path d="m219.62 154.3c-1.99 0-3.6-1.6-3.6-3.59 0-.07 0-.15 0-.22.1-2 1.73-3.57 3.73-3.6 1.99 0 3.6 1.6 3.6 3.59v.22c-.09 2-1.73 3.58-3.73 3.6z"/><path d="m177.33 154.3c-1.99 0-3.6-1.6-3.6-3.59 0-.07 0-.15 0-.22.1-1.99 1.73-3.57 3.73-3.6 1.99 0 3.6 1.6 3.6 3.59v.22c-.09 2-1.73 3.58-3.73 3.6z"/><path d="m135.04 154.3c-1.99 0-3.6-1.6-3.6-3.59 0-.07 0-.15 0-.22.11-2 1.74-3.57 3.74-3.6 1.99 0 3.6 1.6 3.6 3.59v.22c-.09 2-1.73 3.58-3.74 3.6z"/><path d="m92.75 154.3c-1.99 0-3.6-1.6-3.6-3.59 0-.07 0-.15 0-.22.1-2 1.73-3.57 3.73-3.6 1.99 0 3.6 1.6 3.6 3.59v.22c-.1 2-1.73 3.57-3.73 3.6z"/><path d="m50.45 154.3c-1.99 0-3.6-1.6-3.6-3.59 0-.07 0-.15 0-.22.1-2 1.73-3.57 3.73-3.6 1.99 0 3.6 1.6 3.6 3.59v.22c-.09 2-1.73 3.58-3.73 3.6z"/></g><path d="m61.02 167.7h-21.27c-1.23.01-2.24-.98-2.25-2.21 0-.06 0-.12 0-.19.05-1.3 1.09-2.35 2.4-2.4h21.27c1.23-.01 2.24.98 2.25 2.21v.19c-.05 1.3-1.09 2.35-2.4 2.4z" fill="#7bb743"/><path d="m103.32 167.7h-21.27c-1.23.01-2.24-.98-2.25-2.21 0-.06 0-.12 0-.19.05-1.33 1.13-2.38 2.46-2.4h21.26c1.24 0 2.25.99 2.26 2.22v.17c-.05 1.33-1.13 2.38-2.46 2.4z" fill="#7bb743"/><path d="m145.61 167.7h-21.27c-1.24 0-2.25-.99-2.26-2.22 0-.06 0-.12 0-.17.05-1.33 1.13-2.38 2.46-2.4h21.29c1.23-.01 2.24.98 2.25 2.21v.19c-.04 1.33-1.13 2.38-2.46 2.4z" fill="#7bb743"/><path d="m187.9 167.7h-21.27c-1.23.01-2.24-.98-2.25-2.21 0-.06 0-.12 0-.19.05-1.3 1.09-2.35 2.4-2.4h21.27c1.23-.01 2.24.98 2.25 2.21v.19c-.05 1.3-1.09 2.35-2.4 2.4z" fill="#7bb743"/><path d="m230.19 167.7h-21.27c-1.23.01-2.24-.98-2.25-2.21 0-.06 0-.12 0-.19.05-1.33 1.13-2.38 2.46-2.4h21.27c1.23-.01 2.24.98 2.25 2.21v.19c-.05 1.33-1.13 2.38-2.46 2.4z" fill="#7bb743"/><path d="m272.49 167.7h-21.27c-1.23.01-2.24-.98-2.25-2.21 0-.06 0-.12 0-.19.05-1.33 1.13-2.38 2.46-2.4h21.26c1.24 0 2.25.99 2.26 2.22v.17c-.05 1.33-1.13 2.38-2.46 2.4z" fill="#7bb743"/><g opacity=".3"><path d="m61.02 167.7h-21.27c-1.23.01-2.24-.98-2.25-2.21 0-.06 0-.12 0-.19.05-1.3 1.09-2.35 2.4-2.4h21.27c1.23-.01 2.24.98 2.25 2.21v.19c-.05 1.3-1.09 2.35-2.4 2.4z"/><path d="m103.32 167.7h-21.27c-1.23.01-2.24-.98-2.25-2.21 0-.06 0-.12 0-.19.05-1.33 1.13-2.38 2.46-2.4h21.26c1.24 0 2.25.99 2.26 2.22v.17c-.05 1.33-1.13 2.38-2.46 2.4z"/><path d="m145.61 167.7h-21.27c-1.24 0-2.25-.99-2.26-2.22 0-.06 0-.12 0-.17.05-1.33 1.13-2.38 2.46-2.4h21.29c1.23-.01 2.24.98 2.25 2.21v.19c-.04 1.33-1.13 2.38-2.46 2.4z"/><path d="m187.9 167.7h-21.27c-1.23.01-2.24-.98-2.25-2.21 0-.06 0-.12 0-.19.05-1.3 1.09-2.35 2.4-2.4h21.27c1.23-.01 2.24.98 2.25 2.21v.19c-.05 1.3-1.09 2.35-2.4 2.4z"/><path d="m230.19 167.7h-21.27c-1.23.01-2.24-.98-2.25-2.21 0-.06 0-.12 0-.19.05-1.33 1.13-2.38 2.46-2.4h21.27c1.23-.01 2.24.98 2.25 2.21v.19c-.05 1.33-1.13 2.38-2.46 2.4z"/><path d="m272.49 167.7h-21.27c-1.23.01-2.24-.98-2.25-2.21 0-.06 0-.12 0-.19.05-1.33 1.13-2.38 2.46-2.4h21.26c1.24 0 2.25.99 2.26 2.22v.17c-.05 1.33-1.13 2.38-2.46 2.4z"/></g><path d="m62.2 212.96h-27.71c-2.47 0-4.48-1.98-4.49-4.45 0-.08 0-.16 0-.25l1.2-27.71c.15-2.61 2.3-4.66 4.91-4.7h27.71c2.47 0 4.48 1.98 4.49 4.45v.25l-1.2 27.71c-.16 2.61-2.3 4.66-4.91 4.7z" fill="#7bb743"/><path d="m104.49 212.96h-27.71c-2.46.02-4.47-1.97-4.49-4.43 0-.09 0-.18 0-.27l1.2-27.71c.15-2.61 2.3-4.66 4.91-4.7h27.75c2.48 0 4.49 1.99 4.5 4.47v.23l-1.26 27.71c-.14 2.61-2.29 4.66-4.9 4.7z" fill="#7bb743"/><path d="m146.78 212.96h-27.7c-2.48 0-4.49-1.99-4.5-4.47 0-.08 0-.16 0-.23l1.2-27.71c.15-2.61 2.3-4.66 4.91-4.7h27.7c2.46-.02 4.47 1.97 4.49 4.43v.27l-1.2 27.71c-.15 2.61-2.29 4.66-4.9 4.7z" fill="#7bb743"/><path d="m189.07 212.96h-27.66c-2.47.02-4.48-1.97-4.5-4.44 0-.09 0-.17 0-.26l1.2-27.71c.14-2.61 2.29-4.66 4.9-4.7h27.71c2.47 0 4.48 1.98 4.49 4.45v.25l-1.2 27.71c-.15 2.62-2.31 4.68-4.94 4.7z" fill="#7bb743"/><path d="m231.37 212.96h-27.71c-2.47 0-4.48-1.98-4.49-4.45 0-.08 0-.16 0-.25l1.2-27.71c.15-2.61 2.3-4.66 4.91-4.7h27.7c2.47-.02 4.48 1.97 4.5 4.44v.26l-1.2 27.71c-.16 2.61-2.3 4.66-4.91 4.7z" fill="#7bb743"/><path d="m273.65 212.96h-27.7c-2.46.02-4.47-1.97-4.49-4.43 0-.09 0-.18 0-.27l1.2-27.71c.15-2.61 2.3-4.66 4.91-4.7h27.7c2.48 0 4.49 1.99 4.5 4.47v.23l-1.26 27.71c-.14 2.6-2.26 4.65-4.87 4.7z" fill="#7bb743"/><g fill="#fafafa" opacity=".8"><path d="m62.2 212.96h-27.71c-2.47 0-4.48-1.98-4.49-4.45 0-.08 0-.16 0-.25l1.2-27.71c.15-2.61 2.3-4.66 4.91-4.7h27.71c2.47 0 4.48 1.98 4.49 4.45v.25l-1.2 27.71c-.16 2.61-2.3 4.66-4.91 4.7z"/><path d="m104.49 212.96h-27.71c-2.46.02-4.47-1.97-4.49-4.43 0-.09 0-.18 0-.27l1.2-27.71c.15-2.61 2.3-4.66 4.91-4.7h27.75c2.48 0 4.49 1.99 4.5 4.47v.23l-1.26 27.71c-.14 2.61-2.29 4.66-4.9 4.7z"/><path d="m146.78 212.96h-27.7c-2.48 0-4.49-1.99-4.5-4.47 0-.08 0-.16 0-.23l1.2-27.71c.15-2.61 2.3-4.66 4.91-4.7h27.7c2.46-.02 4.47 1.97 4.49 4.43v.27l-1.2 27.71c-.15 2.61-2.29 4.66-4.9 4.7z"/><path d="m189.07 212.96h-27.66c-2.47.02-4.48-1.97-4.5-4.44 0-.09 0-.17 0-.26l1.2-27.71c.14-2.61 2.29-4.66 4.9-4.7h27.71c2.47 0 4.48 1.98 4.49 4.45v.25l-1.2 27.71c-.15 2.62-2.31 4.68-4.94 4.7z"/><path d="m231.37 212.96h-27.71c-2.47 0-4.48-1.98-4.49-4.45 0-.08 0-.16 0-.25l1.2-27.71c.15-2.61 2.3-4.66 4.91-4.7h27.7c2.47-.02 4.48 1.97 4.5 4.44v.26l-1.2 27.71c-.16 2.61-2.3 4.66-4.91 4.7z"/><path d="m273.65 212.96h-27.7c-2.46.02-4.47-1.97-4.49-4.43 0-.09 0-.18 0-.27l1.2-27.71c.15-2.61 2.3-4.66 4.91-4.7h27.7c2.48 0 4.49 1.99 4.5 4.47v.23l-1.26 27.71c-.14 2.6-2.26 4.65-4.87 4.7z"/></g><path d="m60.26 255.95h-27.71c-2.47 0-4.48-1.98-4.49-4.45 0-.08 0-.16 0-.25l1.2-27.71c.16-2.61 2.3-4.66 4.91-4.7h27.76c2.47 0 4.48 1.98 4.49 4.45v.25l-1.2 27.71c-.16 2.63-2.33 4.68-4.96 4.7z" fill="#7bb743"/><path d="m102.55 255.95h-27.71c-2.47 0-4.48-1.98-4.49-4.45 0-.08 0-.16 0-.25l1.2-27.71c.15-2.61 2.3-4.66 4.91-4.7h27.7c2.48-.02 4.5 1.98 4.51 4.45v.3l-1.2 27.66c-.15 2.62-2.3 4.68-4.93 4.7z" fill="#7bb743"/><path d="m144.83 255.95h-27.7c-2.46.02-4.47-1.97-4.49-4.43 0-.09 0-.18 0-.27l1.2-27.71c.15-2.61 2.3-4.66 4.91-4.7h27.7c2.46-.02 4.47 1.97 4.49 4.43v.27l-1.2 27.71c-.15 2.61-2.3 4.66-4.91 4.7z" fill="#7bb743"/><path d="m187.13 255.95h-27.7c-2.48 0-4.49-1.99-4.5-4.47 0-.08 0-.16 0-.23l1.2-27.71c.14-2.61 2.29-4.66 4.9-4.7h27.71c2.47-.04 4.51 1.92 4.55 4.39v.36l-1.2 27.71c-.18 2.61-2.34 4.64-4.96 4.65z" fill="#7bb743"/><path d="m229.43 255.95h-27.71c-2.47 0-4.48-1.98-4.49-4.45 0-.08 0-.16 0-.25l1.2-27.71c.13-2.63 2.29-4.71 4.93-4.75h27.71c2.47 0 4.48 1.98 4.49 4.45v.25l-1.2 27.71c-.13 2.63-2.29 4.71-4.93 4.75z" fill="#7bb743"/><path d="m271.67 255.95h-27.66c-2.46.02-4.47-1.97-4.49-4.43 0-.09 0-.18 0-.27l1.2-27.71c.15-2.61 2.3-4.66 4.91-4.7h27.7c2.48 0 4.49 1.99 4.5 4.47v.23l-1.26 27.71c-.14 2.61-2.29 4.66-4.9 4.7z" fill="#7bb743"/><g fill="#fafafa" opacity=".8"><path d="m60.26 255.95h-27.71c-2.47 0-4.48-1.98-4.49-4.45 0-.08 0-.16 0-.25l1.2-27.71c.16-2.61 2.3-4.66 4.91-4.7h27.76c2.47 0 4.48 1.98 4.49 4.45v.25l-1.2 27.71c-.16 2.63-2.33 4.68-4.96 4.7z"/><path d="m102.55 255.95h-27.71c-2.47 0-4.48-1.98-4.49-4.45 0-.08 0-.16 0-.25l1.2-27.71c.15-2.61 2.3-4.66 4.91-4.7h27.7c2.48-.02 4.5 1.98 4.51 4.45v.3l-1.2 27.66c-.15 2.62-2.3 4.68-4.93 4.7z"/><path d="m144.83 255.95h-27.7c-2.46.02-4.47-1.97-4.49-4.43 0-.09 0-.18 0-.27l1.2-27.71c.15-2.61 2.3-4.66 4.91-4.7h27.7c2.46-.02 4.47 1.97 4.49 4.43v.27l-1.2 27.71c-.15 2.61-2.3 4.66-4.91 4.7z"/><path d="m187.13 255.95h-27.7c-2.48 0-4.49-1.99-4.5-4.47 0-.08 0-.16 0-.23l1.2-27.71c.14-2.61 2.29-4.66 4.9-4.7h27.71c2.47-.04 4.51 1.92 4.55 4.39v.36l-1.2 27.71c-.18 2.61-2.34 4.64-4.96 4.65z"/><path d="m229.43 255.95h-27.71c-2.47 0-4.48-1.98-4.49-4.45 0-.08 0-.16 0-.25l1.2-27.71c.13-2.63 2.29-4.71 4.93-4.75h27.71c2.47 0 4.48 1.98 4.49 4.45v.25l-1.2 27.71c-.13 2.63-2.29 4.71-4.93 4.75z"/><path d="m271.67 255.95h-27.66c-2.46.02-4.47-1.97-4.49-4.43 0-.09 0-.18 0-.27l1.2-27.71c.15-2.61 2.3-4.66 4.91-4.7h27.7c2.48 0 4.49 1.99 4.5 4.47v.23l-1.26 27.71c-.14 2.61-2.29 4.66-4.9 4.7z"/></g><path d="m58.34 298.93h-27.74c-2.46.02-4.47-1.97-4.49-4.43 0-.09 0-.18 0-.27l1.2-27.7c.15-2.61 2.3-4.66 4.91-4.7h27.71c2.46-.02 4.47 1.97 4.49 4.43v.27l-1.2 27.7c-.14 2.61-2.28 4.66-4.89 4.7z" fill="#7bb743"/><path d="m100.61 298.93h-27.71c-2.46.02-4.47-1.97-4.49-4.43 0-.09 0-.18 0-.27l1.2-27.7c.15-2.62 2.29-4.67 4.91-4.7h27.7c2.46-.02 4.48 1.95 4.5 4.42v.28l-1.2 27.7c-.14 2.62-2.29 4.68-4.91 4.7z" fill="#7bb743"/><path d="m142.89 298.93h-27.7c-2.46.02-4.47-1.97-4.49-4.43 0-.09 0-.18 0-.27l1.2-27.7c.15-2.62 2.29-4.67 4.91-4.7h27.81c2.47-.02 4.48 1.97 4.5 4.44v.26l-1.26 27.7c-.15 2.64-2.33 4.7-4.97 4.7z" fill="#7bb743"/><path d="m185.19 298.93h-27.7c-2.47.02-4.48-1.97-4.5-4.44 0-.09 0-.17 0-.26l1.2-27.7c.14-2.61 2.28-4.67 4.9-4.7h27.71c2.46-.02 4.47 1.97 4.49 4.43v.27l-1.2 27.7c-.14 2.61-2.29 4.66-4.9 4.7z" fill="#7bb743"/><path d="m227.48 298.93h-27.72c-2.46.02-4.47-1.97-4.49-4.43 0-.09 0-.18 0-.27l1.2-27.7c.15-2.61 2.3-4.66 4.91-4.7h27.71c2.46-.02 4.47 1.97 4.49 4.43v.27l-1.2 27.7c-.15 2.61-2.29 4.66-4.9 4.7z" fill="#7bb743"/><path d="m269.78 298.93h-27.71c-2.46.02-4.47-1.97-4.49-4.43 0-.09 0-.18 0-.27l1.2-27.7c.15-2.62 2.29-4.67 4.91-4.7h27.7c2.47-.02 4.48 1.97 4.5 4.44v.26l-1.26 27.7c-.14 2.6-2.26 4.65-4.85 4.7z" fill="#7bb743"/><g fill="#fafafa" opacity=".8"><path d="m58.34 298.93h-27.74c-2.46.02-4.47-1.97-4.49-4.43 0-.09 0-.18 0-.27l1.2-27.7c.15-2.61 2.3-4.66 4.91-4.7h27.71c2.46-.02 4.47 1.97 4.49 4.43v.27l-1.2 27.7c-.14 2.61-2.28 4.66-4.89 4.7z"/><path d="m100.61 298.93h-27.71c-2.46.02-4.47-1.97-4.49-4.43 0-.09 0-.18 0-.27l1.2-27.7c.15-2.62 2.29-4.67 4.91-4.7h27.7c2.46-.02 4.48 1.95 4.5 4.42v.28l-1.2 27.7c-.14 2.62-2.29 4.68-4.91 4.7z"/><path d="m142.89 298.93h-27.7c-2.46.02-4.47-1.97-4.49-4.43 0-.09 0-.18 0-.27l1.2-27.7c.15-2.62 2.29-4.67 4.91-4.7h27.81c2.47-.02 4.48 1.97 4.5 4.44v.26l-1.26 27.7c-.15 2.64-2.33 4.7-4.97 4.7z"/><path d="m185.19 298.93h-27.7c-2.47.02-4.48-1.97-4.5-4.44 0-.09 0-.17 0-.26l1.2-27.7c.14-2.61 2.28-4.67 4.9-4.7h27.71c2.46-.02 4.47 1.97 4.49 4.43v.27l-1.2 27.7c-.14 2.61-2.29 4.66-4.9 4.7z"/><path d="m227.48 298.93h-27.72c-2.46.02-4.47-1.97-4.49-4.43 0-.09 0-.18 0-.27l1.2-27.7c.15-2.61 2.3-4.66 4.91-4.7h27.71c2.46-.02 4.47 1.97 4.49 4.43v.27l-1.2 27.7c-.15 2.61-2.29 4.66-4.9 4.7z"/><path d="m269.78 298.93h-27.71c-2.46.02-4.47-1.97-4.49-4.43 0-.09 0-.18 0-.27l1.2-27.7c.15-2.62 2.29-4.67 4.91-4.7h27.7c2.47-.02 4.48 1.97 4.5 4.44v.26l-1.26 27.7c-.14 2.6-2.26 4.65-4.85 4.7z"/></g><path d="m50.49 153.41c-10.21 0-18.22-11.88-18.22-27.04s8.01-27.03 18.22-27.03 18.23 11.88 18.23 27.03c-.1 1.55-1.44 2.72-2.98 2.62-1.4-.09-2.52-1.21-2.62-2.62 0-11.61-5.78-21.44-12.63-21.44s-12.63 9.83-12.63 21.44 5.79 21.44 12.63 21.44c1.55-.1 2.88 1.07 2.98 2.62s-1.07 2.88-2.62 2.98c-.12 0-.24 0-.37 0z" fill="#7bb743"/><path d="m92.78 153.41c-10.21 0-18.22-11.88-18.22-27.04s8.01-27.03 18.22-27.03 18.29 11.88 18.29 27.03c-.1 1.55-1.44 2.72-2.98 2.62-1.4-.09-2.52-1.21-2.62-2.62 0-11.61-5.78-21.44-12.63-21.44s-12.63 9.83-12.63 21.44 5.79 21.44 12.63 21.44c1.55.1 2.72 1.44 2.62 2.98-.09 1.4-1.21 2.52-2.62 2.62z" fill="#7bb743"/><path d="m135.04 153.41c-10.22 0-18.23-11.88-18.23-27.04s8.01-27.03 18.23-27.03 18.22 11.88 18.22 27.03c0 1.54-1.25 2.79-2.79 2.79s-2.79-1.25-2.79-2.79c0-11.61-5.79-21.44-12.63-21.44s-12.63 9.83-12.63 21.44 5.79 21.44 12.63 21.44c1.55.1 2.72 1.44 2.62 2.98-.09 1.4-1.21 2.52-2.62 2.62z" fill="#7bb743"/><path d="m177.37 153.41c-10.22 0-18.23-11.88-18.23-27.04s8.01-27.03 18.23-27.03 18.22 11.88 18.22 27.03c0 1.54-1.25 2.79-2.79 2.79s-2.79-1.25-2.79-2.79c0-11.61-5.79-21.44-12.63-21.44s-12.63 9.83-12.63 21.44 5.78 21.44 12.63 21.44c1.55.1 2.72 1.44 2.62 2.98-.09 1.4-1.21 2.52-2.62 2.62z" fill="#7bb743"/><path d="m219.66 153.41c-10.21 0-18.22-11.88-18.22-27.04s8.01-27.03 18.22-27.03 18.23 11.88 18.23 27.03c-.1 1.55-1.44 2.72-2.98 2.62-1.4-.09-2.52-1.21-2.62-2.62 0-11.61-5.78-21.44-12.63-21.44s-12.63 9.83-12.63 21.44 5.79 21.44 12.63 21.44c1.55-.1 2.88 1.07 2.98 2.62s-1.07 2.88-2.62 2.98c-.12 0-.24 0-.37 0z" fill="#7bb743"/><path d="m261.95 153.41c-10.21 0-18.22-11.88-18.22-27.04s8.01-27.03 18.22-27.03 18.23 11.88 18.23 27.03c-.1 1.55-1.44 2.72-2.98 2.62-1.4-.09-2.52-1.21-2.62-2.62 0-11.61-5.79-21.44-12.63-21.44s-12.63 9.83-12.63 21.44 5.79 21.44 12.63 21.44c1.55.1 2.72 1.44 2.62 2.98-.09 1.4-1.21 2.52-2.62 2.62z" fill="#7bb743"/><g opacity=".3"><path d="m50.49 153.41c-10.21 0-18.22-11.88-18.22-27.04s8.01-27.03 18.22-27.03 18.23 11.88 18.23 27.03c-.1 1.55-1.44 2.72-2.98 2.62-1.4-.09-2.52-1.21-2.62-2.62 0-11.61-5.78-21.44-12.63-21.44s-12.63 9.83-12.63 21.44 5.79 21.44 12.63 21.44c1.55-.1 2.88 1.07 2.98 2.62s-1.07 2.88-2.62 2.98c-.12 0-.24 0-.37 0z"/><path d="m92.78 153.41c-10.21 0-18.22-11.88-18.22-27.04s8.01-27.03 18.22-27.03 18.29 11.88 18.29 27.03c-.1 1.55-1.44 2.72-2.98 2.62-1.4-.09-2.52-1.21-2.62-2.62 0-11.61-5.78-21.44-12.63-21.44s-12.63 9.83-12.63 21.44 5.79 21.44 12.63 21.44c1.55.1 2.72 1.44 2.62 2.98-.09 1.4-1.21 2.52-2.62 2.62z"/><path d="m135.04 153.41c-10.22 0-18.23-11.88-18.23-27.04s8.01-27.03 18.23-27.03 18.22 11.88 18.22 27.03c0 1.54-1.25 2.79-2.79 2.79s-2.79-1.25-2.79-2.79c0-11.61-5.79-21.44-12.63-21.44s-12.63 9.83-12.63 21.44 5.79 21.44 12.63 21.44c1.55.1 2.72 1.44 2.62 2.98-.09 1.4-1.21 2.52-2.62 2.62z"/><path d="m177.37 153.41c-10.22 0-18.23-11.88-18.23-27.04s8.01-27.03 18.23-27.03 18.22 11.88 18.22 27.03c0 1.54-1.25 2.79-2.79 2.79s-2.79-1.25-2.79-2.79c0-11.61-5.79-21.44-12.63-21.44s-12.63 9.83-12.63 21.44 5.78 21.44 12.63 21.44c1.55.1 2.72 1.44 2.62 2.98-.09 1.4-1.21 2.52-2.62 2.62z"/><path d="m219.66 153.41c-10.21 0-18.22-11.88-18.22-27.04s8.01-27.03 18.22-27.03 18.23 11.88 18.23 27.03c-.1 1.55-1.44 2.72-2.98 2.62-1.4-.09-2.52-1.21-2.62-2.62 0-11.61-5.78-21.44-12.63-21.44s-12.63 9.83-12.63 21.44 5.79 21.44 12.63 21.44c1.55-.1 2.88 1.07 2.98 2.62s-1.07 2.88-2.62 2.98c-.12 0-.24 0-.37 0z"/><path d="m261.95 153.41c-10.21 0-18.22-11.88-18.22-27.04s8.01-27.03 18.22-27.03 18.23 11.88 18.23 27.03c-.1 1.55-1.44 2.72-2.98 2.62-1.4-.09-2.52-1.21-2.62-2.62 0-11.61-5.79-21.44-12.63-21.44s-12.63 9.83-12.63 21.44 5.79 21.44 12.63 21.44c1.55.1 2.72 1.44 2.62 2.98-.09 1.4-1.21 2.52-2.62 2.62z"/></g><path d="m180.2 214.51c-9.78-1.94-20.76.32-24.68 10.63-3.15 8.29.89 17.28 9.59 19.48 7.67 1.93 20.9-.43 23.63-9.28 3.13-10.12-9.59-13.4-16.72-14-2.15-.18-2.13 3.18 0 3.36 3.25.28 6.96.46 9.84 2.24 5.99 3.75 3.52 9.77-1.58 12.64s-12.93 3.6-17.98.41c-5.51-3.51-5.69-11.23-2.4-16.26 4.33-6.65 12.22-7.39 19.34-5.99 2.11.42 3.01-2.82.89-3.24h.06z" fill="#7bb743"/><path d="m180.2 214.51c-9.78-1.94-20.76.32-24.68 10.63-3.15 8.29.89 17.28 9.59 19.48 7.67 1.93 20.9-.43 23.63-9.28 3.13-10.12-9.59-13.4-16.72-14-2.15-.18-2.13 3.18 0 3.36 3.25.28 6.96.46 9.84 2.24 5.99 3.75 3.52 9.77-1.58 12.64s-12.93 3.6-17.98.41c-5.51-3.51-5.69-11.23-2.4-16.26 4.33-6.65 12.22-7.39 19.34-5.99 2.11.42 3.01-2.82.89-3.24h.06z" fill="#fafafa" opacity=".1"/><path d="m72.3 175.91c9.35 12.4 19.78 23.95 31.16 34.52 1.58 1.47 3.97-.9 2.4-2.4-11.19-10.36-21.44-21.68-30.65-33.83-1.28-1.7-4.19 0-2.89 1.69z" fill="#7bb743"/><path d="m75.76 209.02c7.07-12.57 19.45-23.3 31.16-31.51 1.75-1.2.08-4.15-1.69-2.9-12.18 8.56-24.98 19.61-32.36 32.71-.43.82-.12 1.83.7 2.27.77.41 1.72.16 2.19-.57z" fill="#7bb743"/><g opacity=".2"><path d="m72.3 175.91c9.35 12.4 19.78 23.95 31.16 34.52 1.58 1.47 3.97-.9 2.4-2.4-11.19-10.36-21.44-21.68-30.65-33.83-1.28-1.7-4.19 0-2.89 1.69z"/><path d="m75.76 209.02c7.07-12.57 19.45-23.3 31.16-31.51 1.75-1.2.08-4.15-1.69-2.9-12.18 8.56-24.98 19.61-32.36 32.71-.43.82-.12 1.83.7 2.27.77.41 1.72.16 2.19-.57z"/></g><path d="m205.6 186.63h21.87c.92-.08 1.61-.89 1.53-1.81-.07-.81-.72-1.46-1.53-1.53h-21.87c-.92.08-1.61.89-1.53 1.81.07.81.72 1.46 1.53 1.53z" fill="#7bb743"/><path d="m205.35 192.85h12.68c.93 0 1.68-.76 1.67-1.68 0-.92-.75-1.67-1.67-1.67h-12.68c-.93 0-1.68.76-1.67 1.68 0 .92.75 1.67 1.67 1.67z" fill="#7bb743"/><g fill="#fafafa" opacity=".1"><path d="m205.6 186.63h21.87c.92-.08 1.61-.89 1.53-1.81-.07-.81-.72-1.46-1.53-1.53h-21.87c-.92.08-1.61.89-1.53 1.81.07.81.72 1.46 1.53 1.53z"/><path d="m205.35 192.85h12.68c.93 0 1.68-.76 1.67-1.68 0-.92-.75-1.67-1.67-1.67h-12.68c-.93 0-1.68.76-1.67 1.68 0 .92.75 1.67 1.67 1.67z"/></g><path d="m74.59 272.49h18.76c.93 0 1.68-.76 1.67-1.68 0-.92-.75-1.67-1.67-1.67h-18.76c-.93 0-1.68.76-1.67 1.68 0 .92.75 1.67 1.67 1.67z" fill="#7bb743"/><path d="m73.92 279.7h24.33c.93 0 1.68-.76 1.67-1.68 0-.92-.75-1.67-1.67-1.67h-24.33c-.93 0-1.68.76-1.67 1.68 0 .92.75 1.67 1.67 1.67z" fill="#7bb743"/><path d="m73.92 287.12h12.16c.93 0 1.68-.76 1.67-1.68 0-.92-.75-1.67-1.67-1.67h-12.16c-.93 0-1.68.76-1.67 1.68 0 .92.75 1.67 1.67 1.67z" fill="#7bb743"/><g fill="#fafafa" opacity=".1"><path d="m74.59 272.49h18.76c.93 0 1.68-.76 1.67-1.68 0-.92-.75-1.67-1.67-1.67h-18.76c-.93 0-1.68.76-1.67 1.68 0 .92.75 1.67 1.67 1.67z"/><path d="m73.92 279.7h24.33c.93 0 1.68-.76 1.67-1.68 0-.92-.75-1.67-1.67-1.67h-24.33c-.93 0-1.68.76-1.67 1.68 0 .92.75 1.67 1.67 1.67z"/><path d="m73.92 287.12h12.16c.93 0 1.68-.76 1.67-1.68 0-.92-.75-1.67-1.67-1.67h-12.16c-.93 0-1.68.76-1.67 1.68 0 .92.75 1.67 1.67 1.67z"/></g><path d="m205.44 326.23h92.34c.76-3 1.49-5.9 2.23-8.78.84-3.33 1.66-6.56 2.47-9.69.17-.7.36-1.4.54-2.09.61-2.41 1.2-4.76 1.79-7 .35-1.4.7-2.77 1-4.12s.7-2.74 1-4.06c.09-.35.18-.71.27-1s.19-.77.28-1.14l.35-1.37c.13-.48.25-.95.36-1.42.24-.89.46-1.76.67-2.62.33-1.26.64-2.5.95-3.71.13-.52.27-1.05.4-1.56.22-.85.43-1.67.63-2.47.14-.54.27-1.07.4-1.58.55-2.12 1.05-4.11 1.52-6 .13-.49.24-1 .37-1.44.2-.81.4-1.58.59-2.33.13-.47.24-.92.35-1.37.41-1.59.78-3 1.1-4.31.09-.34.17-.67.26-1l.57-2.26c.07-.26.13-.52.2-.76s.13-.51.18-.73.09-.33.12-.47.12-.45.17-.63c.02-.1.04-.19.07-.28l.21-.84h-89.76s-3 10.21-7.7 26.66c-1 3.35-2 7-3.11 10.8-3.19 10.87-6.86 23.67-10.82 37.57z" fill="#37474f"/><path d="m282.66 326.23h2.3c3.42-14.15 6.73-28.32 9.94-42.51.77-3.45 1.54-6.91 2.29-10.37l.21-1c.01-.08-.04-.15-.11-.16s-.13.03-.15.09l-.09.32c-1.04 3.71-2.07 7.42-3.1 11.15-3.87 14.1-7.63 28.26-11.28 42.48z" fill="#263238"/><path d="m229.94 251.11 4 19.86 3.22 16.26 5.54 27.75.57 2.85.95 4.74.71 3.59h52.86c.75-3 1.49-5.91 2.22-8.78.84-3.33 1.66-6.56 2.47-9.69.17-.7.36-1.4.54-2.09.61-2.41 1.2-4.76 1.79-7 .35-1.4.7-2.77 1-4.12s.7-2.74 1-4.06c.09-.35.18-.71.27-1s.19-.77.28-1.14l.35-1.37c.13-.48.25-.95.36-1.42.24-.89.46-1.76.67-2.62.33-1.26.64-2.5.95-3.71.14-.53.27-1.05.4-1.56.22-.85.43-1.67.63-2.47.14-.54.27-1.07.4-1.58.55-2.12 1.05-4.11 1.52-6 .13-.49.24-1 .37-1.44.2-.81.4-1.58.59-2.33.13-.47.24-.92.35-1.37.41-1.59.78-3 1.1-4.31.09-.34.17-.67.26-1l.57-2.26c.07-.26.13-.52.2-.76s.13-.51.18-.73.09-.33.12-.47.12-.45.17-.63c.02-.1.04-.19.07-.28l.21-.84z" fill="#263238"/><path d="m229.93 251.08c0 .5.38 5.86 1.24 14 .25 2.39.54 5 .88 7.82.53 4.44 1.18 9.33 2 14.5 1.38 9 3.18 18.86 5.52 28.48.83 3.46 1.75 6.89 2.72 10.25h116c-1.37-17.68-2.62-33.67-3.61-46.27-1.4-17.74-2.28-28.85-2.28-28.85h-105.24z" fill="#37474f"/><path d="m230.18 261.74c.13 4.15.3 8.3.57 12.43.28 4.48.69 8.95 1.28 13.42.01.16.03.33.06.49.55 4.19 1.18 8.36 1.88 12.53.67 3.88 1.16 8.07 2.88 11.67.65 1.39 1.57 2.63 2.71 3.66 1.05.95 2.33 1.61 3.71 1.92.23.06.46.09.69.11h.2c-.09.05-.14.14-.13.24.05 1.39 0 2.81.17 4.19v.18c.14 1.2.36 2.39.58 3.59h2v-.07c-.35-1.31-.64-2.63-1-4s-.8-2.66-1.11-4c-.02-.05-.05-.1-.1-.13 2.59.13 4.99-1.37 6-3.76.5-1.78.54-3.66.1-5.45l-1.08-7.13c-.68-4.36-1.55-8.68-2.33-13-.11-.66-.23-1.32-.35-2-1.55-8.83-3.18-17.67-5.13-26.42-.07-.36-.16-.72-.24-1.09s-.44-.17-.42.06c.06.59.12 1.18.19 1.77.34 3.36.74 6.7 1.2 10 .56 3.92.95 7.86 1.5 11.78l.57 4c.9 6.45 1.84 12.9 2.94 19.32.52 3 2.38 8.33-1.92 9.26-.98.22-2.01.09-2.91-.37-1.9-1.13-3.32-2.9-4-5-1.22-3.42-1.65-7.18-2.28-10.74-.71-3.93-1.34-7.86-1.88-11.81-.7-4.92-1.42-9.84-2.2-14.75-.38-2.51-.78-5-1.18-7.52-.18-1.15-.37-2.31-.56-3.47-.03-.23-.41-.16-.41.09z" fill="#263238"/><path d="m332.84 292.58c-4.83-.05-9.64-.69-14.31-1.92-2.16-.56-4.29-1.25-6.4-1.94-2.1-.58-4.06-1.57-5.78-2.9-3.25-2.81-4.77-7.23-6.18-11.15-1.54-4.42-2.8-8.94-3.75-13.53-.05-.23-.38-.16-.39.06-.09 5.19.58 10.37 2 15.37 1.17 4.24 2.74 9 6.17 12 3.6 3.12 8.5 4.22 13.11 4.79 5.19.61 10.43.53 15.6-.21.16-.02.27-.16.25-.32s-.16-.27-.32-.25z" fill="#263238"/><path d="m340.88 261.23c.26 6.5.53 13 .82 19.5.67 15.14 1.4 30.28 2.19 45.42h2.18c-1-15.18-2.05-30.34-3.15-45.49-.48-6.49-.97-12.97-1.48-19.44 0-.15-.13-.28-.29-.27s-.28.13-.27.29z" fill="#263238"/><path d="m242.81 117.39c-45.7 41.19-88.07 86.3-91.39 109.32-4.59 31.88 15 40.73 23.8 40.81 23.92.24 67.39-96.7 82.51-133.71 14.68-35.94-4.88-25.47-14.92-16.42z" fill="#f7a9a0"/><path d="m173.83 183.31 50.82 27.62s31.59-58.36 38.87-85.41-3.59-26.29-27.45-5.23-62.24 63.02-62.24 63.02z" fill="#c7c7c7"/><path d="m173.83 183.31 50.82 27.62s31.59-58.36 38.87-85.41-3.59-26.29-27.45-5.23-62.24 63.02-62.24 63.02z" fill="#ffc727"/><path d="m263.52 125.51c-7.28 27.06-38.88 85.43-38.88 85.43l-46.27-25.16 85.22-80.1c2.84 2.18 2.96 8.61-.07 19.83z" opacity=".1"/><path d="m184.29 175.52c19.59 13.26 38.58 21.87 42.39 24.06.18.11.33-.19.14-.29-3.85-1.95-24.7-14.93-42.38-24.09-.2-.11-.37.19-.15.32z" fill="#263238"/><path d="m213.19 287.14 148.81.43s-13-112-67.62-178.11c-12.64-15.31-33-7-41.59 1.14-21.8 20.63-40.02 176-39.6 176.54z" fill="#ffc727"/><path d="m264.38 103.37c3.57 2.61 7 5.49 10.43 8.16l10 7.75c3 2.35 6 5 9.41 6.85 3.07 1.68 6.64 2.43 9.93.93.8-.37 1.56-.84 2.25-1.4l.34.53c-1.68 1.39-3.75 2.23-5.92 2.38-3.29.19-6.36-1.31-9-3.11-3.34-2.26-6.45-4.87-9.64-7.34-6.19-4.79-12.3-9.79-18.66-14.37.25-.13.55-.26.86-.38zm59.35 89.09c5.27-.03 10.52.43 15.7 1.39-.12-.35-.25-.71-.39-1.06-4.55-.83-9.16-1.26-13.79-1.29-13.47-.25-31.49.59-39.63-12.61-3.21-5.2-4.25-12.11-.72-17.44 3.11-4.7 8.92-6.73 14.37-6.68 2.84.02 5.66.57 8.29 1.64 3.11 1.42 5.98 3.32 8.51 5.62 4.84 4.12 9.35 8.95 15.41 11.24l-.48-1.16c-1.8-.78-3.51-1.75-5.1-2.91-5.63-4.07-10.18-9.71-16.44-12.89-4.79-2.42-10.28-3.07-15.51-1.85-5 1.21-9.45 4.46-11.3 9.41-2.06 5.52-.45 11.84 2.84 16.55 8.46 12.07 25.11 11.87 38.24 12.04zm-22.84-51.46c3.94-1.89 8.01-3.48 12.18-4.77-.18-.29-.36-.6-.55-.89-9.6 2.69-18.47 8.76-28.37 10.46-12.01 1.9-24.31-.63-34.59-7.13-2.82-1.76-5.44-3.81-7.84-6.11-.12.32-.23.64-.34 1 2.29 2.15 4.77 4.09 7.42 5.78 9.93 6.36 21.74 9.11 33.46 7.78 6.57-.89 12.61-3.4 18.63-6.12zm9 106.25c7.34 2.65 14.84 4.84 22.45 6.54 8.44 2 18.88 3.68 25.7 9.39-.09-.49-.19-1-.29-1.47-6.81-5.19-16.58-6.85-24.71-8.75-7.64-1.72-15.16-3.9-22.53-6.54-6.33-2.33-12.59-5.46-17.22-10.51-4.03-4.32-6.12-10.1-5.78-16 .39-5.9 3.75-11.27 9.56-13.11 6.23-2 13.18.35 18.38 3.9 5.94 4.07 10.21 10.18 14.78 15.62 4.33 5.19 9.13 10 15.46 12.62 2.37 1.01 4.9 1.6 7.48 1.75-.07-.29-.13-.6-.21-.9-5.05-.32-10-2.8-13.92-5.84-5.77-4.46-9.91-10.67-14.66-16.13-4.35-5-9.33-9.44-15.75-11.52-5.56-1.8-11.95-1.62-16.65 2.21-4.1 3.36-5.73 8.8-5.45 13.95.34 5.63 2.74 10.94 6.74 14.92 4.58 4.63 10.56 7.61 16.61 9.85v.02zm-18.08 25.47c-1.06 4.83-.56 9.77-.85 14.65h.92c.35-6-.6-12.27 1.89-17.92 1.2-2.92 3.63-5.18 6.63-6.16 3.32-.86 6.85-.46 9.9 1.11 6.46 3.16 9.91 10 13.05 16.08 1.22 2.33 2.47 4.74 3.91 7h1.08c-3.56-5.4-5.83-11.56-9.67-16.8-3.71-5-9.29-9.14-15.84-8.7-6.07.41-9.81 5.13-11.03 10.74zm-58.34 14.51h1.18c1.33-2.35 2.28-4.89 2.82-7.53 1.44-6.64 1-13.51.54-20.23-1.1-15.57-3.79-31.47-.38-46.94 1.3-6.34 3.77-12.37 7.28-17.81 3.68-5.5 9-10.67 15.43-12.77 3.42-1.27 7.21-1.09 10.49.49 2.74 1.54 4.91 3.93 6.18 6.8 3.25 6.92 1.24 14.75-1.86 21.33-6.07 12.84-15.92 23.66-20.81 37.12-4.37 12.15-3.51 25.57 2.38 37.06.44.85.9 1.69 1.39 2.52h1.09c-2.4-3.95-4.2-8.24-5.32-12.73-1.64-6.39-1.85-13.05-.62-19.53 1.36-7 4.47-13.43 8-19.51s7.74-12 11.33-18.21 7.07-13.18 7-20.59c-.07-5.72-2.73-11.78-7.79-14.77-6-3.56-13.19-1.14-18.44 2.6-10.33 7.37-15.57 19.74-17.49 31.94-2.5 15.92.63 32 1.38 47.94.31 6.36.29 12.93-1.94 19-.47 1.34-1.09 2.62-1.84 3.82zm14.92-134.4c-3.21-2.72-7.24-4.28-11.45-4.44-.07.26-.14.54-.22.8 1.01.05 2.01.17 3 .37 6.14 1.22 12.36 6 12.43 12.75.09 7.35-6.15 12.81-12.19 15.85-3.54 1.78-7.25 3.16-10.88 4.69-.06.32-.13.63-.19 1 2.3-1 4.64-1.86 7-2.82 6.25-2.56 12.55-6 15.66-12.3 2.83-5.39 1.52-12.03-3.16-15.93z" fill="#fff"/><path d="m304.83 114.46c43.34 33.27 88.53 89.77 89.24 122.35.67 32.2-17.42 29-20.46 28-32.2-10-71-99.35-85.38-135.72-14.28-36.07 5.84-22.86 16.6-14.63z" fill="#f7a9a0"/><path d="m374.46 179.36-50.32 28.53s-32.64-57.79-40.4-84.71 3.13-26.33 27.41-5.72 63.31 61.9 63.31 61.9z" fill="#ffc727"/><path d="m363.86 171.76c-19.36 13.6-38.19 22.56-42 24.81-.18.11-.33-.19-.15-.29 3.81-2 24.43-15.37 41.94-24.84.25-.11.42.19.21.32z" fill="#263238"/><path d="m327.37 205.92c-1.02.39-2.03.85-3 1.35-4.83-9.61-3.95-7.41-8.88-17-2.41-4.67-4.82-9.36-7.24-14.07-2.5-4.88-4.74-10-7.5-14.7-.03-.06-.1-.09-.16-.05-.06.03-.09.1-.06.16 1.6 4.62 3.77 9.1 5.82 13.56-.45-.69-.88-1.4-1.38-2.07-1.11-1.49-2.2-3-3.18-4.56-.16-.24-.56-.05-.41.2 1 1.5 1.78 3.05 2.61 4.63s1.74 3.07 2.67 4.59 1.9 2.84 2.9 4.23l.36.52c1.32 2.79 2.6 5.59 4 8.35 4.84 9.67 9.82 17.28 10 17.23 1.27-.61 2.49-1.32 3.65-2.12.08-.08-.06-.26-.2-.25z" fill="#263238"/><path d="m177.43 266.39c14.92-2.18 23.37-29.89 39.93-74 2.9-7.74-35.61-52.07-40.84-44.94-6.59 9-24 58.79-25.78 72.33-3.43 26.68 9.33 49.16 26.69 46.61z" fill="#f7a9a0"/><path d="m200.38 237.02c1.34-3.75 2.76-7.47 4.19-11.19l4.33-11.13c1.5-3.69 2.94-7.4 4.39-11.1.74-1.85 1.45-3.71 2.14-5.57.71-1.86 1.4-3.73 1.93-5.65-.83 3.9-1.95 7.74-3.35 11.48-1.31 3.77-2.76 7.49-4.18 11.21s-3 7.39-4.56 11.05-3.2 7.31-4.89 10.9z" fill="#263238"/><path d="m162.7 179.42c2.09-15.14 6.36-36.26 11.77-40.69 5.68-4.64 26.31-20.17 32.26-22.23s32.51-12.17 37.39-9.35c3.91 2.26-.72 12.53-13.35 17.46-11.11 4.32-16.83 8.36-20 9.73s-11 11.89-8.9 16.53c1.25 2.73 9.21 5.94 14.16 3.7s6.17-12 11.82-16.65 15.63-4.06 16.21-1.37-2.72 3.95-7.82 13.11c-3.28 5.88-3.5 20-10.94 30.14-3.74 5.09-10.23 18.63-10.23 18.63z" fill="#f7a9a0"/><path d="m233.13 133.74c1.83-.26 3.54-1.04 4.94-2.24.56-.54.96-1.24 1.13-2 .07-.42.07-.84 0-1.26-.01-.45-.18-.87-.48-1.21-.1-.07.05-.19.1-.09.14.21.29.41.45.6.12.18.21.37.29.57.15.4.22.82.21 1.24-.04.93-.39 1.81-1 2.51-1.48 1.51-3.58 2.25-5.68 2-.02.03-.02-.1.04-.12z" fill="#263238"/><path d="m174.47 138.73c4.81-7.55 17.12-21.19 29.32-25.87 8.24-3.17 36.62 10.63 35.8 16.05s-5.67 5.45-12.85 4.6c-2.61-.31-16.44-5.27-18.8-2.37-3.38 4.18-7.68 18.43-7.68 18.43z" fill="#f7a9a0"/><path d="m238.88 126.79c-3.51-5.8-11.21-8.89-18.88-11.33-.12 0-.19.14-.07.18 1.95.62 14.45 6.36 18.87 11.25.05.05.12-.04.08-.1z" fill="#263238"/><path d="m174.47 138.73c4.81-7.55 17.12-21.19 29.32-25.87 8.24-3.17 30.7 14.49 29.87 19.92s-7.78 5.86-15.48 3.19c-2.49-.87-10.83-6.73-13.19-3.83-3.38 4.17-11.63 14.53-11.63 14.53z" fill="#f7a9a0"/><path d="m198.07 140.23c.78-1.19 1-1.61 1.83-2.79s1.6-2.34 2.48-3.45c.68-1.03 1.54-1.94 2.54-2.68 1.03-.59 2.22-.83 3.4-.68 2.67.25 5.08 1.94 7.35 3.24 2.53 1.45 7.77 3.8 11.79 3.37 1.1-.06 2.18-.36 3.17-.86.75-.34 1.4-.86 1.89-1.52 1.74-3-.44-6.32-2.66-8.71-4.15-4.45-9.73-7.67-15.14-10.32-1.33-.65-2.67-1.26-4-1.88-1.51-.8-3.17-1.28-4.87-1.39-2.79 0-7.36 2.82-8.77 3.68-.11.06-.19-.11-.09-.18 1.72-1.07 6-4.55 10.46-4.33 1.64.25 3.23.78 4.69 1.58 1.57.67 3.12 1.4 4.65 2.16 2.99 1.47 5.85 3.16 8.58 5.07 2.56 1.83 5.29 4 7 6.63 1.62 2.37 1.82 5.44.5 8-1.23 2-3.86 2.54-5.06 2.7-1.18.15-2.37.15-3.55 0-2.62-.57-5.2-1.32-7.72-2.25-2.44-1-4.64-2.62-7.15-3.38-1.2-.41-2.51-.32-3.64.25-1.03.69-1.94 1.52-2.72 2.48-1.68 1.65-3.2 3.46-4.54 5.39-.33.56-.7.39-.42-.13z" fill="#263238"/><path d="m170.91 145.33c1.76-3.6 4.73-18.42 7.59-23s15.9-20.27 22-19.59c7.67.85-.31 14.66-4.32 20.35s-3.32 15.36-3.32 15.36z" fill="#f7a9a0"/><path d="m201.77 113.7c-1.43 1.8-2.69 3.8-3.93 5.73-1.28 1.79-2.42 3.68-3.42 5.64-.84 2.01-1.34 4.14-1.49 6.31-.1 1.07-.13 2.13-.14 3.2s.1 2.35.08 3.51c-.02.05.01.11.06.13s.11-.01.13-.06c0-.02 0-.04 0-.06.14-2.13.41-4.25.83-6.35.37-2.18 1.01-4.31 1.91-6.33 1.79-4 4.41-7.6 6.23-11.59.04-.15-.16-.25-.26-.12z" fill="#263238"/><path d="m192.95 140.11c.11 1.79.49 3.56 1.11 5.25.57 1.71 1.26 3.38 2.06 5 .78 1.61 1.64 3.18 2.59 4.7.92 1.53 2 2.91 3.13 4.37 2.3 2.85 4.13 6.05 5.43 9.47 1.22 3.42 1.83 7.04 1.8 10.67-.33-3.58-1.17-7.1-2.5-10.44-1.42-3.29-3.28-6.36-5.53-9.15-1.14-1.42-2.2-2.9-3.16-4.45-.94-1.57-1.77-3.19-2.5-4.87-1.38-3.33-2.66-6.89-2.43-10.55z" fill="#263238"/><path d="m247.66 118.95c.22 2.35.55 4.68 1 7 .35 2.11.9 4.18 1.63 6.19 1.43 3.61 4.16 7 8.37 7.93 3.96.76 8.05-.12 11.35-2.43 3.49-2.3 6.21-5.56 8.7-8.73 1.55-1.96 3.01-3.98 4.37-6.06.68-1.06 1.38-2.1 2-3.19s1.21-2.19 1.91-3.23c.06-.09.24 0 .19.07-1.36 2.46-5.44 10.26-6.8 12.19-2.49 3.52-5.2 7.11-8.81 9.71-3.46 2.63-7.8 3.81-12.12 3.3-4.21-.66-7.77-3.45-9.42-7.37-.96-2.3-1.57-4.74-1.81-7.22-.34-2.72-.52-5.46-.64-8.19.02 0 .08 0 .08.03z" fill="#263238"/><path d="m262.07 133.28c9.18-.25 20.5-17.36 23.52-29.59.2-.84-10.62-29.31-12.18-35.18-.34-1.2-34.47 18.72-34.47 18.72s6.89 11.33 9.54 21.57c.21.86 4.71 24.72 13.59 24.48z" fill="#f7a9a0"/><path d="m238.94 87.23s6.89 11.33 9.54 21.58c0 .2.34 1.69.87 3.85 17.07-6.27 25.36-20 29.16-29.23-2.33-6.46-4.48-12.53-5.1-14.9-.34-1.22-34.47 18.7-34.47 18.7z" fill="#263238"/><path d="m219.34 20.88c-2.19.37-9.54 17.83-8.47 25.47s6.06 22.44 8.34 22.37 1.86-48.13.13-47.84z" fill="#263238"/><path d="m271.86 27.65c7.54 11.93 10.95 51.41 4 62.33-10.11 15.83-31.8 23-46.55 9.71-14.31-12.9-17.85-64.43-9.58-74.88 12.16-15.39 40.99-14.78 52.13 2.84z" fill="#f7a9a0"/><g fill="#263238"><path d="m243.49 52.86c1.16.16 2.34.27 3.51.31 1.35.1 2.42.33 3.65-.36.67-.48.93-1.36.64-2.13-.7-1.57-2.32-2.11-3.94-2.3-1.62-.25-3.28.1-4.66 1-.87.63-1.06 1.84-.43 2.71.29.41.74.68 1.23.77z"/><path d="m245.07 61.48c0-.11.22.1.23.21.19 2.67.86 5.69 3.35 6.33.08 0 .09.15 0 .15-3.02-.11-3.87-4.14-3.58-6.69z"/><path d="m247.12 58.46c4.25-.77 5.46 7.78 1.53 8.48s-5.08-7.84-1.53-8.48z"/><path d="m229.75 63.23c0-.1-.19.16-.17.26.46 2.64.54 5.73-1.73 6.95-.07 0 0 .17 0 .15 2.91-.79 2.75-4.9 1.9-7.36z"/><path d="m226.99 60.84c-4.3.29-3.42 8.87.56 8.61s3.05-8.84-.56-8.61z"/><path d="m223.07 56.29c1.11-.4 2.2-.85 3.27-1.36 1.25-.54 2.3-.84 3.07-2 .37-.74.2-1.64-.42-2.19-1.35-1.07-3.05-.79-4.58-.21-1.56.54-2.87 1.64-3.66 3.09-.45.97-.02 2.13.95 2.57.43.2.92.23 1.37.1z"/><path d="m250.53 83.12c-.54.71-1 1.65-2 1.87-.99.12-1.99.03-2.94-.26-.04-.03-.1-.02-.12.02s-.02.1.02.12c.91.97 2.29 1.35 3.57 1 1.06-.44 1.75-1.48 1.75-2.63.01-.2-.2-.23-.28-.13z"/><path d="m246.63 75.59c-1.06 2.31-3.03 4.08-5.45 4.87-1.04.35-2.12.56-3.22.61-.21.02-.42.02-.63 0-.2.01-.39.01-.59 0-.3-.01-.55-.23-.62-.52 0-.09 0-.18 0-.27v-.23c-.35-2-.59-5.16-.59-5.16-.69.48-4.25 2.72-4.34 1.65-.72-8.89-1.53-18.77-.38-27.76.03-.14.16-.22.29-.2.1.02.18.1.2.2 1 8.52.57 17.16 1.48 25.72 1.26-.82 2.63-1.46 4.07-1.89.3 0 .36 6 .59 6.95v.09c3.48 0 5.92-1.45 8.91-4.22.17-.2.4-.07.28.16z"/><path d="m276.49 61.54c-6.88 1.55-11.34-5.74-15.18-16.25-2.25-6.15-2.26-19-2.26-19s-16.68 10.72-26.89 11.18-20-7.07-20.6-15c-.51-6.85 9.76-17.21 24.74-19.87 10.45-1.85 29.33 4.2 38.68 14.45 0 0 14.07 4.55 13.44 14.8s-4.12 27.93-11.93 29.69z"/><path d="m275.89 60.81c-8.91 3.17-15.61-10-16.8-17.15-1.24-7.45.62-15.4.94-22.87h-.06c-1.92 9.27-3.78 20.92.48 29.77 2.68 5.58 8.25 14.65 15.62 10.74.25-.14.1-.59-.18-.49z"/><path d="m290.07 28.53c-2.11-6-9.94-11.11-16-11.76-.06 0-.08.09 0 .1 7.38 1.62 16.62 8.65 15.49 16.84-.91 6.54-2.83 15.25-6.46 20.83-.09.14.12.27.22.14 2.94-3.83 3.83-8.44 5-13 .97-4.03 3.17-9 1.75-13.15z"/><path d="m276.44 17.77c-9.88-10.8-29.61-21.92-44.41-16.22 0 0 0 .09 0 .07 15.9-4.65 32.4 7.2 43.91 16.72.36.28.78-.27.5-.57z"/></g><path d="m272.07 62.55s5.35-14.43 11.69-12.84 4.54 21-1.33 25.07c-2.94 2.38-7.24 1.92-9.62-1.01-.06-.07-.11-.14-.17-.22z" fill="#f7a9a0"/><path d="m283.14 55.23c.11 0 .16.1.08.17-4.07 3-5.37 7.89-5.9 12.71.91-2 2.52-3.45 5.2-2.43.14.05.08.27-.06.27-1.78-.09-3.42.95-4.11 2.59-.54 1.35-.94 2.75-1.19 4.18-.11.47-.9.44-.87-.07 0-.04 0-.07 0-.11-1.63-5.76.78-15.07 6.85-17.31z" fill="#263238"/><path d="m253.78 126.58 21 62.61c.82 1.82 0 3.41-1.84 3.55l-32.96 2.49c-2.05.01-3.93-1.15-4.83-3l-21-62.61c-.82-1.83 0-3.42 1.84-3.56l32.94-2.53c2.07 0 3.96 1.18 4.85 3.05z" fill="#37474f"/><path d="m249.86 126.84 21 62.61c.82 1.82 0 3.42-1.84 3.56l-32.95 2.53c-2.06 0-3.94-1.19-4.83-3.05l-21-62.61c-.83-1.82 0-3.41 1.84-3.55l32.99-2.53c2.05.01 3.91 1.19 4.79 3.04z" fill="#455a64"/><path d="m241.07 130.45c.15 1.54 1.53 2.67 3.07 2.52s2.67-1.53 2.52-3.07-1.53-2.67-3.07-2.52c-1.54.15-2.67 1.53-2.52 3.07z" fill="#263238"/><path d="m380.41 265.23c-14.34 2.09-32.44-8.9-79.34-42.34-6.5-4.66 13.84-59.23 21-54.66 9.05 5.77 42.92 30.15 45.17 32.25 19.03 17.75 22.92 63.25 13.17 64.75z" fill="#f7a9a0"/><path d="m338.9 184.5s-13.46-18.44-23.53-25.95c-13.49-10-29.27-13.16-36-14.07-14-1.9-49 3.17-49.35 13.53-.28 9.38 35.32 2.38 35.32 2.38s-37.47 1.14-35.73 12.49 42.62.89 42.62.89-38.48 2-34.83 13.46c2.76 8.63 40.31 1.23 40.31 1.23s-33.06 2-30.61 11c2.72 9.94 37.8 5.29 37.8 5.29 10.17 21.8 23.87 28.07 34.17 31.36 2.49.79 19.83-51.61 19.83-51.61z" fill="#f7a9a0"/><path d="m278.32 159.17c-4.41 0-8.87-.08-13.26.28s-8.78.89-13.12 1.66c-10.65 1.9-17 4.76-16.6 4.62 9.76-3.15 25.46-4.71 29.86-5.08s8.75-.95 13.14-1.32c.11-.01.08-.16-.02-.16z" fill="#263238"/><path d="m279.93 175.01c-5.63.21-11.22.21-16.84.67s-10.86 1.39-16.41 2.23c-.43.06-.25.27.18.22 5.57-.62 10.78-.76 16.36-1.31s11.15-1.33 16.73-1.68c.12 0 .12-.13-.02-.13z" fill="#263238"/><path d="m283.76 188.36c-8.62-.12-17.25 1.35-25.68 3-.42.08-.16.33.27.27 8.52-1.16 15.19-2.13 25.41-3 .15.01.18-.27 0-.27z" fill="#263238"/><path d="m354.32 190.86c3.72 2.45 7.3 5.1 10.77 7.91 1.74 1.39 3.41 2.87 5 4.43 1.65 1.55 3.09 3.3 4.31 5.21 2.31 3.84 4.25 7.89 5.79 12.1 1.6 4.17 2.73 8.51 3.38 12.93-.48-2.17-1.08-4.31-1.8-6.41-.69-2.11-1.45-4.19-2.3-6.24-1.63-4.11-3.61-8.07-5.92-11.84-1.14-1.87-2.52-3.58-4.1-5.1-1.55-1.57-3.22-3-4.88-4.5s-3.38-2.88-5.1-4.29-3.4-2.83-5.15-4.2z" fill="#263238"/></svg>